<svg width="13" height="10" viewBox="0 0 13 10" fill="none" xmlns="http://www.w3.org/2000/svg">
<path d="M6.5 2.60879C6.11628 1.9381 4.7093 0.691422 2.15116 1.07016V7.17647C4.7093 6.79773 6.11628 8.04441 6.5 8.71509M6.5 2.60879V8.71509M6.5 2.60879C6.88372 1.9381 8.2907 0.691423 10.8488 1.07016V2.25372M6.5 8.71509V9M6.5 8.71509C6.88372 8.04441 8.2907 6.79773 10.8488 7.17647V2.25372M2.15116 2.25372H1V9C2.02326 8.52658 4.55581 7.86378 6.5 9M6.5 9C8.44419 7.86378 10.9767 8.52658 12 9V2.25372H10.8488" stroke="white" stroke-width="0.7"/>
</svg>
