<svg width="13" height="12" viewBox="0 0 13 12" fill="none" xmlns="http://www.w3.org/2000/svg">
<path d="M5.35296 8.08739C3.76117 8.08739 2.47076 6.4283 2.47076 4.38171C2.47076 2.33512 3.76117 0.676025 5.35296 0.676025C6.60789 0.676025 7.67549 1.7072 8.07116 3.14648" stroke="white" stroke-width="0.7"/>
<path d="M10.0231 8.22834C8.59061 9.6608 6.64662 9.81663 5.66496 8.83497C4.6833 7.85331 4.83913 5.90932 6.27159 4.47686C7.70406 3.0444 9.64804 2.88856 10.6297 3.87022C11.6114 4.85189 11.4555 6.79587 10.0231 8.22834Z" stroke="white" stroke-width="0.7"/>
<path d="M5.42834 0.691016C5.12363 1.22383 4.74707 2.5499 5.67856 3.5917L6.58845 4.38171" stroke="white" stroke-width="0.7"/>
<path d="M10.5346 4.02585C9.92363 4.19224 8.68165 4.88487 8.60118 6.32428C8.5207 7.76369 6.66779 8.6227 5.75139 8.87228" stroke="white" stroke-width="0.7"/>
<path d="M1.64697 7.65523L2.94394 8.30371V11.0313H0.35V8.30371L1.64697 7.65523Z" stroke="white" stroke-width="0.7"/>
<path d="M1.64648 8.0874L1.64648 6.44043" stroke="white" stroke-width="0.7"/>
</svg>
