<svg width="12" height="12" viewBox="0 0 12 12" fill="none" xmlns="http://www.w3.org/2000/svg">
<path d="M10.2981 7.55601C11.5783 7.13795 12.3041 5.68131 11.8774 4.3743C11.4595 3.0849 10.0693 2.37638 8.77593 2.79445C8.60436 2.85166 8.43279 2.92647 8.26122 3.02329C8.30081 2.82965 8.31841 2.64482 8.31841 2.4644C8.32281 1.09138 7.37257 0 6.0264 0C4.67582 0 3.68159 1.09138 3.68159 2.46C3.68159 2.64042 3.69919 2.82525 3.73878 3.01888C3.56721 2.92647 3.39124 2.84726 3.22407 2.79445C1.93068 2.37198 0.540518 3.0849 0.122589 4.3743C-0.304139 5.68571 0.421738 7.14235 1.70192 7.55601C1.87349 7.61322 2.05826 7.65283 2.25183 7.67483C2.11105 7.80685 1.98348 7.94768 1.87789 8.0929C1.08163 9.19308 1.32359 10.7333 2.4234 11.5299C3.51882 12.3264 4.94418 12.0887 5.74484 10.9842C5.85043 10.8389 5.94281 10.6761 6.0264 10.5001C6.10998 10.6761 6.20237 10.8389 6.30795 10.9842C7.10861 12.0887 8.48558 12.3264 9.581 11.5299C10.6808 10.7333 10.9228 9.18868 10.1265 8.0929C10.0209 7.94768 9.89335 7.80685 9.75257 7.67483C9.94174 7.65283 10.1265 7.61322 10.2981 7.55601ZM6.0264 7.468C5.44569 7.468 4.97057 6.99272 4.97057 6.41183C4.97057 5.83094 5.44569 5.35566 6.0264 5.35566C6.6071 5.35566 7.08222 5.83094 7.08222 6.41183C7.08222 6.99272 6.6071 7.468 6.0264 7.468ZM6.0264 0.704113C6.95024 0.704113 7.61893 1.44343 7.61893 2.4644C7.61893 2.92207 7.43856 3.48976 7.13941 3.97824C7.10421 4.03545 7.08662 4.10146 7.08662 4.16747L6.72148 4.80117C6.6115 4.75276 6.49272 4.71756 6.37394 4.69115V3.24772C6.37394 3.05409 6.21996 2.89566 6.0264 2.89566C5.83283 2.89566 5.67445 3.05409 5.67445 3.24772V4.69115C5.55128 4.71756 5.4325 4.75276 5.32251 4.80117L4.91338 4.13226C4.90898 4.07946 4.89139 4.02225 4.86059 3.97384C4.56144 3.48536 4.38107 2.92207 4.38107 2.46C4.38107 1.46103 5.08935 0.704113 6.0264 0.704113ZM1.91749 6.88711C1.01564 6.59226 0.487727 5.51849 0.786877 4.58994C1.08603 3.66579 2.08026 3.15971 2.9997 3.45896C3.37804 3.58218 3.79157 3.85942 4.13471 4.21588L4.73741 5.20604C4.64063 5.30725 4.55704 5.42167 4.48665 5.54489L3.12288 5.10042C2.93812 5.03881 2.74015 5.14003 2.67856 5.32486C2.61697 5.50968 2.71815 5.70772 2.90292 5.76933L4.27549 6.2138C4.25789 6.35462 4.26229 6.48224 4.27549 6.61426L3.39564 6.92231C2.87653 7.03233 2.32662 7.02353 1.91749 6.88711ZM5.17294 10.5749C4.60104 11.3626 3.6156 11.5343 2.83253 10.9622C2.04946 10.3945 1.87349 9.28989 2.4454 8.50657C2.91172 7.86406 3.72118 7.57362 3.77837 7.53401L4.49985 7.28317C4.56584 7.39759 4.64063 7.5032 4.72861 7.59562L3.87956 8.76181C3.76518 8.92023 3.80037 9.14027 3.95874 9.25469C4.11712 9.3691 4.33708 9.3339 4.45146 9.17547L5.30052 8.00929C5.4193 8.06209 5.54688 8.1061 5.67445 8.13251V9.07866C5.62606 9.64635 5.44129 10.2052 5.17294 10.5749ZM9.16747 10.9622C8.358 11.5475 7.42976 11.3362 6.87545 10.5749C6.6071 10.2052 6.41793 9.64635 6.36954 9.07866V8.13251C6.50152 8.1061 6.62909 8.06209 6.75227 8.00929L7.60133 9.17547C7.71571 9.3339 7.93567 9.3691 8.09405 9.25469C8.25242 9.14027 8.28762 8.92023 8.17323 8.76181L7.32418 7.59562C7.41216 7.4988 7.48695 7.39759 7.55294 7.28317L8.20843 7.52081C8.28762 7.58242 9.08828 7.85526 9.559 8.50657C10.1265 9.28989 9.95054 10.3945 9.16747 10.9622ZM8.62636 6.92671L7.7685 6.61866C7.7861 6.48224 7.7861 6.35462 7.7685 6.2138L9.14107 5.76933C9.32584 5.70772 9.42702 5.50968 9.36543 5.32486C9.30384 5.14003 9.10588 5.03881 8.92111 5.10042L7.54854 5.54489C7.47815 5.42167 7.39017 5.30725 7.29338 5.20164L7.87408 4.19827C8.21723 3.85062 8.61756 3.58218 8.9915 3.46336C9.91094 3.16411 10.9052 3.67019 11.2043 4.59434C11.5079 5.52289 10.98 6.59666 10.0737 6.89151C9.67778 7.01913 9.14107 7.03233 8.62636 6.92671Z" fill="white"/>
</svg>
