<svg width="10" height="9" viewBox="0 0 10 9" fill="none" xmlns="http://www.w3.org/2000/svg">
<path d="M8.45299 0.368206C7.38768 -0.233014 6.01667 -0.0803231 5.10421 0.697445C5.044 0.749932 4.956 0.749932 4.89578 0.697445C3.98333 -0.0803231 2.61232 -0.233014 1.54701 0.368206C0.592867 0.912166 0 1.94283 0 3.06415C0 3.38862 0.0509495 3.70831 0.138953 3.98029C0.616026 6.18954 4.63177 8.80914 4.80315 8.91888C4.80315 8.91888 4.93284 9 4.99305 9C5.04863 9 5.19685 8.91888 5.19685 8.91888C5.36823 8.80914 9.38397 6.18954 9.85178 4.0137C9.94905 3.70354 10 3.38385 10 3.06415C10 1.94283 9.40713 0.912166 8.45299 0.368206ZM5.26633 1.75196C6.12784 0.68313 7.9157 0.644958 8.72626 2.05257C8.88837 2.32933 8.98564 2.64425 9.00417 2.96395C9.0227 3.25024 8.99027 3.52699 8.89301 3.84669C8.60584 5.17796 6.37795 6.96731 5.17832 7.80233C5.06716 7.87868 4.92358 7.87868 4.81241 7.80233C3.61278 6.96731 1.38027 5.17796 1.08847 3.81329C1.02362 3.5938 0.986568 3.36953 0.986568 3.1405C0.986568 2.34364 1.40343 1.61359 2.07967 1.23186C2.39463 1.05531 2.74664 0.959882 3.10329 0.959882C3.73321 0.959882 4.33071 1.24618 4.73367 1.75196C4.73367 1.75196 4.90968 1.95714 5.02084 1.95237C5.12737 1.9476 5.26633 1.75196 5.26633 1.75196Z" fill="white"/>
</svg>
