<svg width="16" height="16" viewBox="0 0 16 16" fill="none" xmlns="http://www.w3.org/2000/svg">
<path d="M3.39651 15.6501C2.09264 15.6501 1.03565 14.5931 1.03565 13.2892C1.03565 11.9854 2.09264 10.9284 3.39651 10.9284C4.70037 10.9284 5.75736 11.9854 5.75736 13.2892C5.75736 14.5931 4.70037 15.6501 3.39651 15.6501Z" stroke="white" stroke-width="0.7"/>
<path d="M3.33617 11.0629L1.61536 10.068L2.47577 9.57056L4.19658 9.57056L5.05699 10.068L3.33617 11.0629Z" fill="white"/>
<path d="M6.63263 2.84894C5.0592 4.42237 5.0592 6.97339 6.63263 8.54682C8.20605 10.1202 10.7571 10.1202 12.3305 8.54682C13.9039 6.97339 13.9039 4.42237 12.3305 2.84894" stroke="white" stroke-width="0.7"/>
<path d="M9.2054 13.0932C8.3293 13.0932 7.61908 12.383 7.61908 11.5069C7.61908 10.6308 8.3293 9.92056 9.2054 9.92056C10.0815 9.92056 10.7917 10.6308 10.7917 11.5069C10.7917 12.383 10.0815 13.0932 9.2054 13.0932Z" stroke="white" stroke-width="0.7"/>
</svg>
