<svg width="14" height="15" viewBox="0 0 14 15" fill="none" xmlns="http://www.w3.org/2000/svg">
<path d="M4.18741 6.92507L3.98344 7.01872V7.24315V13.1668C3.98344 13.6179 3.61779 13.9835 3.16675 13.9835C2.7157 13.9835 2.35005 13.6179 2.35005 13.1668V7.24315V7.01872L2.14608 6.92507C1.11434 6.45138 0.35 5.26247 0.35 3.83326C0.35 1.95155 1.6575 0.516504 3.16675 0.516504C4.67599 0.516504 5.98349 1.95155 5.98349 3.83326C5.98349 5.26247 5.21915 6.45138 4.18741 6.92507Z" stroke="white" stroke-width="0.7"/>
<path d="M7.66602 0.499756V5.49988C7.66602 6.60448 8.56147 7.49993 9.66607 7.49993V7.49993V13.3332C9.66607 13.7014 9.96456 13.9999 10.3328 13.9999V13.9999C10.701 13.9999 10.9995 13.7014 10.9995 13.3332V7.49993V7.49993C12.1041 7.49993 12.9995 6.60448 12.9995 5.49988V0.499756M11.5 0.499908V5.49991M9.5 0.499908V5.49991" stroke="white" stroke-width="0.7"/>
</svg>
