<svg width="16" height="16" viewBox="0 0 16 16" fill="none" xmlns="http://www.w3.org/2000/svg">
<path d="M5.5 6.67877L6.68134 8.64175L6.75779 8.7688L6.90225 8.80225L9.1342 9.31918L7.63235 11.0493L7.53515 11.1613L7.54797 11.309L7.74606 13.5914L5.63653 12.6977L5.5 12.6399L5.36347 12.6977L3.25394 13.5914L3.45203 11.309L3.46485 11.1613L3.36765 11.0493L1.8658 9.31918L4.09775 8.80225L4.24221 8.7688L4.31866 8.64175L5.5 6.67877Z" stroke="white" stroke-width="0.7"/>
<path d="M12 10.6788L12.3584 11.2744L12.4349 11.4014L12.5793 11.4349L13.2566 11.5917L12.8009 12.1167L12.7037 12.2286L12.7165 12.3764L12.7766 13.0689L12.1365 12.7977L12 12.7399L11.8635 12.7977L11.2234 13.0689L11.2835 12.3764L11.2963 12.2286L11.1991 12.1167L10.7434 11.5917L11.4207 11.4349L11.5651 11.4014L11.6416 11.2744L12 10.6788Z" stroke="white" stroke-width="0.7"/>
<path d="M10 2.67877L10.6876 3.82132L10.7641 3.94837L10.9085 3.98183L12.2076 4.2827L11.3335 5.28971L11.2363 5.40169L11.2491 5.54941L11.3644 6.87791L10.1365 6.35773L10 6.29989L9.86347 6.35773L8.63562 6.87791L8.75091 5.54941L8.76373 5.40169L8.66653 5.28971L7.79238 4.2827L9.09149 3.98183L9.23595 3.94837L9.3124 3.82132L10 2.67877Z" stroke="white" stroke-width="0.7"/>
</svg>
