<svg width="15" height="13" viewBox="0 0 15 13" fill="none" xmlns="http://www.w3.org/2000/svg">
<path d="M11.4 7.68571C12.8359 7.68571 14 6.52165 14 5.08571C14 4.87155 13.9741 4.66342 13.9253 4.46431L13.0714 1H9.54284L8.87471 4.46431C8.82588 4.66342 8.79999 4.87155 8.79999 5.08571C8.79999 6.52165 9.96405 7.68571 11.4 7.68571Z" stroke="white" stroke-width="0.7"/>
<path d="M11.4004 7.68567V12.3285" stroke="white" stroke-width="0.7"/>
<path d="M9.91431 12.3286H12.8857" stroke="white" stroke-width="0.7"/>
<path d="M7.83332 3.68436C7.34353 3.3946 6.77341 3.22852 6.1649 3.22852C4.33823 3.22852 2.85742 4.72516 2.85742 6.57137C2.85742 8.41758 4.33823 9.91423 6.1649 9.91423C7.49908 9.91423 8.64876 9.11582 9.17171 7.96594" stroke="white" stroke-width="0.7"/>
<path d="M8.61429 1.9647C7.89283 1.58583 7.07145 1.37146 6.2 1.37146C3.32812 1.37146 1 3.69958 1 6.57146C1 9.44334 3.32812 11.7715 6.2 11.7715C7.96707 11.7715 9.52827 10.89 10.4679 9.54289" stroke="white" stroke-width="0.7"/>
</svg>
