<svg width="14" height="16" viewBox="0 0 14 16" fill="none" xmlns="http://www.w3.org/2000/svg">
<circle cx="6.72309" cy="4.50385" r="3.33501" stroke="white" stroke-width="0.7"/>
<path d="M8.19947 1.72414C8.20273 1.41412 8.32263 1.10511 8.55917 0.868564C9.03886 0.388869 9.8166 0.388869 10.2963 0.868564C10.776 1.34826 10.776 2.126 10.2963 2.60569C10.0598 2.84224 9.75074 2.96214 9.44072 2.9654" stroke="white" stroke-width="0.7"/>
<path d="M5.18432 1.72414C5.18106 1.41412 5.06116 1.10511 4.82462 0.868564C4.34492 0.388869 3.56719 0.388869 3.08749 0.868564C2.6078 1.34826 2.6078 2.126 3.08749 2.60569C3.32403 2.84224 3.63305 2.96214 3.94307 2.9654" stroke="white" stroke-width="0.7"/>
<path d="M3.85751 6.76172C2.85723 7.58781 2.21973 8.83752 2.21973 10.2361C2.21973 10.8139 2.32853 11.3663 2.52677 11.8739M9.58974 6.76172C10.59 7.58781 11.2275 8.83752 11.2275 10.2361C11.2275 10.8139 11.1187 11.3663 10.9205 11.8739M4.13343 13.9212C4.86607 14.4371 5.75947 14.74 6.72362 14.74C7.68778 14.74 8.58118 14.4371 9.31381 13.9212" stroke="white" stroke-width="0.7"/>
<circle cx="10.4083" cy="13.1021" r="1.28778" stroke="white" stroke-width="0.7"/>
<circle cx="3.03817" cy="13.1021" r="1.28778" stroke="white" stroke-width="0.7"/>
<path d="M9.75059 6.37663C10.3495 5.98444 11.3649 6.47565 12.0185 7.47378C12.6722 8.47192 12.7166 9.599 12.1177 9.99119C11.8292 10.1801 11.4441 10.164 11.0493 9.98508" stroke="white" stroke-width="0.7"/>
<path d="M3.68989 6.5333C3.12711 6.09085 2.07311 6.49254 1.33569 7.43049C0.598279 8.36844 0.456704 9.48748 1.01948 9.92993C1.29057 10.1431 1.67565 10.1603 2.08442 10.0161" stroke="white" stroke-width="0.7"/>
</svg>
