<svg xmlns="http://www.w3.org/2000/svg" viewBox="0 0 439.69 328.81"><g id="Слой_2" data-name="Слой 2"><g id="Layer_1" data-name="Layer 1"><path d="M338.78,157.49c-.15,1.26-.25,2.69-.38,4.69a15.47,15.47,0,0,1-2.31,6.25c-.62.62-4.75,3-5.69,3s-3.18,1.37-.56-2.5,2.75-3.75,4.81-7S338.9,156.43,338.78,157.49Z" fill="#fff"/><path d="M382.49,152.37c-.32,4.32-1.67,7.33-4.5,11.83s-4.17,9.5-2,8.17,8.54-6.75,9.54-9.5,2.12-8.25,1.5-9.13S382.7,149.49,382.49,152.37Z" fill="#fff"/><path d="M341.53,195.87c-.75-.13-8.5-3.6-8.5-3.6s-3.75,8.85-4.13,9.72-1.87,12.25-2.25,16.63.38,14.37.5,17.87,1.13,16.38,1,16.75-.5,17.75-.5,17.75,15,6.63,15.38,6.88,19.12,5.75,23.62,5.75,28.63-4,29.13-4.5,9.62-6.25,10.25-6.5,7.25-4.63,7.25-4.63l.25-3.37s14.37-6.25,15.75-12,1.37-14.38,3.62-15.5a7.51,7.51,0,0,0,3.88-4c.75-1.63,2.25-7.88.5-11.25s-4.88-5-6.63-6.25-8-3.5-11.37-4.13-10.13-3-11.5-4.62-5.88-7-6.88-7.75-5.87-7.63-6.25-8-2.46-2.56-2.85-2.78-12.21,8.15-18.33,8.78a211.61,211.61,0,0,1-22.07.25c-1.87-.19-9.62-1.5-9.62-1.5" fill="#fff"/><path d="M322.45,149.64c-.9-.44,2.41-6.33,3.16-7.66a49.09,49.09,0,0,1,6.42-7.25,48.88,48.88,0,0,1,6-3.75c1.58-.67,10-3.42,10.83-4.09a30.36,30.36,0,0,1,3.92-2s-.42,3.09.33,2.67,8.5-3.25,8.5-3.25l-1,2.5s11.92,1.42,15.59,2.08,10.66,4,12,5.84a85.1,85.1,0,0,0,6.08,7.33c.75.58,3.83,5.58,3.83,5.58s1.09,3.92-4.41,2.5-23.67-4.41-30.92-4.25a161.6,161.6,0,0,0-24.58,3.17c-6.34,1.33-15.67,3.58-15.75,3.25S322.78,149.81,322.45,149.64Z" fill="#d61164"/><path d="M319.4,175c0-1-1.37-4.88,0-4.63s5.75,2.63,8.38,2.88a6.8,6.8,0,0,0,5.62-1.88,34,34,0,0,0,4.63-6.12c.87-1.75,3.62-8.88,4.25-10.75s1.87-5.38,3.62-5.63,5.75-.62,9.25,4.5,9.63,15.75,12.38,17.13a15.85,15.85,0,0,0,10.12.5c2.25-.88,5.88-2.25,7.13-4.63s2.37-5.12,2.12-6.87-.62-6.75-.62-6.75-1.5-1.25.12-1.25,15.13,5.75,15.75,6.37a10.2,10.2,0,0,1,1.5,4.88,54.44,54.44,0,0,1-1.75,10.37c-.75,1.88-6.25,11.13-7.62,12.13S388.53,190,386.9,191s-15.25,5.75-17.25,6.37-8.62,2-12.25,1.25-17.87-2.25-24.37-6.37a47.87,47.87,0,0,1-11.88-11.5C320.78,180.14,319.4,175,319.4,175Z" fill="#d61164"/><path d="M342.28,245.81a27.75,27.75,0,0,1,3.58-5.5c1.25-1.25,5.59-6.25,6.84-7.08s4.41-3.59,6-4.09,5.25-2.25,5.5-2.16,3.83,3,4.66,3.41,3.09,1.92,6,3.34,7.75,3.41,9.5,5,6,6.75,6.92,8.83,2.08,6.58,1.08,8.58-1.75,5.84-3.75,6.92a48.71,48.71,0,0,1-8.16,3.42c-2.42.66-5.67,2.5-9.42,1.25s-12.42-4.84-13.75-6.25-7.25-5.84-8.5-7-3.33-4.17-4-4.84A34.06,34.06,0,0,1,342.28,245.81Z" fill="#d61164"/><path d="M436,220.31a26.91,26.91,0,0,0-7.33-5.58,66.46,66.46,0,0,0-8.92-2.75c-1.43-.32-5.56-1.14-8-1.71a37.47,37.47,0,0,1,13,7.94c6.45,5.7,8.31,12.21,6.53,19.81a16.75,16.75,0,0,0,4.61-2.71c2-1.92,2.66-7.5,2.66-9.33S437.36,222,436,220.31Z" fill="#d61164"/><path d="M416.91,232.11a17.28,17.28,0,0,0-6.68-6c-2.33-1.05-4-1.53-5.44-2.37a9.7,9.7,0,0,1-1.88,1.07c.93,2.37,4.83,9.81,5.62,11.54s1.17,2.92,2.42,3.17c1,.19,4.77.89,7,1.19C418.32,237.8,418.7,234.65,416.91,232.11Z" fill="#d61164"/><path d="M331.7,273.64a84,84,0,0,0,1.5,8.5c.66,2.17,2.08,9,2.75,10.17s4.08,7.25,4.41,8.58,1.34,5,1.5,5.92.09,6.25.09,8.08a44.22,44.22,0,0,0,.41,7.09,6.8,6.8,0,0,0,4.17,3.33c2,.5,11.83,2.92,15.08,3s10.59-.83,12-1.5,5.25-1,5.84-2a3.4,3.4,0,0,0,.25-3.42c-.67-1-2.09-3.5-2.09-3.5s-.91,0,2.09.17,9.08.75,11.75.42,8.16-.5,9-1.25,3.58-1.42,3.58-2.67a6.75,6.75,0,0,0-1.17-3.58c-.66-1-1.16-1-.83-2.17s3.67-10.83,4-12.75,1.17-7.08,1-8.42a8.9,8.9,0,0,1,0-3.66,60.28,60.28,0,0,0,2.58-6.25c.34-1.42,1.5-4.17,1.5-5.34v-2.25s-12.41,9.67-26.5,12.17-30.25-.67-35.08-2-11.25-4.42-12.92-5.08-5-2.17-5-2.17Z" fill="#d61164"/><path d="M347.84,160.34a7.46,7.46,0,0,0-5.32,1.89c-1.5,1.37-1.8,3.33.25,4.42s3.91,2,3.91,3.2a5.3,5.3,0,0,1-.17,1.19c.74,0,1.49-.06,2.23-.07a5.36,5.36,0,0,1,0-1.49,1.09,1.09,0,0,1,.74-1c.75-.29,3.87-2,4.5-3.22C354.81,163.66,353.42,160.22,347.84,160.34Z"/><path d="M343,207.65c11.5,2.91,20.58,12.75,20.58,12.75C355.35,206.65,343,207.65,343,207.65Z"/><path d="M342.77,204.81c-.25,0,17.33.92,24.75,11.5C367.52,216.31,362.93,201.81,342.77,204.81Z"/><path d="M405.66,227.5c-.52-1.19-1-2.3-1.44-3.34a10.69,10.69,0,0,1-1.79.9c.43,1,.9,2.09,1.4,3.25,2.72,6.19,5.61,12.19,7.33,20.85a3.46,3.46,0,0,1,1.87-.9,39.46,39.46,0,0,0-2.31-8,38.4,38.4,0,0,0,7.1,1.49c.08-.65.16-1.32.24-2a37.51,37.51,0,0,1-8.16-1.87C408.46,233.89,407,230.47,405.66,227.5Z"/><path d="M320.32,132.2c-1.58,2-4.83,3-2.67,4.08s1.34,1,5.25.25,5.09-.5,7.09-1.41,4.41-2.17,2.41-3.34-4.66-2-6.66-1.58A34.79,34.79,0,0,0,320.32,132.2Z" fill="#d61164"/><path d="M391.9,121.62c-1.58-.75-4.91-3.67-5.66-2s-.17,3.25,2.75,8.5-.09,6.75,3.33,8.5,5.5,4,5.92-.25,1.83-5.34-.67-8.59A56.05,56.05,0,0,0,391.9,121.62Z" fill="#d61164"/><path d="M438.6,222.55c-3.53-8.35-13.49-10.54-20.76-12.14-3.28-.72-6.11-1.34-7.62-2.31-5-3.23-16.08-19.42-16.08-19.42-.31-.71-.58-1.3-.8-1.75a41,41,0,0,0,3.33-3.61c5.73-7.09,8.63-15.83,7.54-22.54l.35-9.84L400,148.77a42,42,0,0,0-3.68-5.83,15,15,0,0,0,3.8-10.77,16.89,16.89,0,0,0-5.79-11.28c-3.85-3.34-12-6.91-17.23-4-3.86,2.18-4.39,7.8-4.43,10.1a47.73,47.73,0,0,0-10.29-1.13H362l2.8-4.81-10.44,5,.25-3.06-1.56.72c-.07,0-7.46,3.43-13.2,5.73-1.31.52-2.62,1.1-3.91,1.75a23.72,23.72,0,0,0-12.23-1.47c-6.62,1.23-12.32,7.59-11.73,13.09a9.48,9.48,0,0,0,4.68,7.27c-3.92,2.09-3.14,4.81-2.81,6.33,0,0,.37,3.25,1.12,7.5a13.4,13.4,0,0,0,3.19,6c.06,2,.2,3.26.23,3.53,0,1,.89,11.57,13.27,18.91a87.09,87.09,0,0,0-5.4,18.3h0v0a46.06,46.06,0,0,0-.66,7.09,138.68,138.68,0,0,0,.91,20.64c.17,1.42.5,8.29.38,13.88-.37,17.4-.07,18.59,0,19l.11.42.38.21c1.16.63,2.31,1.22,3.44,1.8h0c0,.52.7,13,6.63,23.44A27.76,27.76,0,0,1,340.86,315a16.42,16.42,0,0,0-.13,2.73,15.35,15.35,0,0,1,0,2.14c-.06,1.43-.12,2.78,1.57,3.87,1.06.68,8.36,5.07,20.53,5.07A57.5,57.5,0,0,0,379,326.4a2.81,2.81,0,0,0,2.22-2.33c.25-1.9-1.47-4.25-2.87-5.17a2.3,2.3,0,0,1-.12-.37,79.7,79.7,0,0,0,12.37,1.11c6.06,0,12.24-1,14.26-4.86,1.19-2.27-.47-3.62-1.46-4.43s-.92-.86-.82-1c5.9-10,5.5-23.85,5.4-25.87a30,30,0,0,0,4.58-13.39c1.17-1,1.82-1.73,1.9-1.82l.25-.27v-.37c.1-1.48.13-3,.09-4.59a16.83,16.83,0,0,1-1.8.74c-.11,0-.2.05-.3.08,0,1.07,0,2.17,0,3.31-3,3-32.76,30.77-83.93,3.28-.09-1.1-.2-4.92.08-18.06.12-5.66,0-10.42-.08-11.55a189.54,189.54,0,0,1-1.21-23c0-.72,0-1.44.09-2.17,3.07,9.91,11,32,23.64,42.68,7.7,6.51,16.27,10,24.13,10a25.25,25.25,0,0,0,4.46-.39c5.49-1,9.81-3.9,12.18-8.16a13.55,13.55,0,0,0,.43-12c-2.67-6.68-9.93-13.2-17.26-15.49-5.07-1.59-9.39-5.72-12.39-9.37a48.59,48.59,0,0,1-4.53-6.53,13.27,13.27,0,0,0,2.75,7.55c.66.81,1.38,1.65,2.16,2.48-10.62,2.52-18.71,13.29-21.29,17.11-8.16-13.58-12.87-30.09-13.66-33a86.72,86.72,0,0,1,5.11-17.26,50.85,50.85,0,0,0,15,4.8,70.23,70.23,0,0,0,11.94,1.07c15.28,0,25.35-5.6,31.47-10.9A106.33,106.33,0,0,1,399,210q1-.27,1.95-.45A106.17,106.17,0,0,0,397,195.79c3.25,4.54,7.71,10.36,11,13.09-.27.11-.57.24-.88.39a25.23,25.23,0,0,1,9,2.8l1.34.29c7.22,1.59,16.22,3.57,19.35,11a10.43,10.43,0,0,1-2,11.65,13.89,13.89,0,0,1-3.31,2.53,25.65,25.65,0,0,1-.67,2.57,16.48,16.48,0,0,0,5.43-3.73A12.5,12.5,0,0,0,438.6,222.55Zm-37.78,85.76c-1,1.73.42,2.89,1.27,3.59,1.18,1,1.32,1.25,1,2-2.79,5.31-18.43,3.78-25.1,2.61-.08-1.2-.12-2.64-.15-3.93-.12-4.21-.27-9.27-1.35-12.79a44.24,44.24,0,0,0,12.42-2.23c8.23-2.68,13.59-6.91,17.1-11.29C405.89,291,405.17,300.92,400.82,308.31ZM372,284.51a65.48,65.48,0,0,0,19.83-3,59.57,59.57,0,0,0,18.48-9.61A28.59,28.59,0,0,1,403.56,286a22.19,22.19,0,0,0,.56-4.32c-.29,2-2.05,5.12-3.2,7-.27.24-.54.47-.83.7a34.5,34.5,0,0,0,.56-4.79,19.33,19.33,0,0,1-4.24,7.38,38.38,38.38,0,0,1-8.16,3.7c-23.22,7.56-38.46-7.23-38.61-7.38a28,28,0,0,0,16.15,10.44,40.29,40.29,0,0,0,8.55,1.07c1.18,3.17,1.33,8.48,1.46,12.85.14,5.15.25,7.27,1.36,8s2.16,2.32,2,3.26c0,.14-.07.47-.8.68-20.89,6.09-33.63-1.54-35-2.42-.7-.45-.71-.73-.65-2.1a17.73,17.73,0,0,0,0-2.4,14.88,14.88,0,0,1,.13-2.38,29.54,29.54,0,0,0-3.67-19c-4.69-8.29-6-18.17-6.28-21.44C348,282,361.18,284.51,372,284.51Zm-7.08-56.32a25.91,25.91,0,0,0,9.72,6.08c6.81,2.13,13.53,8.15,16,14.32a11.62,11.62,0,0,1-.32,10.24c-2.07,3.72-5.9,6.26-10.79,7.16-8.39,1.54-18.21-1.81-26.94-9.19a50.11,50.11,0,0,1-9.48-11.33C344.82,242.83,353.67,230,364.91,228.19ZM396,136s1.17-8.47-9-14.76C387,121.26,400,124.51,396,136Zm-55.42-4.7c4.2-1.67,9.25-3.93,11.75-5.06l-.25,3.12,7.72-3.69-1.41,2.44,1.9-.15s.81-.07,2.13-.07c3.86,0,11.32.52,17.91,4a43.42,43.42,0,0,1,16.56,15.41c-6.53-3.09-14.92-7-15.3-6.84-2.28-.5-6.05-.36-10.24.09-5.34-.36-12.79-.85-13.05-.8a29.85,29.85,0,0,0,5.12,1.88c-7,1.13-13.33,2.49-14.46,2.64-2.41.31-4.55.8-10.81,1.25-1.6.12-3.07.25-4.48.41,1.48-1.9,3.38-4.43,3.38-4.43l-7.26,5c-2.09.34-4.06.76-6.06,1.28C327.69,137.69,334.14,133.89,340.55,131.32Zm35.77,38.78s6.75-4.92,8.79-15.33C385.11,154.77,387.05,167.41,376.32,170.1Zm-45.5,1.21a30.78,30.78,0,0,0,6.88-12.46S338.88,167.43,330.82,171.31Zm1.38-38.5a15.28,15.28,0,0,0-2.34,1.67s-6.5-2.5-11.25,2.16C318.86,136.23,322.45,129.14,332.2,132.81Zm46.79,61c-.15,0-17.05,4.83-28.81-2.88.22.05,5.54,4.87,12.89,6.21-.9,0-1.8.09-2.74.09-.41,0-.83,0-1.25,0a37.83,37.83,0,0,1-13.65-5.77,16.83,16.83,0,0,0,5.65,5.12c-.78-.11-1.56-.22-2.35-.36-27.67-4.75-28.36-22.09-28.38-22.82v-.11s-.06-.48-.11-1.3a11.89,11.89,0,0,0,7.36,2.81c6.62,0,11.37-8.39,13.09-12.34,2.09-4.8,2.17-11.79,6.25-12.38,4.62-.66,7.38,11.13,13.88,17.88s17.87,6.37,23.12,1,3.5-16.5,3.5-16.5l14.66,7.87,0,.13c1.33,6.23-1.42,14.72-7,21.62A39.89,39.89,0,0,1,379,193.82Z"/><path d="M371,237.73c13.12,4.56,15.62,12.25,15.62,12.25A16.63,16.63,0,0,0,371,237.73Z"/><path d="M20.4,204.78c-.37.38-3.87,23.75-2.37,25.88s3.62,2.5,4.25,3.25.37,6.37.37,6.37-16.37,1.38-17.12,1.63-1,8.62-1,9-1.88,7.25,1.12,7.5,5.25,1.37,5.63,2.12,2.37,8.25,2,10-.25,4.38-3.38,4.88-6.87-.25-6.75,3.5S-2,286,5.65,286.78s28.13.63,34,.63,14.63.87,14.63.87.62,3.75.62,4.13S59,310.53,66.53,313.78s15.5,7.38,24.87,2,13.25-11.62,14.38-15.75,1.62-9,2-9,90.25.75,92.25.38,6.25-1.75,7-3.13,3.5-27.75,27.75-25.87,30.25,6.37,35.5,12.87S270.53,287,279.4,287s24.88,2,30.13.63,12.5-2.88,10.87-6.25-5.25-8.75-7.5-8.13-4.87,2.13-4.87.25-2-12-.38-14.25,5.13-2.5,6.13-6-1.13-10.37-3.38-10.12a37.37,37.37,0,0,1-6.37-.25s-1.13-9.88-1.38-12.13S295.53,206,295.53,206l-46.88-57.25s-10.87-13-13.37-14.87S219,129,218.4,129L91,129.28s-27.13.5-31.5,5.75-8.75,13.63-8.75,13.63Z" fill="#fff"/><path d="M51.19,258.65s26.16-16.66,52-3.83C103.19,254.82,85.35,232.82,51.19,258.65Z"/><path d="M186.69,233a2,2,0,0,0-2-2H161.6a2,2,0,0,0,0,4h23.09A2,2,0,0,0,186.69,233Z"/><circle cx="81.27" cy="293.78" r="12.25" fill="#d61164"/><path d="M80.94,279.6a14.18,14.18,0,1,0,14.17,14.18A14.18,14.18,0,0,0,80.94,279.6Zm0,24.35a10.18,10.18,0,1,1,10.17-10.17A10.19,10.19,0,0,1,80.94,304Z"/><path d="M190,230.82a1,1,0,0,0-1,1l0,1.07.05,1.23,0,.37v.19h0v.1a2.45,2.45,0,0,1-.1.71,2.52,2.52,0,0,1-.7,1.2,2.55,2.55,0,0,1-1.46.73,7.47,7.47,0,0,1-1,.08l-1.14,0-2.33.09-12.51.5,12.51.5,2.33.09,1.14.05a7.85,7.85,0,0,0,1.19,0,4,4,0,0,0,2.33-.94,4.15,4.15,0,0,0,1.32-1.94,4.08,4.08,0,0,0,.2-.94l0-.1v-.38l0-.37,0-1.23,0-1.07v-.08A1,1,0,0,0,190,230.82Z"/><path d="M207.44,258.65s26.16-16.66,52-3.83C259.44,254.82,241.6,232.82,207.44,258.65Z"/><path d="M346.68,169.85s-.32,4.39-3.2,4.64-6.34,2-6.37,5.21c.08-.08,2.09-3.73,5-3.25,2.59.43,4.7-.92,5.2-1.84a5.14,5.14,0,0,0,4,1.54c2.59-.08,5.75,1.18,6.59,3.38,0-.12-.88-4.84-4.88-4.92s-4.21-2.75-4.29-4.33"/><path d="M343.65,178.69s3.29-4.83,8.25.17C351.9,178.86,347.44,176.9,343.65,178.69Z"/><path d="M114.08,220.14c-7.69.05-15.13.17-22.18.27s-13.71.22-19.86.34-11.8.27-16.79.41l-13,.35c-3.59.09-6.41.22-8.33.28L31,221.9,34,222c1.92.06,4.74.2,8.33.28l13,.36c5,.14,10.63.3,16.79.4s12.81.26,19.86.35,14.49.21,22.18.26,15.63.17,23.71.17l24.48.07,20.42-.06a9.41,9.41,0,0,1-1.41-3.88l-19-.06-24.48.07C129.71,220,121.77,220.09,114.08,220.14Z"/><path d="M282.24,222.29c3.59-.08,6.41-.22,8.33-.28l2.95-.11-2.95-.11c-1.92-.06-4.74-.19-8.33-.27-7.18-.18-17.43-.54-29.74-.76-5.84-.12-65.88-1-75.35-.82-.24.92,2.33,2.93,2,3.93,7-.08,67.29-.7,73.38-.82C264.81,222.82,275.06,222.46,282.24,222.29Z"/><path d="M4,282.25v.14a5.32,5.32,0,0,0,.06.56c1.72-.06,5.89-.15,11.29,0,6.32.22,8.49-3.25,9.49-5.67H8.93A4.93,4.93,0,0,0,4,282.25Z" fill="none"/><circle cx="80.94" cy="293.4" r="23.25" fill="none"/><path d="M18.27,251c2.6-3.48,2.73-6.14,2.74-7H5.69v8.55C7.91,253,15.63,254.57,18.27,251Z" fill="none"/><path d="M307.27,251.4c1.62,1.37,4.53.69,6.21.13,0-.22,0-.45,0-.67v-.16a5.92,5.92,0,0,0-5.92-5.92h-1.91v4.69A6.85,6.85,0,0,0,307.27,251.4Z" fill="none"/><path d="M311.76,277.32H292.39c0,1.59.09,3.74,1.55,4.5,2.41,1.25,7.66,1.58,14,1.33s7.66-.41,8.5-.91l.23-.15A4.93,4.93,0,0,0,311.76,277.32Z" fill="none"/><path d="M278.08,205.15H272l4.53,4h3.85c-.2-.32-.36-.59-.44-.75C279.62,207.83,278.91,206.54,278.08,205.15Z"/><path d="M217.27,139.32H165a4.94,4.94,0,0,0-4.94,4.94v62.91a16.23,16.23,0,0,1-4,1.94h4v0H276.5l-4.53-4H165.14c0-.27,0-.51,0-.66-.53-4.7-.89-9.64-1.07-14.58V145.55a2.31,2.31,0,0,1,2.31-2.31H210.4a15.06,15.06,0,0,1,11.44,5.25c13.93,16.19,40.64,47.2,44.64,51.82l5.49,4.84h6.11c.83,1.39,1.54,2.68,1.83,3.25.08.16.24.43.44.75h6.1l-56.28-64A17.2,17.2,0,0,0,217.27,139.32Z"/><path d="M311.8,273.32H310V260.48a9.93,9.93,0,0,0,7.56-9.62v-.16a9.92,9.92,0,0,0-9.92-9.92h-2.37l-.29-9.75,0,0a6.45,6.45,0,0,0-.23-1.84l-5.38-19.48a17.19,17.19,0,0,0-3.3-6.34l-53.46-65a30.59,30.59,0,0,0-23.64-11.17l-141.11,0a30.43,30.43,0,0,0-11.22,2.15,41.9,41.9,0,0,0-10.34,6.9A30.45,30.45,0,0,0,51,143.38L18.75,204.87l-3,23.41a6.93,6.93,0,0,0,.2,2.9,6.53,6.53,0,0,0,4.73,4.45c0,1.23,0,3.18,0,4.36h-19v21.66h9v11.67H8.89A8.89,8.89,0,0,0,0,282.21v.18a8.93,8.93,0,0,0,8.93,8.93H28.42l.35,0h25c-.05.68-.08,1.35-.08,2a27.25,27.25,0,0,0,54.5,0c0-.07,0-.14,0-.22l23.26,0H202l9.15.13a28.49,28.49,0,0,1,56.91-2h14.6l-.05.16.1-.16h3.94v.08h25.07a8.93,8.93,0,0,0,8.93-8.93v-.18A8.89,8.89,0,0,0,311.8,273.32Zm-6.11-28.54h1.91a5.92,5.92,0,0,1,5.92,5.92v.16c0,.22,0,.45,0,.67-1.68.56-4.59,1.24-6.21-.13a6.85,6.85,0,0,1-1.58-1.93Zm-300,7.76V244H21c0,.9-.14,3.56-2.74,7S7.91,253,5.69,252.54ZM15.35,283c-5.4-.19-9.57-.1-11.29,0a5.32,5.32,0,0,1-.06-.56v-.14a4.93,4.93,0,0,1,4.93-4.93H24.84C23.84,279.74,21.67,283.21,15.35,283Zm65.59,33.66a23.25,23.25,0,1,1,23.25-23.25A23.28,23.28,0,0,1,80.94,316.65Zm203.92-31.72c-1.57.85-3.14-1-4.22-3.25-.61-1.66-9.82-25.28-42.32-26-29.53-.69-37.2,26.31-38.71,33.5H121.4c-1.63-7-10-34.3-41.6-33.16-23,.81-32.7,12.81-36,18.37a16.2,16.2,0,0,1-6,4.46c-2.07.72-3.05.89-3.65.75l-2.34-6.25H14.73V261.65H28.52V240.79c.78-4.32,7.83-7.65,10.35-8.71l1.15-.26H39.5l.27-.1-.7.1H22.32a2.68,2.68,0,0,1-2-.84,2.45,2.45,0,0,1-.63-2l3-22.86,31.88-60.86A26.23,26.23,0,0,1,77.8,131.15l141,0A26.74,26.74,0,0,1,239.5,141l52.89,64.32a17.13,17.13,0,0,1,3.29,6.35l5.13,18.56a2.63,2.63,0,0,1-.21,2,2.51,2.51,0,0,1-2.2,1.29H279l1.92.39c2.71,1.07,14.06,5.58,15.71,6.9s4.49,2.91,5,9.34v10.66H306v12.54H288.82Zm31.58-2.69c-.84.5-2.17.66-8.5.91s-11.59-.08-14-1.33c-1.46-.76-1.58-2.91-1.55-4.5h19.37a4.93,4.93,0,0,1,4.91,4.77Z"/><rect x="189.39" y="292.36" width="16.83" height="28.17"/><path d="M405.65,221.68A15.39,15.39,0,1,0,421,237.07,15.39,15.39,0,0,0,405.65,221.68Zm0,26.44a11,11,0,1,1,11.05-11.05A11.06,11.06,0,0,1,405.65,248.12Z"/><path d="M405.59,207.49a29.53,29.53,0,0,0-29.32,26,10.88,10.88,0,0,1,4.26,1.6,4.72,4.72,0,0,1,.48.41,24.63,24.63,0,1,1,11.1,22.06,16.1,16.1,0,0,1-2.48,4.22,29.52,29.52,0,1,0,16-54.34Z"/><rect x="180.64" y="313.53" width="34.33" height="7"/><path d="M84.73,181.26h18.2c9.55,0,18.56-5.71,21.79-14a9.61,9.61,0,0,1,6.37,9c0,5.51-4.93,9.77-11.36,9.77H102.31a106.81,106.81,0,0,1-12.48.08V214h11.69V197h18.21c11.94,0,23-8.93,23-20.71,0-10.46-7.44-18-17.26-20.1-2.16-10-11.6-16.32-22.59-16.32H73V198.3h11.7Zm0-30.65h18.2c6.52,0,11.36,4.17,11.36,9.94,0,5.51-4.93,9.77-11.36,9.77h-1.41v-4h5.16a11.06,11.06,0,0,0,1.81-10.77H89.83v14.78h-5.1Z" fill="#d61164"/><path d="M113.62,47.35l39-45.81H167V45.2h11V59.58H167V73.45H152.65V59.58h-39Zm39-2.15V21.57L132.83,45.2Z"/><path d="M221,0c20,0,34.72,15.1,34.72,37.6C255.68,59.78,241,75,221,75S186.14,59,186.14,37.6C186.14,16,200.93,0,221,0Zm.1,61.22c12,0,20.24-9.76,20.24-23.62,0-14.18-8.22-23.84-20.24-23.84s-20.54,9.66-20.54,23.84C200.52,51.46,209,61.22,221.06,61.22Z"/><path d="M264.72,47.35l39-45.81h14.38V45.2h11V59.58h-11V73.45H303.75V59.58h-39Zm39-2.15V21.57L283.93,45.2Z"/><path d="M73.3,79.21H85.09c4.94,0,9.09,3.26,9.09,8.17,0,4.65-4.38,8.17-9.09,8.17H77.91v6.72H73.3Zm11.79,4.25H77.91v7.78h7.18c2.54,0,4.48-1.68,4.48-3.86S87.66,83.46,85.09,83.46Z" fill="#d61164"/><path d="M112.93,102.27l-.46-2.17a9.59,9.59,0,0,1-6.89,2.67c-5.46,0-9.58-3.72-9.58-8.7s4.08-8.76,9.58-8.76A9.47,9.47,0,0,1,112.47,88l.46-2.18H117v16.47Zm-6.36-3.59c3.49,0,5.83-1.87,5.83-4.61s-2.37-4.71-5.83-4.71-6,2-6,4.71S103.11,98.68,106.57,98.68Z" fill="#d61164"/><path d="M136.62,99.67a9.87,9.87,0,0,1-6.82,2.51c-5.47,0-9.59-3.53-9.59-8.37s4.09-8.5,9.59-8.5a9.62,9.62,0,0,1,6.88,2.57l.46-2.08h4.09v16c0,5-4.25,8.7-10,8.7-5.3,0-9.26-2.8-10.31-6.72h4.61a6.45,6.45,0,0,0,5.57,2.7c3.29,0,5.57-1.88,5.57-4.68Zm-5.83-1.55c3.49,0,5.83-1.78,5.83-4.35s-2.37-4.41-5.83-4.41-6,1.81-6,4.41S127.33,98.12,130.79,98.12Z" fill="#d61164"/><path d="M149.17,95.19a5.15,5.15,0,0,0,5.37,4A5.25,5.25,0,0,0,159,97.23h4.68c-1.25,3.36-4.77,5.54-9.29,5.54-5.66,0-9.91-3.72-9.91-8.7s4.21-8.76,9.91-8.76,9.85,3.52,9.85,8.76a7,7,0,0,1-.06,1.12Zm10.28-2.31A4.85,4.85,0,0,0,154.34,89a5,5,0,0,0-5.17,3.85Z" fill="#d61164"/><path d="M180.2,102.27h-4.61V79.21h3.69L193.61,94.5V79.21h4.61v23.06H194.5L180.2,86.89Z" fill="#d61164"/><path d="M211,85.31c5.87,0,10.12,3.52,10.12,8.76s-4.25,8.7-10.12,8.7S201,99.05,201,94.07,205.24,85.31,211,85.31Zm0,13.18c3.3,0,5.5-1.85,5.5-4.42s-2.2-4.51-5.5-4.51-5.47,1.88-5.47,4.51S207.91,98.49,211,98.49Z" fill="#d61164"/><path d="M231.17,94.56c0,2.64,1.58,3.93,4.75,3.93v4.28c-6.1,0-9.36-3-9.36-8.21V90.05H223.2V88.21l6.13-6.1h1.84V85.8h4.75v4.25h-4.75Z" fill="#d61164"/><path d="M247.68,79.21h19v4.25H252.29v6h13.9v4.31h-13.9v8.53h-4.61Z" fill="#d61164"/><path d="M279.5,85.31c5.87,0,10.12,3.52,10.12,8.76s-4.25,8.7-10.12,8.7-10.08-3.72-10.08-8.7S273.7,85.31,279.5,85.31Zm0,13.18c3.3,0,5.5-1.85,5.5-4.42s-2.2-4.51-5.5-4.51S274,91.44,274,94.07,276.37,98.49,279.5,98.49Z" fill="#d61164"/><path d="M307.37,85.8H312v16.47h-4.15l-.43-2.73a7.51,7.51,0,0,1-6.2,3.23c-4.94,0-8.4-3.82-8.4-9.29V85.8h4.62v7.68a5,5,0,1,0,9.94,0Z" fill="#d61164"/><path d="M320.75,102.27h-4.61V85.8h4.12l.46,2.7a7.56,7.56,0,0,1,6.19-3.19c4.94,0,8.4,3.79,8.4,9.29v7.67H330.7V94.6a4.84,4.84,0,0,0-5-5,4.74,4.74,0,0,0-4.91,5Z" fill="#d61164"/><path d="M355.38,102.27l-.47-2.17a9.56,9.56,0,0,1-6.88,2.67c-5.47,0-9.59-3.72-9.59-8.7s4.09-8.76,9.59-8.76a9.61,9.61,0,0,1,6.82,2.6v-8.7h4.61v23.06ZM349,98.68c3.49,0,5.83-1.87,5.83-4.61s-2.37-4.71-5.83-4.71-6,2-6,4.71S345.56,98.68,349,98.68Z" fill="#d61164"/><path d="M366.18,98a2.26,2.26,0,0,1,2.37,2.37,2.24,2.24,0,0,1-2.37,2.41,2.26,2.26,0,0,1-2.44-2.41A2.29,2.29,0,0,1,366.18,98Zm1.68-2.24h-3.42l-.56-6.82V79.21h4.61v9.72Z" fill="#d61164"/><rect x="239.69" y="315.53" width="10" height="5"/><path d="M232.71,308.38h-7.09l-3.54,6.14,3.54,6.14h7.09l3.54-6.14Zm-3.55,8.92a2.78,2.78,0,1,1,2.78-2.78A2.79,2.79,0,0,1,229.16,317.3Z"/><polygon points="269.78 318.64 266.36 308.54 260.92 310.39 261.77 312.91 253.56 315.69 255.27 320.74 263.48 317.96 264.34 320.49 269.78 318.64"/><polygon points="155.31 318.64 158.74 308.54 164.18 310.39 163.32 312.91 171.53 315.69 169.82 320.74 161.61 317.96 160.76 320.49 155.31 318.64"/><polygon points="281.65 320.58 292.31 320.48 292.26 314.73 289.59 314.75 289.51 306.09 284.18 306.14 284.26 314.81 281.59 314.83 281.65 320.58"/><ellipse cx="405.75" cy="237.12" rx="11.44" ry="11.25" fill="#d61164"/></g></g></svg>