<svg width="306" height="351" viewBox="0 0 306 351" fill="none" xmlns="http://www.w3.org/2000/svg">
<circle opacity="0.3" cx="292.532" cy="150.792" r="13.4675" fill="url(#paint0_linear_244_60516)"/>
<circle cx="249.487" cy="79.487" r="10.487" fill="url(#paint1_linear_244_60516)"/>
<circle opacity="0.5" cx="212.623" cy="100.623" r="6.62338" fill="url(#paint2_linear_244_60516)"/>
<circle cx="105.863" cy="73.8507" r="13.1364" fill="url(#paint3_linear_244_60516)"/>
<ellipse cx="167.598" cy="56.2696" rx="39.8506" ry="47.5764" transform="rotate(-15 167.598 56.2696)" fill="url(#paint4_linear_244_60516)"/>
<path d="M183.702 108C186.388 116.095 190.149 143.236 183.702 187.039C175.644 241.792 175.754 292.461 201.696 346.773" stroke="#584659"/>
<path d="M189.305 104.188C188.334 102.51 185.442 100.03 184.117 99L177.825 100.214C176.61 103.636 175.065 110.039 176.721 110.481C178.377 110.922 179.922 107.61 181.578 107.61C183.234 107.61 182.24 109.929 184.117 110.039C185.994 110.149 186.545 106.617 187.981 106.506C189.416 106.396 190.52 106.286 189.305 104.188Z" fill="#C5DBF2"/>
<path opacity="0.43" d="M145.383 24.3963C140.261 23.8664 137.729 27.9288 137.104 30.0262C136.331 33.0067 132.136 36.208 132.578 44.4872C133.019 52.7665 139.312 56.4093 142.734 56.6301C146.156 56.8509 151.234 47.7989 152.117 42.6106C153 37.4223 151.786 25.0587 145.383 24.3963Z" fill="white"/>
<path d="M195.827 238.993C188.468 254.668 178.673 293.68 198.366 324.324" stroke="#584659"/>
<ellipse cx="216.227" cy="173.802" rx="49.1436" ry="61.8527" transform="rotate(15 216.227 173.802)" fill="url(#paint5_linear_244_60516)"/>
<path d="M206.759 240.759C206.582 236.609 204.698 233.216 203.778 232.039L198.48 230.383C193.733 232.591 189.317 237.889 189.648 239.876C189.98 241.863 191.304 239.324 195.057 239.435C198.811 239.545 195.72 243.74 198.48 244.513C201.239 245.285 202.895 242.857 204.882 243.298C206.869 243.74 206.98 245.948 206.759 240.759Z" fill="#D7F4F4"/>
<path opacity="0.43" d="M213.056 123.194C197.16 121.87 189.286 130.811 187.336 135.448C174.42 155.759 201.465 162.052 211.069 162.052C220.673 162.052 223.875 162.052 230.608 154.545C235.995 148.54 236.091 143.138 235.465 141.188C234.619 135.742 228.952 124.519 213.056 123.194Z" fill="white"/>
<ellipse cx="102.546" cy="171.797" rx="72.7148" ry="79.1469" transform="rotate(-30 102.546 171.797)" fill="url(#paint6_linear_244_60516)"/>
<path d="M143.285 239.427C146.339 266.141 165.186 325.729 216.142 350.368" stroke="#584659"/>
<path opacity="0.43" d="M67.4505 154.123C59.4141 140.523 50.8552 139.772 47.5804 141.097C39.6326 143.526 35.5479 157.766 35.3271 173.662C35.1063 189.558 47.5804 203.357 58.7297 203.026C69.8791 202.694 77.4959 171.123 67.4505 154.123Z" fill="white"/>
<path d="M166.229 240.097C162.167 235.77 154.086 232.627 150.554 231.597L134.768 242.305C133.222 255.11 135.209 259.967 138.411 259.526C141.612 259.084 142.605 251.909 146.359 250.915C150.112 249.922 152.872 254.337 155.521 253.123C158.17 251.909 157.839 252.13 159.937 246.058C162.034 239.987 171.307 245.506 166.229 240.097Z" fill="#BFA0C1"/>
<defs>
<linearGradient id="paint0_linear_244_60516" x1="279.795" y1="160.744" x2="283.889" y2="140.615" gradientUnits="userSpaceOnUse">
<stop stop-color="#BB9BBE"/>
<stop offset="1" stop-color="#E8D8E0"/>
</linearGradient>
<linearGradient id="paint1_linear_244_60516" x1="256.531" y1="76" x2="250.781" y2="108.555" gradientUnits="userSpaceOnUse">
<stop stop-color="#FEEBD9"/>
<stop offset="1" stop-color="#D3F4F5"/>
</linearGradient>
<linearGradient id="paint2_linear_244_60516" x1="206.359" y1="105.517" x2="208.373" y2="95.6183" gradientUnits="userSpaceOnUse">
<stop stop-color="#BB9BBE"/>
<stop offset="1" stop-color="#E8D8E0"/>
</linearGradient>
<linearGradient id="paint3_linear_244_60516" x1="126.755" y1="53.5" x2="120.618" y2="88.2397" gradientUnits="userSpaceOnUse">
<stop stop-color="#FEEBD9"/>
<stop offset="1" stop-color="#D3F4F5"/>
</linearGradient>
<linearGradient id="paint4_linear_244_60516" x1="167.598" y1="8.69318" x2="167.598" y2="103.846" gradientUnits="userSpaceOnUse">
<stop stop-color="#F8F1F4"/>
<stop offset="1" stop-color="#C1D8F1"/>
</linearGradient>
<linearGradient id="paint5_linear_244_60516" x1="249.237" y1="153.235" x2="217.919" y2="235.572" gradientUnits="userSpaceOnUse">
<stop stop-color="#FEEBD9"/>
<stop offset="1" stop-color="#D3F4F5"/>
</linearGradient>
<linearGradient id="paint6_linear_244_60516" x1="33.7717" y1="230.28" x2="59.7739" y2="112.85" gradientUnits="userSpaceOnUse">
<stop stop-color="#BB9BBE"/>
<stop offset="1" stop-color="#E8D8E0"/>
</linearGradient>
</defs>
</svg>
