<svg xmlns="http://www.w3.org/2000/svg" width="184" height="52" viewBox="0 0 871.8 248.14"><g id="Слой_2" data-name="Слой 2"><g id="Layer_1" data-name="Layer 1"><path d="M479.22,10.52H373.87v232h27.35V136.43h78c38.32,0,70.7-28.83,70.7-63C549.92,37.59,519.53,10.52,479.22,10.52Zm43.35,63c0,21.36-19,38.09-43.35,38.09h-78V34.83h78C503.93,34.83,522.57,51.44,522.57,73.47Z" fill="#d61164"/><rect x="566.92" y="41.76" width="26.14" height="83.43" fill="#d61164"/><path d="M580,31.92c7.25,0,12.11-4.93,12.11-12.27A11.71,11.71,0,0,0,580,7.54c-7.32,0-12.43,5-12.43,12.11C567.56,27,572.56,31.92,580,31.92Z" fill="#d61164"/><path d="M664.24,39.37a38,38,0,0,0-28.73,12.85l-1.79-10.46H610.28v83.42h26.13v-39c0-13.42,8.76-22.43,21.79-22.43,13.2,0,22.42,9.22,22.42,22.43v39h26.13v-39C706.75,58.62,689.27,39.37,664.24,39.37Z" fill="#d61164"/><polygon points="785.63 83.42 823.78 41.76 789.28 41.76 761.91 71.52 754.81 71.52 754.81 9.93 728.68 9.93 728.68 125.19 754.81 125.19 754.81 95.58 761.8 95.58 791.56 125.19 827.23 125.19 785.63 83.42" fill="#d61164"/><path d="M500.11,167.32c-8.34-7.16-19.6-11.07-32.09-11.07-27.5,0-48.24,19-48.24,44.26,0,25.05,20.74,43.94,48.24,43.94,12.37,0,23.62-3.92,32.08-11.11l1.85,8.72h23.22V158.63H502ZM499,200.51c0,12.17-10.55,20.35-26.25,20.35s-26.88-8.56-26.88-20.35c0-12.08,11.31-20.84,26.88-20.84S499,188.24,499,200.51Z" fill="#141515"/><path d="M595.66,156.25a38,38,0,0,0-28.73,12.85l-1.79-10.47H541.69v83.43h26.14v-39c0-13.41,8.75-22.42,21.79-22.42,13.2,0,22.42,9.22,22.42,22.42v39h26.13v-39C638.17,175.49,620.69,156.25,595.66,156.25Z" fill="#141515"/><path d="M728.7,166.47c-8.32-6.62-19.17-10.22-31-10.22-27.5,0-48.24,19-48.24,44.26,0,25.05,20.74,43.94,48.24,43.94,12.36,0,23.62-3.92,32.08-11.11l1.85,8.72h23.22V126.8H728.7Zm0,34c0,12.17-10.55,20.35-26.25,20.35s-26.88-8.56-26.88-20.35c0-12.08,11.31-20.84,26.88-20.84S728.7,188.24,728.7,200.51Z" fill="#141515"/><path d="M848.58,158.63l-1.84,8.69c-8.34-7.16-19.59-11.07-32.09-11.07-27.5,0-48.23,19-48.23,44.26,0,25.05,20.73,43.94,48.23,43.94,12.37,0,23.62-3.92,32.08-11.11l1.85,8.72H871.8V158.63Zm-2.91,41.88c0,12.17-10.54,20.35-26.24,20.35s-26.88-8.56-26.88-20.35c0-12.08,11.3-20.84,26.88-20.84S845.67,188.24,845.67,200.51Z" fill="#141515"/><path d="M185.57,16.81c-1.79,1.28-6.13,3.19-6.77,8s-2.16,6.12.77,7.52,4.46.9,3.57,4.6-2.42,5.61-1.91,8.29,0,5.61-.51,5.61-55.88-.59-67.44.43-21.1,2.38-25.86,6.12-24,39.29-24,39.29l-18.2,33s-3.06,24.49-2.38,25.51a7,7,0,0,0,4.42,3.58c2.72.68,2.72-.34,2.38,2.38s-1.36,5.27-2.55,5.44-19-.51-19,.68.34,15.14.34,15.14,8.67.68,8.67,1.19,2.21,17.18.17,17.18-8.16,2.21-9,2.89-3.4,8.34,1.7,10,50.86,1.19,50.86,1.19S80.28,235,95.25,242.65s27.55-1,32.31-7.48,6.13-18.71,6.13-18.71h24.15l84.54.68a141.07,141.07,0,0,0,4.42,14c2.21,5.44,8.84,16.49,24.32,13.77s21.78-9,23-16.33S296,216,296.47,215.78s53.07-1.19,53.07-2.55,2.55-3.58.17-7.49a11.71,11.71,0,0,0-8.17-5.1,9.34,9.34,0,0,1-3.06-1.19s-1.7-16.16-.51-16.84,3.4,1.19,5.27-1.87,3.57-7.32,2.55-8.85-6.12-5.61-7.48-5.1-3.57-.68-3.57-.68l-.51-12.42-6.81-23.81-59.7-70.59s1.7-2.89,1.53-8.16-1.19-9.19-2.72-10.72S264,33.1,263,31.74s-2.89-4.26-2.38-4.6,4.08-7.82,4.08-9-.68-4.42-3.74-7.83S251.56,2.14,249.18,3,242,8.94,242,10.64s.51,3.07-1.53,3.07-5.79-1.37-7.49-1.37-7.82.52-7.82,0,.34-2.55.34-2.55l-8,3.07.34-2.73L200.36,18s-1.36-1.87-4.93-1.87S185.57,16.81,185.57,16.81Z" fill="#fff"/><path d="M185.81,36.47c0-.89,2.68-10.71,7-13.14a58.51,58.51,0,0,0,9-6.25c.64-.64,16-7.27,16-7.27v2.68l9.44-3.32s-2.55,3.06-2.17,3.06,9.83-.25,16.33,2.55,19,10.85,23.09,19.27c0,0,1.4,2.29-3.83,1S242.45,33,237,33.15s-17.23-1-25.39-.12-20.79,6.12-22.33,6S185.81,36.47,185.81,36.47Z" fill="#d61164"/><path d="M183.85,53.57c-.08,1.53.09,8.33,1.2,11.48s8.75,11.56,11.14,13,10.12,5,15.13,5.87a118.91,118.91,0,0,0,19.91,1c5.35-.26,19.05-4.51,24.23-9.61s9.27-10.29,10.8-13.52a32.75,32.75,0,0,0,2.64-9.53c.26-2.3.26-5.78-.59-7.57s-15.23-9.52-15.74-9-1,2-1.1,6.46a30.4,30.4,0,0,1-2.13,10.63c-1.19,3.32-6.29,6.38-10,5.44s-4.77,0-9.36-5.61-7.23-9.18-9.53-12.33-5.78-11.31-9.86-7.4-4.08,5.1-4.93,10.29S204,50.93,202.39,53s-1.7,3.15-4.33,3.49-4.51.59-7.4-.6S183.85,53.57,183.85,53.57Z" fill="#d61164"/><path d="M207.5,132.83s6.21-9.7,8.33-11.06,8.68-4.84,10.46-5.69,2.81-1.19,3.15-1,4.42,2.38,7,4a54.84,54.84,0,0,0,10,4.68c2.3.68,8.16,5.61,10.63,10.63s1.11,12.25.17,13.35-7.91,5.36-10.55,6.38-7.22,2.81-10.2,1.79-8.42-2.81-12.25-5.45-9.69-6.29-10.63-7.22a45.67,45.67,0,0,1-3.91-4.68c-.09-.34-2.64-5.19-2.64-5.19Z" fill="#d61164"/><path d="M267.46,102.38c.25-.25,1.87-2.55,3.06-3.23s3.14-2,3.57-1.87,24.83,27.3,24.83,27.3-.08,3-3.91,3.32-12.5.17-14.8-.43-4.85-.76-5.27-2-3.66-9.86-4.34-11.4-2.12-4-2.46-6-1.7-5.36-1.45-5.36A2.17,2.17,0,0,0,267.46,102.38Z" fill="#d61164"/><path d="M77,183.84s26.7-17,53.07-3.91C130,179.93,111.82,157.48,77,183.84Z" fill="#141515"/><path d="M215.24,157.65a2,2,0,0,0-2-2H189.64a2,2,0,0,0,0,4.08H213.2A2,2,0,0,0,215.24,157.65Z" fill="#141515"/><circle cx="107.41" cy="218.92" r="11.99" fill="#d61164"/><circle cx="270.19" cy="218.92" r="11.99" fill="#d61164"/><path d="M107.31,204.84a14.47,14.47,0,1,0,14.47,14.47A14.46,14.46,0,0,0,107.31,204.84Zm0,24.85a10.38,10.38,0,1,1,10.38-10.38A10.4,10.4,0,0,1,107.31,229.69Z" fill="#141515"/><path d="M269.58,204.84a14.47,14.47,0,1,0,14.47,14.47A14.46,14.46,0,0,0,269.58,204.84Zm0,24.85A10.38,10.38,0,1,1,280,219.31,10.4,10.4,0,0,1,269.58,229.69Z" fill="#141515"/><path d="M217,60.83c-3.28-.26-3.62-3.83-3.41-5.06a1.11,1.11,0,0,1,.76-1c.76-.3,3.94-2,4.59-3.29.86-1.66-.55-5.16-6.25-5a7.61,7.61,0,0,0-5.43,1.93c-1.53,1.4-1.83,3.4.25,4.5s4,2.05,4,3.28-.85,3.91-2.55,4.63-5.07-.76-5.58-3.27c0,0,.65,4.25,3.92,4.93a5.08,5.08,0,0,0,5-1.61,6.55,6.55,0,0,0,4.38,1.65,6.26,6.26,0,0,0,5.87-3.82A7.58,7.58,0,0,1,217,60.83Z" fill="#141515"/><path d="M207.74,94.72c11.74,3,21,13,21,13C220.33,93.7,207.74,94.72,207.74,94.72Z" fill="#141515"/><path d="M207.48,91.83c-.25,0,17.69.93,25.26,11.73C232.74,103.56,228.07,88.76,207.48,91.83Z" fill="#141515"/><path d="M209.27,64.87c3.29,5.73,7,.16,7,.16A6.42,6.42,0,0,1,209.27,64.87Z" fill="#141515"/><path d="M218.57,155.43a1,1,0,0,0-1,1.07l0,1.09.05,1.26v.57h0v.1a2.47,2.47,0,0,1-.1.72,2.62,2.62,0,0,1-.71,1.23,2.69,2.69,0,0,1-1.5.75,7.66,7.66,0,0,1-1.06.08l-1.16,0-2.38.1L198,163l12.77.51,2.38.09,1.16.05a8.25,8.25,0,0,0,1.22,0,4,4,0,0,0,2.37-1,4.08,4.08,0,0,0,1.35-2,4.33,4.33,0,0,0,.21-1v-.86l.05-1.26,0-1.09v-.09A1,1,0,0,0,218.57,155.43Z" fill="#141515"/><path d="M236.41,183.84s26.71-17,53.07-3.91C289.48,179.93,271.28,157.48,236.41,183.84Z" fill="#141515"/><path d="M237.05,124.1c13.4,4.65,15.95,12.5,15.95,12.5A17,17,0,0,0,237.05,124.1Z" fill="#141515"/><path d="M342.88,198.81H341v-13.1a10.13,10.13,0,0,0,7.72-9.82v-.17a10.13,10.13,0,0,0-10.12-10.12h-2.42l-.3-9.95,0,0a6.66,6.66,0,0,0-.23-1.87l-6.49-23.48-57.1-69.41a30.25,30.25,0,0,0-3-3.1,24.1,24.1,0,0,0,1.1-10.93l-.48-10.42s-1.07-.53-3.8-1.83a44.16,44.16,0,0,0-3.76-6,15.3,15.3,0,0,0,3.88-11,17.25,17.25,0,0,0-5.91-11.51c-3.93-3.41-12.23-7-17.59-4-3.94,2.22-4.47,8-4.52,10.3a49.14,49.14,0,0,0-10.49-1.15h-.45l2.86-4.91-10.66,5.08.26-3.12-1.59.73c-.07,0-7.61,3.51-13.47,5.85-1.34.54-2.68,1.12-4,1.79A24.24,24.24,0,0,0,188,15.22c-6.75,1.25-12.57,7.74-12,13.35A9.69,9.69,0,0,0,180.8,36c-4,2.13-3.2,4.91-2.87,6.46,0,0,.36,3.08,1.07,7.18H104.11a30.91,30.91,0,0,0-12.3,2.54H29.32a2.53,2.53,0,0,0-2.53,2.53v0a2.54,2.54,0,0,0,2.53,2.54H83.75a30.73,30.73,0,0,0-7,8.91L43.85,129,40.73,153a6.66,6.66,0,0,0,1.61,5.25,6.58,6.58,0,0,0,3.45,2.08c0,1.25,0,3.24,0,4.44H26.43V186.9h9.23v11.91H33.82a9.12,9.12,0,0,0-9.11,9.11v.15a9.12,9.12,0,0,0,9.11,9.11H53.71l.36,0H79.59c0,.69-.09,1.39-.09,2.09a27.81,27.81,0,0,0,55.62,0v-.23l23.74,0h72l10.86.15v.11a27.81,27.81,0,0,0,55.62,0c0-.75,0-1.48-.09-2.21h15.93l-.06.17.1-.17h4v.08h25.59a9.12,9.12,0,0,0,9.11-9.11v-.15A9.12,9.12,0,0,0,342.88,198.81Zm-6.2-29.13h2a6,6,0,0,1,6,6v.17c0,.23,0,.46,0,.68-1.72.58-4.68,1.27-6.34-.13a7.36,7.36,0,0,1-1.62-2ZM268,46.41l0,.13c1.35,6.36-1.45,15-7.15,22.06a40.67,40.67,0,0,1-16.46,12c-.15.05-17.4,4.94-29.4-2.93.22,0,5.66,5,13.15,6.34-.92,0-1.84.08-2.79.08l-1.27,0a38.23,38.23,0,0,1-13.93-5.88A17.05,17.05,0,0,0,216,83.4c-.8-.11-1.6-.22-2.4-.36-28.24-4.85-28.95-22.54-29-23.29v-.11s-.06-.5-.12-1.33A12.1,12.1,0,0,0,192,61.18c6.77,0,11.61-8.57,13.37-12.6,2.13-4.9,2.21-12,6.38-12.63,4.71-.67,7.52,11.35,14.16,18.24s18.24,6.51,23.6,1,3.57-16.84,3.57-16.84Zm-.44,54.07a101,101,0,0,0-3.42-13.88c2.58,3,5.5,6.42,8.55,10A18.73,18.73,0,0,0,267.59,100.48Zm6.51-2.31c8.68,10.09,18.13,21,23.52,27.22-4.75,2.53-12.08,3.48-21.62.22-1.47-4.11-3-7.6-4.33-10.63-1.74-4-3.11-7.09-3.38-9.57-.09-.76-.18-1.51-.29-2.26A17,17,0,0,1,274.1,98.17Zm-7.84,7.46c.3,2.79,1.73,6.05,3.54,10.17a135.59,135.59,0,0,1,5.45,13.44H254.19a30.68,30.68,0,0,0-13.57-9.3c-5.18-1.62-9.58-5.84-12.65-9.57a46.8,46.8,0,0,1-4.62-6.66,13.42,13.42,0,0,0,2.81,7.7c.67.83,1.41,1.69,2.2,2.54-10.84,2.57-19.1,13.56-21.73,17.46-8.32-13.86-13.14-30.71-13.94-33.65a89.6,89.6,0,0,1,5.21-17.62,52,52,0,0,0,15.32,4.91,72.28,72.28,0,0,0,12.19,1.08c14.15,0,23.91-4.7,30.27-9.61,1,1.27,2.72,3.29,4.87,5.83A99.58,99.58,0,0,1,266.26,105.63Zm-9.93,30.88A11.82,11.82,0,0,1,256,147c-2.11,3.8-6,6.4-11,7.31-8.56,1.57-18.58-1.85-27.49-9.38a51,51,0,0,1-9.68-11.56c1.76-2.7,10.8-15.74,22.26-17.64a26.28,26.28,0,0,0,9.93,6.21C247,124.06,253.82,130.21,256.33,136.51ZM203,129.24h-9.75c0-.28,0-.52,0-.67-.55-4.8-.91-9.84-1.1-14.89V103A147.76,147.76,0,0,0,203,129.24Zm-6.93-73.65A40,40,0,0,0,204,42.41S203.71,51.47,196.06,55.59Zm53.79-15.48c1.31,12-6.58,14.13-8.28,14.42l0,0h-.26l.31,0A19,19,0,0,0,249.85,40.11Zm11.4-18.5s-.2-10.28-11.72-15.07C249.53,6.54,265.66,6.94,261.25,21.61Zm-56-4.78c4.27-1.71,9.43-4,12-5.17L217,14.84l7.89-3.76-1.44,2.49,1.94-.16s.83-.07,2.18-.07c3.94,0,11.55.53,18.27,4a44.38,44.38,0,0,1,16.9,15.73C256,30,247.46,26,247.07,26.13c-2.32-.52-6.17-.37-10.45.09-5.45-.37-13.05-.87-13.32-.82a30.86,30.86,0,0,0,5.23,1.93c-7.12,1.14-13.6,2.54-14.75,2.69-2.47.32-4.64.81-11,1.27-1.63.12-3.14.26-4.57.42,1.51-1.94,3.45-4.52,3.45-4.52l-7.41,5.06c-2.13.35-4.15.77-6.18,1.31C192.1,23.32,198.68,19.45,205.23,16.83ZM196.53,18l-2,1.53c-.17-.34-8.93-1.78-13.61,5.1C181,24.38,184.36,14.77,196.53,18Zm-166,159.6v-8.73H46.15c0,.93-.14,3.64-2.79,7.19S32.78,178.12,30.51,177.6Zm9.87,31.08c-5.51-.2-9.77-.1-11.53,0a5.51,5.51,0,0,1-.06-.57v-.15a5,5,0,0,1,5-5H50.06C49,205.37,46.82,208.9,40.38,208.68ZM107.31,243A23.73,23.73,0,1,1,131,219.31,23.76,23.76,0,0,1,107.31,243Zm162.27,0a23.73,23.73,0,1,1,23.73-23.73A23.76,23.76,0,0,1,269.58,243Zm45.84-32.37c-1.6.86-3.2-1-4.3-3.33-.62-1.69-10-25.79-43.19-26.56-30.14-.71-38,26.85-39.51,34.19H148.61c-1.67-7.13-10.19-35-42.46-33.85-23.49.83-33.37,13.08-36.71,18.76-1.75,1.89-3.93,3.8-6.1,4.54s-3.12.91-3.73.78l-2.38-6.39H39.74V186.9H53.82V165.61c.79-4.41,8-7.8,10.56-8.89l1.17-.26H65l.28-.11-.72.11H47.34a2.58,2.58,0,0,1-2.56-2.92l3-23.33L80.35,68.1a26.74,26.74,0,0,1,23.76-14.38h76.4a16.25,16.25,0,0,0,1.82,2.53c.06,2,.21,3.32.24,3.6A22.79,22.79,0,0,0,188,72.36V131.3a16.69,16.69,0,0,1-4.08,2H188v.05h17.35a60.29,60.29,0,0,0,8.55,11l-23.6-.06-25,.07c-8.24,0-16.35.12-24.2.17s-15.43.17-22.63.27-14,.23-20.27.36-12,.26-17.14.41l-13.21.36c-3.66.09-6.54.22-8.5.29l-3,.11,3,.11c2,.06,4.84.2,8.5.28l13.21.37c5.1.14,10.86.3,17.14.41s13.08.26,20.27.35,14.78.22,22.63.27,16,.18,24.2.18l25,.07,25-.07,3.21,0c7.24,5.45,15.06,8.38,22.3,8.38a25.33,25.33,0,0,0,4.55-.4c5.6-1,10-4,12.43-8.33v0l4.33,0c7.2-.09,14-.23,20.28-.36,12.56-.23,23-.59,30.35-.77,3.66-.08,6.54-.22,8.5-.28l3-.11-3-.11c-2-.07-4.84-.2-8.5-.29-7.33-.17-17.79-.54-30.35-.77-6.28-.13-13.08-.26-20.28-.35l-3.11,0a14.56,14.56,0,0,0-.79-9,21.45,21.45,0,0,0-1.17-2.42h60L261.8,70.72l.69-.83a38.82,38.82,0,0,0,5-8c.5.51,1,1,1.45,1.6l56.55,68.74,6.26,22.63a2.61,2.61,0,0,1-.44,2.26,2.55,2.55,0,0,1-2.06,1H309.47l2,.4c2.76,1.09,14.34,5.69,16,7s4.58,3,5.14,9.54V186H337v12.8H319.47Zm32.23-2.76c-.85.51-2.21.68-8.67.94s-11.82-.09-14.29-1.36c-1.49-.77-1.61-3-1.57-4.6h19.76a5,5,0,0,1,5,4.87A1.58,1.58,0,0,1,347.65,207.91Z" fill="#141515"/><path d="M207.91,14.62l-.65.27Z" fill="#141515"/><path d="M257.58,137c.18.53.34,1.07.47,1.6C257.92,138,257.76,137.49,257.58,137Z" fill="#141515"/><path d="M213.11,142c.34.37.68.72,1,1.07C213.79,142.77,213.45,142.41,213.11,142Z" fill="#141515"/><path d="M228,115.09c-.68.19-1.36.41-2,.66C226.64,115.5,227.32,115.28,228,115.09Z" fill="#141515"/><path d="M237.74,119.88c.6.29,1.22.56,1.85.79A18.35,18.35,0,0,1,237.74,119.88Z" fill="#141515"/><path d="M271.31,98.62c-.4.27-.81.59-1.23.93Q270.68,99.06,271.31,98.62Z" fill="#141515"/><path d="M269.71,99.86l-.55.51C269.34,100.19,269.53,100,269.71,99.86Z" fill="#141515"/><path d="M271.53,98.47c.23-.16.46-.31.7-.45Z" fill="#141515"/><path d="M266.15,98.3l-.12-.61Z" fill="#141515"/><path d="M265.53,95.39l-.18-.78Z" fill="#141515"/><path d="M264.77,92.3c0-.17-.09-.34-.14-.52C264.68,92,264.72,92.13,264.77,92.3Z" fill="#141515"/><path d="M44.17,176.67a13.43,13.43,0,0,0,3-7.79,1,1,0,0,0-.29-.72,1,1,0,0,0-.73-.31H30.51a1,1,0,0,0-1,1v8.72a1,1,0,0,0,.8,1,30.92,30.92,0,0,0,6.5.8C40.34,179.4,42.82,178.48,44.17,176.67ZM31.53,169.9H45.05a12.46,12.46,0,0,1-2.51,5.55c-1.18,1.58-3.78,1.91-5.75,1.91a27.71,27.71,0,0,1-5.26-.58Z" fill="#141515"/><path d="M107.31,194.56a24.75,24.75,0,1,0,24.75,24.75A24.78,24.78,0,0,0,107.31,194.56Zm0,47.46A22.71,22.71,0,1,1,130,219.31,22.74,22.74,0,0,1,107.31,242Z" fill="#141515"/><path d="M269.58,194.56a24.75,24.75,0,1,0,24.75,24.75A24.77,24.77,0,0,0,269.58,194.56Zm0,47.46a22.71,22.71,0,1,1,22.71-22.71A22.74,22.74,0,0,1,269.58,242Z" fill="#141515"/><path d="M342.88,201.87H323.12a1,1,0,0,0-1,1c0,1.2-.1,4.37,2.12,5.52,2,1,5.69,1.56,11,1.56,1.2,0,2.48,0,3.82-.08,6.63-.26,8.08-.44,9.16-1.08l.26-.17a1,1,0,0,0,.47-.89A6,6,0,0,0,342.88,201.87Zm-3.94,6c-1.31,0-2.57.08-3.74.08-6.18,0-8.87-.73-10-1.33-.77-.4-1-1.68-1-2.67h18.74a4,4,0,0,1,3.93,3.27C346,207.48,344,207.63,338.94,207.83Z" fill="#141515"/><path d="M345,177.54a1,1,0,0,0,.69-.85,7.16,7.16,0,0,0,.05-.8v-.17a7.07,7.07,0,0,0-7.06-7.06h-2a1,1,0,0,0-1,1v4.79a1,1,0,0,0,.14.5,7.85,7.85,0,0,0,1.84,2.25,5,5,0,0,0,3.34,1.06A13.07,13.07,0,0,0,345,177.54Zm-7.26-3.35V170.7h.94a5,5,0,0,1,5,5v.09a10.36,10.36,0,0,1-2.68.43,3,3,0,0,1-2-.58A5.83,5.83,0,0,1,337.7,174.19Z" fill="#141515"/><path d="M50.06,201.87H33.82a6.07,6.07,0,0,0-6.05,6.06v.14a3.31,3.31,0,0,0,.05.55l0,.14a1,1,0,0,0,1,.9c1.05,0,2.77-.08,5-.08s4.29,0,6.43.12H41c4.91,0,8.29-2.16,10-6.43a1,1,0,0,0-.09-.95A1,1,0,0,0,50.06,201.87Zm-9.65,5.79c-2.16-.08-4.35-.12-6.5-.12-1.67,0-3,0-4.08.05a4,4,0,0,1,4-3.68h14.6C47.26,205.87,45.09,207.83,40.41,207.66Z" fill="#141515"/><path d="M192.18,128.68c0,.14,0,.36,0,.62a1,1,0,0,0,1,1H203a1,1,0,0,0,.89-1.51,147.87,147.87,0,0,1-10.8-26,1,1,0,0,0-2,.3v10.68C191.28,118.91,191.65,124,192.18,128.68Zm.94-19.34a144.71,144.71,0,0,0,8.16,18.88h-7.1c-.51-4.61-.87-9.52-1.06-14.54Z" fill="#141515"/><path d="M245,155.3c-.49.09-1,.16-1.49.21C244,155.46,244.48,155.39,245,155.3Z" fill="#141515"/><path d="M110.52,105.17H129.1c9.74,0,18.93-5.83,22.24-14.3a9.79,9.79,0,0,1,6.49,9.19c0,5.63-5,10-11.59,10H128.47a111.32,111.32,0,0,1-12.74.08v28.47h11.93V121.2h18.58c12.19,0,23.53-9.12,23.53-21.14,0-10.68-7.6-18.34-17.62-20.51C150,69.39,140.31,62.9,129.1,62.9H98.59v59.66h11.93Zm0-31.28H129.1c6.65,0,11.59,4.26,11.59,10.14,0,5.63-5,10-11.59,10h-1.44V89.92h5.27a11.35,11.35,0,0,0,1.85-11h-19V94h-5.21Z" fill="#d61164"/><rect x="1.02" y="73.18" width="48.4" height="5.12" rx="2.53" fill="#141515"/><path d="M46.89,79.32H3.55a3.58,3.58,0,0,1,0-7.16H46.89a3.58,3.58,0,0,1,0,7.16ZM3.55,74.21A1.51,1.51,0,0,0,2,75.72a1.53,1.53,0,0,0,1.51,1.56H46.89a1.54,1.54,0,0,0,0-3.07Z" fill="#141515"/><rect x="17.63" y="94.24" width="35.04" height="5.12" rx="2.53" fill="#141515"/><path d="M50.14,100.38h-30a3.58,3.58,0,0,1,0-7.16h30a3.58,3.58,0,0,1,0,7.16Zm-30-5.12a1.54,1.54,0,0,0,0,3.08h30a1.54,1.54,0,0,0,0-3.08Z" fill="#141515"/><rect x="2.51" y="142.96" width="29.38" height="5.12" rx="2.53" fill="#141515"/><path d="M29.35,149.1H5a3.58,3.58,0,0,1,0-7.16H29.35a3.58,3.58,0,0,1,0,7.16ZM5,144a1.54,1.54,0,0,0,0,3.08H29.35a1.54,1.54,0,0,0,0-3.08Z" fill="#141515"/><path d="M342.88,197.79h-.82V186.48a11.09,11.09,0,0,0,7.72-10.59v-.17a11.16,11.16,0,0,0-11.14-11.14h-1.43l-.27-9a.68.68,0,0,0,0-.14,7.08,7.08,0,0,0-.27-2l-6.49-23.47a.91.91,0,0,0-.19-.38l-57.1-69.4a29.84,29.84,0,0,0-2.62-2.77,24.69,24.69,0,0,0,.95-10.72l-.47-10.37a1,1,0,0,0-.57-.87l-3.51-1.69a44,44,0,0,0-3.21-5.14,16.14,16.14,0,0,0,3.61-11.09,18.28,18.28,0,0,0-6.26-12.21C257.79,2.8,252.27,0,247.23,0A10.4,10.4,0,0,0,242,1.26c-3.79,2.14-4.75,7-5,10a49.14,49.14,0,0,0-8.21-.91l2-3.4a1,1,0,0,0-.13-1.2,1,1,0,0,0-1.19-.23l-9.05,4.32.11-1.35a1,1,0,0,0-.44-.92,1,1,0,0,0-1-.09l-1.58.73c-.08,0-7.64,3.51-13.43,5.82-1.34.54-2.55,1.07-3.66,1.62a26.86,26.86,0,0,0-9.09-1.7,19.24,19.24,0,0,0-3.53.31c-7.24,1.35-13.45,8.38-12.8,14.47A10.51,10.51,0,0,0,179,36c-3,2.3-2.39,5.1-2.08,6.53l0,.09s.29,2.57.87,6H104.11A31.69,31.69,0,0,0,91.6,51.16H29.32a3.58,3.58,0,0,0,0,7.16H81.2a31.31,31.31,0,0,0-5.37,7.41L42.94,128.49a1.23,1.23,0,0,0-.11.34l-3.11,24.06A7.7,7.7,0,0,0,41.57,159a7.62,7.62,0,0,0,3.2,2.16c0,.83,0,1.81,0,2.66H26.43a1,1,0,0,0-1,1V186.9a1,1,0,0,0,1,1h8.21v9.86h-.82a10.15,10.15,0,0,0-10.13,10.14v.14A10.14,10.14,0,0,0,33.82,218.2H53.65l.3,0H78.5c0,.38,0,.73,0,1.07a28.83,28.83,0,0,0,57.65.79l22.73,0h72l9.87.14a28.83,28.83,0,0,0,57.65-.9c0-.38,0-.78,0-1.19H312.6l.13.07a1,1,0,0,0,1-.07h3.15a1.15,1.15,0,0,0,.41.08h25.59A10.14,10.14,0,0,0,353,208.07v-.14A10.14,10.14,0,0,0,342.88,197.79ZM238.64,13.25a1,1,0,0,0,.39-.78c0-2.18.53-7.47,4-9.43a8.5,8.5,0,0,1,4.2-1c4.31,0,9.41,2.47,12.22,4.91A16.18,16.18,0,0,1,265,17.76,14.28,14.28,0,0,1,261.37,28a1,1,0,0,0,0,1.27c.75,1,1.45,2.05,2.13,3.13a45.28,45.28,0,0,0-17.21-16,34.77,34.77,0,0,0-8.36-3A1,1,0,0,0,238.64,13.25ZM218.37,10l-.11,1.38a1,1,0,0,0,.44.92,1,1,0,0,0,1,.08l7.68-3.65-1.2,2a1,1,0,0,0,0,1,1,1,0,0,0,.89.51h0c-1,0-1.73.06-1.87.07l.46-.8a1,1,0,0,0-.13-1.2,1,1,0,0,0-1.19-.23l-6.28,3,.11-1.42a1,1,0,0,0-.43-.92,1,1,0,0,0-1-.09c-1.37.62-3.39,1.52-5.61,2.49C215,11.54,218.29,10.05,218.37,10Zm-12.76,7.76c3.53-1.41,7.63-3.21,10.45-4.47l-.12,1.46a1,1,0,0,0,.44.92,1,1,0,0,0,1,.08l5-2.38a1,1,0,0,0,1.09,1.2l1.94-.15c.09,0,.87-.07,2.1-.07,3.84,0,11.27.51,17.8,3.92a43.45,43.45,0,0,1,14.43,12.31c-11.09-5.2-12.2-5.47-12.59-5.49a20.49,20.49,0,0,0-4.21-.31,5.43,5.43,0,0,1-.75.05c-3.57-.09-11.74,1.53-15.48,2.29s-13.95,3.15-20,3.49-16.92,1.54-16.92,1.54L190,32l-.21,0C193.76,23.52,199.72,20.13,205.61,17.77ZM351,208.07a8.1,8.1,0,0,1-8.09,8.09H317.7a1.07,1.07,0,0,0-.41-.08h-20a1,1,0,0,0-.75.32,1,1,0,0,0-.27.78c.06.79.09,1.49.09,2.13a26.79,26.79,0,0,1-53.58,0v-.11a1,1,0,0,0-1-1L230.91,218h-72l-23.75,0a1,1,0,0,0-.72.3,1,1,0,0,0-.29.73v.22a26.79,26.79,0,0,1-53.58,0c0-.61,0-1.25.08-2a1,1,0,0,0-.26-.77,1,1,0,0,0-.75-.33H54.13l-.3,0h-20a8.1,8.1,0,0,1-8.09-8.09v-.14a8.1,8.1,0,0,1,8.09-8.1h1.84a1,1,0,0,0,1-1V186.9a1,1,0,0,0-1-1H27.45V165.81H45.83a1,1,0,0,0,1-1c0-1.2-.05-3.18,0-4.42a1,1,0,0,0-.78-1,5.64,5.64,0,0,1-4.29-6.21l3.09-23.88,32.8-62.59a30,30,0,0,1,6.79-8.61,1,1,0,0,0-.67-1.79H29.32a1.54,1.54,0,0,1,0-3.08H91.81a1.1,1.1,0,0,0,.4-.08,29.8,29.8,0,0,1,11.9-2.46H179a1,1,0,0,0,.78-.36,1.05,1.05,0,0,0,.22-.84c-.7-4-1.05-7.09-1.07-7.22l-.05-.2c-.33-1.54-.76-3.46,2.4-5.14a1,1,0,0,0,.06-1.77,8.62,8.62,0,0,1-4.3-6.66c-.54-5,5-11.11,11.14-12.25a17,17,0,0,1,3.16-.28,24.61,24.61,0,0,1,8.73,1.72,1,1,0,0,0,.83,0c-5.35,2.73-10.41,7-13.82,15.53a1,1,0,0,0,.18,1.06,1.07,1.07,0,0,0,1,.31c2-.53,4-1,6.09-1.3a1,1,0,0,0,.41-.16l2.39-1.63a1,1,0,0,0,.1.75,1,1,0,0,0,1,.51c1.43-.16,2.91-.29,4.54-.41,4.85-.35,7.3-.72,9.27-1l1.82-.26c.44-.06,1.51-.27,3.13-.58,2.83-.55,7.1-1.38,11.66-2.11a1,1,0,0,0,.68-1.58l7.17.48h.18c4.73-.5,8.18-.53,10.12-.11a1.25,1.25,0,0,0,.19,0c.45.12,2.83,1,15.22,6.88a1,1,0,0,0,1.32-1.43c.5.82,1,1.65,1.43,2.5a1,1,0,0,0,.46.45l3.25,1.56.45,9.78c0-.19-.07-.38-.11-.57l0-.12a1,1,0,0,0-.51-.69l-15-8a1,1,0,0,0-1.07.07,1,1,0,0,0-.42,1c0,.11,1.65,10.91-3.29,16a14.48,14.48,0,0,1-10.25,3.83,16.5,16.5,0,0,1-11.89-4.85c-2.74-2.85-4.85-6.67-6.7-10-2.63-4.76-4.7-8.53-7.82-8.53a3.12,3.12,0,0,0-.52,0c-3.53.5-4.6,4.52-5.64,8.4a34.12,34.12,0,0,1-1.53,4.83c-.87,2-5.56,12-12.43,12a11.22,11.22,0,0,1-6.87-2.65,1,1,0,0,0-1.65.87c.05.84.11,1.34.11,1.34h0v.12a.41.41,0,0,1,0-.1c0-.14-.17-1.44-.23-3.51a1.06,1.06,0,0,0-.25-.64,15.92,15.92,0,0,1-1.71-2.38,1,1,0,0,0-.88-.5h-76.4A27.78,27.78,0,0,0,79.44,67.63L46.9,129.73a.89.89,0,0,0-.11.35l-3,23.33a3.62,3.62,0,0,0,3.57,4.07H60.46c-3.25,1.78-7,4.54-7.65,8a1.09,1.09,0,0,0,0,.18v20.27H39.74a1,1,0,0,0-1,1v11.91a1,1,0,0,0,1,1H56.52l2.13,5.72a1,1,0,0,0,.73.64c.88.2,2,0,4.3-.8a17.17,17.17,0,0,0,6.51-4.82.83.83,0,0,0,.13-.18C73.39,195.18,83,183,106.18,182.14c31-1.13,39.58,25.13,41.43,33.06a1,1,0,0,0,1,.79h79.81a1,1,0,0,0,1-.81c1.67-7.94,9.37-34,38.48-33.38,32.72.76,41.88,24.87,42.29,26,.9,1.88,2.39,4.12,4.42,4.12a2.66,2.66,0,0,0,1.3-.34,1,1,0,0,0,.48-.56l3.81-11.17H337a1,1,0,0,0,1-1V186a1,1,0,0,0-1-1h-3.34v-9.94c-.55-6.43-3.26-8.5-5-9.87l-.49-.38c-1.3-1-7.55-3.67-12.37-5.62h13.52a3.61,3.61,0,0,0,3.48-4.57L326.46,132a1,1,0,0,0-.2-.37L269.72,62.86c-.44-.53-.92-1.06-1.51-1.67a1,1,0,0,0-.9-.29,1,1,0,0,0-.66.42,34,34,0,0,0,1.42-3.63,1,1,0,0,0,.33.87,29.19,29.19,0,0,1,2.89,3l57,69.24,6.44,23.27a5.87,5.87,0,0,1,.19,1.59,1.36,1.36,0,0,0,0,.21l.3,9.76a1,1,0,0,0,1,1h2.42a9.11,9.11,0,0,1,9.1,9.1v.17a9.07,9.07,0,0,1-6.94,8.83,1,1,0,0,0-.78,1v13.1a1,1,0,0,0,1,1h1.84a8.1,8.1,0,0,1,8.09,8.1Zm-41.71-48.91,1.87.38c8.53,3.36,14.68,6.05,15.69,6.86l.51.4c1.69,1.29,3.78,2.9,4.25,8.34V186a1,1,0,0,0,1,1h3.34v10.76H319.47a1,1,0,0,0-1,.69l-3.89,11.38c-.58,0-1.61-.9-2.54-2.87-.4-1.08-10-26.44-44.13-27.23-29.71-.7-38.26,25-40.35,34.19H149.41c-2.3-9.12-11.66-35-43.3-33.85-24,.85-34.19,13.6-37.5,19.16a15.41,15.41,0,0,1-5.6,4.2,15.37,15.37,0,0,1-2.68.74l-2.15-5.75a1,1,0,0,0-1-.66H40.76v-9.86H53.82a1,1,0,0,0,1-1V165.71c.63-3.09,5.47-6.16,9.85-8l1.09-.25a1,1,0,0,0,.79-1.1,1,1,0,0,0-.76-.88,1.05,1.05,0,0,0-.66-.13l-.64.1H47.34a1.57,1.57,0,0,1-1.55-1.77l3-23.15,32.46-62a25.74,25.74,0,0,1,22.86-13.83h75.83a17,17,0,0,0,1.38,1.9c.07,1.91.21,3.1.23,3.26A23.71,23.71,0,0,0,187,72.72v58.05a17.64,17.64,0,0,1-3.37,1.54,1,1,0,0,0,.31,2h3.79a.93.93,0,0,0,.29,0h16.79a64.51,64.51,0,0,0,6.72,9l-21.22-.06-25,.07c-5.35,0-10.68.05-15.84.1l-8.36.07c-6.69,0-13.16.14-19.42.23l-3.22,0c-7.34.09-14.32.23-20.28.35-6.14.11-11.84.27-17.15.42l-13.2.36c-2.49.06-4.62.14-6.35.21l-2.17.08-3,.11a1,1,0,0,0,0,2l3,.11,2.14.08c1.73.06,3.87.15,6.37.2l13.21.37c5.56.16,11,.31,17.15.41s13,.26,20.28.35l3.22.05c6.26.09,12.73.18,19.42.22l8.38.08c5.15.05,10.48.1,15.82.1l25,.07,25-.07h2.88c8.88,6.59,18.89,9.51,27.36,8,5.68-1,10.21-4,12.86-8.35l3.74,0c7.28-.09,14.19-.23,20.29-.36,8.26-.15,15.74-.36,21.76-.53,3.2-.09,6.08-.18,8.59-.24s4.58-.14,6.3-.2l2.22-.08,3-.11a1,1,0,0,0,0-2l-3-.11-2.19-.08c-1.72-.07-3.84-.15-6.32-.21l-8.6-.23c-6-.17-13.5-.39-21.75-.54h-.15c-6.09-.13-13-.26-20.14-.35l-1.87,0a16,16,0,0,0-1.09-8.41q-.21-.51-.45-1h58.34a1,1,0,0,0,.64-1.82L263.14,70.7l.15-.17a39.71,39.71,0,0,0,4.45-6.84l.4.47,56.41,68.57,6.2,22.43a1.54,1.54,0,0,1-.26,1.36,1.56,1.56,0,0,1-1.25.62H309.47a1,1,0,0,0-.21,2ZM189,72.13a30.43,30.43,0,0,0,9,7,1.11,1.11,0,0,0-.51,0,1,1,0,0,0-.59.57,91.14,91.14,0,0,0-5.28,17.84,1.1,1.1,0,0,0,0,.44c.88,3.22,5.69,20,14.06,33.9a1,1,0,0,0,.85.5,1,1,0,0,0,.87-.45c2.07-3.07,9.13-12.66,18.44-16.2-9.95,3.81-17.41,14.62-19,17a1,1,0,0,0,0,1.1,65.08,65.08,0,0,0,4.52,6.27,66.24,66.24,0,0,1-5.24-7.35,1,1,0,0,0-.87-.49h-17l.26-.18a1,1,0,0,0,.41-.82V72.36A1.79,1.79,0,0,0,189,72.13Zm27.85,10.78A35.65,35.65,0,0,0,224,85.07h.17a67.87,67.87,0,0,1-8.27-.67,1,1,0,0,0,1.09-.68A1.06,1.06,0,0,0,216.87,82.91Zm8.54,4.24c11.69,0,21.81-3.1,30.1-9.23,1,1.2,2.37,2.85,4.15,5a99.56,99.56,0,0,1,5.58,22.87c.33,3,1.78,6.26,3.63,10.47l.82,1.86c1.42,3.2,2.88,6.49,4.14,10.15H254.66A31.4,31.4,0,0,0,240.92,119c-5.08-1.59-9.42-5.9-12.16-9.24a46.84,46.84,0,0,1-4.51-6.49,1,1,0,0,0-1.92.48,14.46,14.46,0,0,0,3,8.35q.55.68,1.14,1.35c-9.27,2.92-16.4,11.37-19.79,16.11-7.57-13.12-12-28.28-13-31.81a88.22,88.22,0,0,1,4.7-16.16,54.45,54.45,0,0,0,14.62,4.51A74.19,74.19,0,0,0,225.41,87.15ZM261,71.4l53.76,60.9H257.06a1,1,0,0,0-.88.51,1,1,0,0,0-.06.92,24.83,24.83,0,0,0-2.59-3.71,1,1,0,0,0,.66.24h21.06a1,1,0,0,0,.82-.42,1,1,0,0,0,.15-.91c-.28-.87-.57-1.72-.87-2.54a.92.92,0,0,0,.32.18,36.82,36.82,0,0,0,11.85,2.14,22.5,22.5,0,0,0,10.58-2.42,1,1,0,0,0,.53-.71,1,1,0,0,0-.24-.86c-5.39-6.21-14.83-17.12-23.52-27.21a1,1,0,0,0-1.2-.26c-.33.15-.69.35-1.07.56.19-.11.38-.23.58-.33a1,1,0,0,0,.54-.72,1,1,0,0,0-.23-.86c-3.05-3.55-6-7-8.54-10a1,1,0,0,0-1.76.92c-.58-1.8-1.15-3.43-1.68-4.87a.92.92,0,0,0-.18-.3c-2.24-2.65-3.88-4.61-4.86-5.82a1,1,0,0,0-1.33-.22A40.8,40.8,0,0,0,261,70.09,1,1,0,0,0,261,71.4Zm-2.81,74a1,1,0,0,0,.79.39l3.11,0c7.13.09,13.73.22,20.12.35h.15c2.42.05,4.77.09,7,.15l-7,.14c-6.1.13-13,.27-20.27.35l-4.33.06a1.06,1.06,0,0,0-.89.55,11.83,11.83,0,0,0,1.11-2.75A1,1,0,0,0,258.22,145.41Zm-43.58-1.77-.21-.22c.8.81,1.6,1.56,2.41,2.24s1.45,1.19,2.18,1.75a1,1,0,0,0-.51-.14h0l-28.19.09-25-.07c-5.33,0-10.65,0-15.8-.1l-8.39-.08c-6.68,0-13.15-.13-19.4-.22l-3.22,0c-7.28-.09-14.28-.23-20.28-.35-2.54,0-5-.1-7.36-.15q3.57-.09,7.37-.15c6-.13,12.93-.27,20.27-.36l3.22,0c6.25-.09,12.72-.19,19.4-.23l8.37-.07c5.15-.05,10.48-.1,15.83-.1l25-.07,23.61.07h0a1,1,0,0,0,.72-1.75Zm3.52.46A49.22,49.22,0,0,1,209,133.33c2.3-3.41,10.53-14.56,20.72-16.55a26.71,26.71,0,0,0,9.94,6.08c6.68,2.09,13.27,8,15.68,14a10.85,10.85,0,0,1-.27,9.56c-2,3.53-5.62,6-10.3,6.81a22.92,22.92,0,0,1-4,.35C233.46,153.61,225.42,150.24,218.16,144.1Zm11-30.85c-.75-.8-1.47-1.63-2.16-2.48-.17-.2-.32-.41-.47-.62l.7.87a33.82,33.82,0,0,0,10.45,8.81,28.06,28.06,0,0,1-6.84-4.89,1,1,0,0,0-.71-.28h-.16c-.43.07-.86.16-1.28.26a1,1,0,0,0,.47-1.68Zm27.66,34.42a16.18,16.18,0,0,1-11,7.47A16.18,16.18,0,0,0,256.77,147.67Zm9.82-47a1,1,0,0,0,.71.81,1,1,0,0,0,1-.28l.3-.3a19.83,19.83,0,0,0-1.44,1.64,1,1,0,0,0-.22.68c-.14-1-.3-2-.48-3Zm-.08-9.75,4.62,5.38a18.87,18.87,0,0,0-2.87,2.13C267.78,96,267.2,93.44,266.51,90.9Zm4.23,24.49.13.3-.13-.31c-1.78-4-3.18-7.23-3.47-9.86C267.56,108.16,269,111.35,270.74,115.39ZM269.3,105.3c-.07-.63-.15-1.24-.23-1.86a16.17,16.17,0,0,1,4.78-4c8.08,9.4,16.74,19.4,22.13,25.61-5.11,2.21-11.92,2.14-19.19-.26-1.44-4-3-7.42-4.18-10.22C270.9,110.69,269.56,107.62,269.3,105.3ZM260.11,68a36.83,36.83,0,0,1-4.64,4.77,12.46,12.46,0,0,1-2.89,2.71c-7.08,5.15-15.19,7.17-22.69,7.66.77,0,1.54.07,2.33.07a49.37,49.37,0,0,0,12.51-1.59l.1,0a43.71,43.71,0,0,0,8.06-4.27c-7.66,5.2-16.89,7.83-27.48,7.83,1,0,1.91,0,2.84-.08a1,1,0,0,0,1-1,1,1,0,0,0-.45-.9,68.12,68.12,0,0,1-16.06-1.28c-.6,0-1.2-.13-1.81-.24a4.08,4.08,0,0,1-1-.36c-3.08-.73-4.94-1.39-4.94-1.39l0,0c-16.68-5.62-19-16.57-19.35-19.49A12.43,12.43,0,0,0,192,62.2c8.15,0,13.34-11,14.3-13.21a36,36,0,0,0,1.64-5.12c.9-3.39,1.75-6.6,3.95-6.91,2-.29,4.06,3.46,6.26,7.46,1.92,3.48,4.09,7.43,7,10.48a18.57,18.57,0,0,0,13.36,5.47,16.35,16.35,0,0,0,11.71-4.44c4.31-4.42,4.33-12.12,4.06-15.74l12.84,6.9C268.25,53.13,265.53,61.27,260.11,68Z" fill="#141515"/></g></g></svg>