<svg xmlns="http://www.w3.org/2000/svg" width="175" height="52" viewBox="0 0 837.5 250.4"><g id="a0db38d9-d5eb-4d95-943f-93a4189a1cd9" data-name="Слой 2"><g id="e74ce7bc-800c-4214-aa30-de644ab987d9" data-name="Layer 1"><path d="M444.8,14.3H339.4v232h27.4V140.2h78c38.3,0,70.7-28.8,70.7-63C515.5,41.3,485.1,14.3,444.8,14.3Zm43.3,62.9c0,21.4-19,38.1-43.4,38.1h-78V38.6h78C469.5,38.6,488.1,55.2,488.1,77.2Z" fill="#d61164"/><rect x="532.5" y="45.5" width="26.1" height="83.4" fill="#d61164"/><path d="M545.6,35.7c7.2,0,12.1-4.9,12.1-12.3a11.72,11.72,0,0,0-12.1-12.1c-7.3,0-12.4,5-12.4,12.1C533.1,30.7,538.1,35.7,545.6,35.7Z" fill="#d61164"/><path d="M629.8,43.1A37.68,37.68,0,0,0,601.1,56l-1.8-10.5H575.9v83.4H602v-39c0-13.4,8.8-22.4,21.8-22.4,13.2,0,22.4,9.2,22.4,22.4v39h26.1v-39C672.3,62.3,654.8,43.1,629.8,43.1Z" fill="#d61164"/><polygon points="751.2 87.09 789.4 45.49 754.9 45.49 727.5 75.19 720.4 75.19 720.4 13.7 694.3 13.7 694.3 128.9 720.4 128.9 720.4 99.3 727.4 99.3 757.1 128.9 792.8 128.9 751.2 87.09" fill="#d61164"/><path d="M465.7,171.1c-8.3-7.2-19.6-11.1-32.1-11.1-27.5,0-48.2,19-48.2,44.3,0,25.1,20.7,43.9,48.2,43.9,12.4,0,23.6-3.9,32.1-11.1l1.9,8.7h23.2V162.4H467.6Zm-27.3,53.5c-15.6,0-26.9-8.6-26.9-20.4,0-12.1,11.3-20.8,26.9-20.8s26.2,8.6,26.2,20.8S454.1,224.6,438.4,224.6Z" fill="#141515"/><path d="M561.2,160a37.53,37.53,0,0,0-28.7,12.9l-1.8-10.5H507.3v83.4h26.1v-39c0-13.4,8.8-22.4,21.8-22.4,13.2,0,22.4,9.2,22.4,22.4v39h26.1v-39C603.7,179.2,586.3,160,561.2,160Z" fill="#141515"/><path d="M694.3,170.2c-8.3-6.6-19.2-10.2-31-10.2-27.5,0-48.2,19-48.2,44.3,0,25.1,20.7,43.9,48.2,43.9,12.4,0,23.6-3.9,32.1-11.1l1.9,8.7h23.2V130.5H694.4v39.7ZM668,224.6c-15.6,0-26.9-8.6-26.9-20.4,0-12.1,11.3-20.8,26.9-20.8s26.2,8.6,26.2,20.8S683.7,224.6,668,224.6Z" fill="#141515"/><path d="M814.2,162.4l-1.8,8.7c-8.3-7.2-19.6-11.1-32.1-11.1-27.5,0-48.2,19-48.2,44.3,0,25.1,20.7,43.9,48.2,43.9,12.4,0,23.6-3.9,32.1-11.1l1.9,8.7h23.2V162.4ZM785,224.6c-15.6,0-26.9-8.6-26.9-20.4,0-12.1,11.3-20.8,26.9-20.8s26.2,8.6,26.2,20.8S800.7,224.6,785,224.6Z" fill="#141515"/><path d="M93.3,204.4a20.5,20.5,0,1,0,20.5,20.5A20.53,20.53,0,0,0,93.3,204.4Z" fill="#fff"/><path d="M167.6,147.1H176a125.3,125.3,0,0,1-9.4-22.7v9.2q.3,6.6.9,12.9C167.6,146.6,167.6,146.8,167.6,147.1Z" fill="#fff"/><path d="M90.5,81.7A23.36,23.36,0,0,0,69.9,94.1L41.8,147.9l-2.6,20.2a2.38,2.38,0,0,0,.5,1.8,2.14,2.14,0,0,0,1.7.8H56.3a2.8,2.8,0,0,1,.6-.1.31.31,0,0,0-.2.1h.5l-1,.2c-2.2.9-8.4,3.9-9.1,7.7v18.3H34.9v10.3H50l2.1,5.5a6.44,6.44,0,0,0,3.2-.7,14,14,0,0,0,5.3-3.9c2.9-4.9,11.4-15.5,31.7-16.2,27.9-1,35.3,23.1,36.7,29.3h69c1.3-6.3,8.1-30.2,34.2-29.6,28.7.7,36.8,21.5,37.3,23,1,2,2.3,3.6,3.7,2.9l3.5-10.3h15.1V196.1H288v-9.4c-.5-5.7-2.9-7-4.4-8.2s-11.5-5.1-13.9-6.1l-1.7-.3h17.1a2.14,2.14,0,0,0,1.8-.9,2.25,2.25,0,0,0,.4-1.9l-5.4-19.6L233,90.3a16.61,16.61,0,0,0-1.3-1.4c0,.1-.1.1-.1.2h0l.1.4s-.4,5.5-.3,5.7a35.25,35.25,0,0,1-4.4,1.1l-.2.2,47.8,54.1H222.8a20,20,0,0,1,1,2.1,12.56,12.56,0,0,1,.7,7.8h2.7l17.5.3c10.9.2,19.9.5,26.2.7,3.2.1,5.7.2,7.4.2s2.6.1,2.6.1-.9,0-2.6.1-4.2.2-7.4.2c-6.3.2-15.4.5-26.2.7l-17.5.3h-3.7c-2.1,3.8-5.9,6.3-10.7,7.2a25.79,25.79,0,0,1-3.9.4c-6.3,0-13-2.5-19.3-7.2h-2.8c-7.1,0-14.4,0-21.6.1s-14.5,0-21.6-.1-14.1-.1-20.9-.2-13.3-.1-19.6-.2l-17.5-.3c-5.4-.1-10.4-.2-14.8-.4s-8.3-.2-11.4-.3-5.7-.2-7.4-.2-2.6-.1-2.6-.1.9,0,2.6-.1,4.2-.2,7.4-.2,7-.2,11.4-.3,9.4-.3,14.8-.4l17.5-.3c6.2-.1,12.8-.2,19.6-.2s13.8-.1,20.9-.1,14.4,0,21.6-.1c6.8,0,13.7,0,20.4.1a54.7,54.7,0,0,1-7.4-9.5H159.7a13.84,13.84,0,0,0,3.5-1.7V98s-2.6-.4-2.7-.4-3.6-9.2-3.4-9.6,1.2-3.9,1.2-3.9a9,9,0,0,1-1.4-2c0-.1-.1-.1-.1-.2H90.5Z" fill="#fff"/><path d="M38,187.5c2.3-3.1,2.4-5.4,2.4-6.2H26.9v7.5C28.8,189.3,35.6,190.7,38,187.5Z" fill="#fff"/><path d="M25.4,215.1v.1a.9.9,0,0,0,.1.5c1.5-.1,5.2-.1,10,0,5.6.2,7.5-2.9,8.4-5h-14A4.4,4.4,0,0,0,25.4,215.1Z" fill="#fff"/><path d="M188.6,160.6c7.7,6.5,16.4,9.5,23.8,8.1,4.3-.8,7.7-3,9.5-6.3a10.12,10.12,0,0,0,.3-9c-2.2-5.4-8.1-10.8-14.1-12.6a22.06,22.06,0,0,1-8.6-5.4c-9.9,1.6-17.7,12.9-19.3,15.3A51.06,51.06,0,0,0,188.6,160.6Z" fill="#fff"/><path d="M160.4,97.4c.1,0,2.7.4,2.7.4A19.34,19.34,0,0,1,158.4,87a29,29,0,0,1-.2-3.1s-1,3.4-1.2,3.9S160.3,97.4,160.4,97.4Z" fill="#fff"/><path d="M231.5,95.1c0-.2.3-5.7.3-5.7l-.1-.4h0a34,34,0,0,1-4.2,6.7c-.1.2-.3.3-.4.5A23.54,23.54,0,0,0,231.5,95.1Z" fill="#fff"/><path d="M173.5,108.1c0,.2,11.1,4.5,15.8,4.8s28.1-3.8,29.2-5.4a38,38,0,0,0,2.9-5.9c-5.5,4.2-13.9,8.2-26,8.2a63.84,63.84,0,0,1-10.5-.9,42.71,42.71,0,0,1-13.2-4.2l.1.1C171.7,104.7,173.5,107.9,173.5,108.1Z" fill="#fff"/><path d="M156.7,82a14.29,14.29,0,0,0,1.4,2C157.6,83.3,157.1,82.6,156.7,82Z" fill="#fff"/><path d="M179.2,148.9c2.3-3.4,9.4-12.9,18.8-15.1-.7-.7-1.3-1.5-1.9-2.2a11.86,11.86,0,0,1-2.4-6.7,38.73,38.73,0,0,0,4,5.8c2.6,3.2,6.5,6.9,10.9,8.3a26.74,26.74,0,0,1,11.7,8h18.2c-1.4-4.3-3.1-7.9-4.7-11.6s-2.8-6.4-3.1-8.8a88.2,88.2,0,0,0-4.9-20.1c-1.9-2.2-3.3-3.9-4.2-5-.1,0-.1.1-.2.1a50.35,50.35,0,0,1-2.9,5.9c-1.1,1.6-24.6,5.6-29.2,5.4s-15.8-4.6-15.8-4.8-1.8-3.4-1.8-3.4l-.1-.1a79.3,79.3,0,0,0-4.5,15.2C167.8,122.4,172,136.9,179.2,148.9Z" fill="#fff"/><path d="M257.9,143.7c-4.7-5.4-12.8-14.8-20.3-23.5a15.25,15.25,0,0,0-5.3,4.3,12.31,12.31,0,0,1,.2,2c.2,2.1,1.4,4.9,2.9,8.3,1.1,2.6,2.5,5.6,3.7,9.2C247.4,146.7,253.7,145.9,257.9,143.7Z" fill="#fff"/><path d="M236.3,118.8c-2.6-3.1-5.2-6-7.4-8.6a100,100,0,0,1,3,12A15.37,15.37,0,0,1,236.3,118.8Z" fill="#fff"/><path d="M209.3,82.5Z" fill="#fff"/><path d="M293,187.9c1.4,1.2,4,.6,5.5.1v-.7a5.16,5.16,0,0,0-5.2-5.2h-1.7v4.1A10.48,10.48,0,0,0,293,187.9Z" fill="#fff"/><path d="M233.6,204.4a20.5,20.5,0,1,0,20.5,20.5A20.53,20.53,0,0,0,233.6,204.4Z" fill="#fff"/><path d="M281.3,214.7c2.1,1.1,6.8,1.4,12.4,1.2s6.8-.4,7.5-.8c.1,0,.1-.1.2-.1a4.38,4.38,0,0,0-4.3-4.2H280C279.9,212.1,280,214,281.3,214.7Z" fill="#fff"/><path d="M179.9,150.2s5.4-8.4,7.2-9.6,7.5-4.2,9-4.9,2.4-1,2.7-.9,3.8,2.1,6,3.5a41.69,41.69,0,0,0,8.7,4c2,.6,7.1,4.9,9.2,9.2s1,10.6.1,11.5-6.8,4.6-9.1,5.5-6.3,2.4-8.8,1.5-7.3-2.4-10.6-4.7-8.4-5.4-9.2-6.3-3.3-3.8-3.4-4-2.3-4.5-2.3-4.5Z" fill="#d61164"/><path d="M231.8,123.8a15.14,15.14,0,0,1,2.6-2.8c1-.6,2.7-1.8,3.1-1.6S259,143,259,143s-.1,2.6-3.4,2.9-10.8.1-12.8-.4-4.2-.7-4.6-1.8-3.2-8.5-3.8-9.9a26,26,0,0,1-2.1-5.1c-.3-1.7-1.5-4.6-1.3-4.6A2.19,2.19,0,0,0,231.8,123.8Z" fill="#d61164"/><path d="M67,194.3s23.1-14.7,45.9-3.4C112.9,190.9,97.2,171.5,67,194.3Z" fill="#141515"/><path d="M186.6,171.6a1.79,1.79,0,0,0-1.8-1.8H164.4a1.8,1.8,0,1,0,0,3.6h20.4A1.79,1.79,0,0,0,186.6,171.6Z" fill="#141515"/><circle cx="93.4" cy="224.6" r="10.4" fill="#d61164"/><circle cx="234.1" cy="224.6" r="10.4" fill="#d61164"/><path d="M93.3,212.4a12.5,12.5,0,1,0,12.5,12.5A12.5,12.5,0,0,0,93.3,212.4Zm0,21.5a9,9,0,1,1,9-9A9,9,0,0,1,93.3,233.9Z" fill="#141515"/><path d="M233.6,212.4a12.5,12.5,0,1,0,12.5,12.5A12.5,12.5,0,0,0,233.6,212.4Zm0,21.5a9,9,0,1,1,9-9A9,9,0,0,1,233.6,233.9Z" fill="#141515"/><path d="M180.1,117.2c10.1,2.6,18.2,11.3,18.2,11.3C191,116.3,180.1,117.2,180.1,117.2Z" fill="#141515"/><path d="M179.9,114.7c-.2,0,15.3.8,21.8,10.1C201.7,124.8,197.7,112,179.9,114.7Z" fill="#141515"/><path d="M189.5,169.7a.77.77,0,0,0-.8.9v2.5h0v.1c0,.2,0,.5-.1.6a4.07,4.07,0,0,1-.6,1.1,2,2,0,0,1-1.3.6,2.48,2.48,0,0,1-.9.1h-1c-.7,0-1.4.1-2.1.1l-11,.4,11,.4c.7,0,1.4.1,2.1.1h2.1a4.85,4.85,0,0,0,2.1-.8,3.35,3.35,0,0,0,1.2-1.7,4.54,4.54,0,0,1,.2-.8v-.1h0v-2.7A.88.88,0,0,0,189.5,169.7Z" fill="#141515"/><path d="M204.9,194.3s23.1-14.7,45.9-3.4C250.8,190.9,235.1,171.5,204.9,194.3Z" fill="#141515"/><path d="M205.5,142.6c11.6,4,13.8,10.8,13.8,10.8A14.83,14.83,0,0,0,205.5,142.6Z" fill="#141515"/><path d="M96.1,126.2h16.1c8.4,0,16.4-5,19.2-12.4a8.48,8.48,0,0,1,5.6,7.9c0,4.9-4.3,8.6-10,8.6H111.6a102.14,102.14,0,0,1-11,.1V155h10.3V140H127c10.5,0,20.3-7.9,20.3-18.3,0-9.2-6.6-15.9-15.2-17.7-1.9-8.8-10.2-14.4-19.9-14.4H85.8v51.6H96.1Zm0-27h16.1c5.7,0,10,3.7,10,8.8,0,4.9-4.3,8.6-10,8.6H111v-3.5h4.6a9.86,9.86,0,0,0,1.6-9.5H100.7v13H96.2V99.2Z" fill="#d61164"/><path d="M154.6,73.7a24.94,24.94,0,0,0,.7,4.5h0C155,76.4,154.7,74.8,154.6,73.7Z" fill="none"/><path d="M41,104.3a3.5,3.5,0,1,0,0-7H3.5a3.5,3.5,0,0,0,0,7Z" fill="#141515"/><path d="M14.4,119a3.54,3.54,0,0,0,3.5,3.5H43.8a3.5,3.5,0,1,0,0-7H17.9A3.48,3.48,0,0,0,14.4,119Z" fill="#141515"/><path d="M29.4,161.1a3.54,3.54,0,0,0-3.5-3.5H4.9a3.5,3.5,0,0,0,0,7h21A3.42,3.42,0,0,0,29.4,161.1Z" fill="#141515"/><path d="M297,205.9h-.3v-9a10,10,0,0,0,6.7-9.5v-.1a10.07,10.07,0,0,0-10.1-10.1h-.8l-.2-7.3v-.1a11,11,0,0,0-.2-1.8l-5.6-20.3c0-.2-.1-.3-.3-.5l-47-57.1c0-.1-.1-.1-.2-.1-1.4,1.3-2.9,2.6-4.4,3.8-.1.1-.2.1-.2.2a.1.1,0,0,0,.1.1l46.3,56.2,5.3,19.3a.78.78,0,0,1-.2.8,1,1,0,0,1-.7.4H268.1a1.3,1.3,0,0,0-1.3,1.2,1.25,1.25,0,0,0,1,1.4l1.6.3c7.2,2.8,12.6,5.2,13.4,5.8.1.1.3.2.5.4,1.5,1.1,3.1,2.4,3.5,6.9v9.3a1.32,1.32,0,0,0,1.3,1.3h2.5v8.4H276.8a1.2,1.2,0,0,0-1.2.9l-3.2,9.4a5,5,0,0,1-1.5-2.1c-.6-1.6-9.2-23.1-38.5-23.8h-1c-24.9,0-32.3,21.4-34.2,29.6H130.3c-2.1-8.2-10.5-30.2-37.8-29.3-20.9.7-29.8,11.8-32.8,16.7a13.92,13.92,0,0,1-4.6,3.5,13,13,0,0,1-1.9.6l-1.7-4.6a1.4,1.4,0,0,0-1.2-.9H36.5v-7.7H47.4a1.32,1.32,0,0,0,1.3-1.3V178.5c.5-2.5,4.6-5,8.2-6.6l.9-.2a1.22,1.22,0,0,0,1-1.4,1.3,1.3,0,0,0-.9-1.1,1.06,1.06,0,0,0-.8-.1l-.5.1H41.8a.91.91,0,0,1-.7-.3.66.66,0,0,1-.2-.7l2.6-19.9,28-53.5A21.86,21.86,0,0,1,90.9,83.1h56.4a12.59,12.59,0,0,1-.4-6.1h-56A27.23,27.23,0,0,0,80,79.2H25.8a3.5,3.5,0,1,0,0,7H69.7a26,26,0,0,0-4,5.8L37.3,146.3a.6.6,0,0,0-.1.4l-2.7,20.8a7.13,7.13,0,0,0,1.7,5.6,6.62,6.62,0,0,0,2.7,1.9v1.6H23.5a1.32,1.32,0,0,0-1.3,1.3v19a1.32,1.32,0,0,0,1.3,1.3h6.7v7.7h-.3a9.18,9.18,0,0,0-9.2,9.2v.1a9.18,9.18,0,0,0,9.2,9.2H68.1v.5a25.36,25.36,0,0,0,50.7,1.2h81.5l8.1.1a25.36,25.36,0,0,0,50.7-1.2v-.6h11.7a1.27,1.27,0,0,0,1.2,0h2.5c.1,0,.3.1.4.1H297a9.18,9.18,0,0,0,9.2-9.2v-.1A9.2,9.2,0,0,0,297,205.9ZM28.2,187.8v-5.2H38.9a11.91,11.91,0,0,1-2,4.1c-.9,1.2-3,1.5-4.6,1.5A24.77,24.77,0,0,1,28.2,187.8Zm7.3,26.6c-1.9-.1-3.8-.1-5.6-.1h-3a3,3,0,0,1,2.9-2.3H41.6C40.5,213.4,38.7,214.5,35.5,214.4Zm57.8,29.7a19.2,19.2,0,1,1,19.2-19.2A19.2,19.2,0,0,1,93.3,244.1Zm140.3,0a19.2,19.2,0,1,1,19.2-19.2A19.2,19.2,0,0,1,233.6,244.1Zm59.3-60.8h.4a3.87,3.87,0,0,1,3.9,3.7,5.82,5.82,0,0,1-1.9.3,2.08,2.08,0,0,1-1.5-.4,3.13,3.13,0,0,1-.9-1.1Zm.7,31.3c-1.1,0-2.2.1-3.2.1-5.5,0-7.7-.7-8.5-1.1-.2-.1-.5-.5-.6-1.5H297a3.13,3.13,0,0,1,2.9,2.1C299,214.3,297.2,214.4,293.6,214.6Z" fill="#141515"/><path d="M278.3,161.7c-1.7-.1-4.2-.2-7.4-.2-6.3-.2-15.4-.5-26.2-.7l-17.5-.3h-2.7a12.56,12.56,0,0,0-.7-7.8,20,20,0,0,0-1-2.1h51.9L229,98.8a23.58,23.58,0,0,1-3.4,2.4,26.94,26.94,0,0,1-2.9,1.6c.8,1,1.9,2.3,3.2,3.8a83.24,83.24,0,0,1,4.9,20.1c.3,2.4,1.5,5.2,3.1,8.8s3.3,7.3,4.7,11.6H220.4a26.47,26.47,0,0,0-11.7-8c-4.5-1.4-8.3-5-10.9-8.3a33.71,33.71,0,0,1-4-5.8,11.86,11.86,0,0,0,2.4,6.7c.6.7,1.2,1.5,1.9,2.2-9.4,2.2-16.5,11.7-18.8,15.1-7.2-12-11.4-26.6-12.1-29.1a82.58,82.58,0,0,1,4.2-14.4,4.18,4.18,0,0,1-1-.4c-2.5-1.4-4.7-3.3-7.2-4.7v48.4a15.73,15.73,0,0,1-3.5,1.7h18.5a54.7,54.7,0,0,0,7.4,9.5c-6.7,0-13.6,0-20.4-.1-7.2,0-14.5,0-21.6.1s-14.1.1-20.9.1-13.3.1-19.6.2l-17.5.3c-5.4.1-10.4.2-14.8.4s-8.3.2-11.4.3-5.7.2-7.4.2-2.6.1-2.6.1.9,0,2.6.1,4.2.2,7.4.2,7,.2,11.4.3,9.4.3,14.8.4l17.5.3c6.2.1,12.8.2,19.6.2s13.8.1,20.9.2,14.4,0,21.6.1,14.5,0,21.6-.1h2.8c6.3,4.7,13,7.2,19.3,7.2a16.65,16.65,0,0,0,3.9-.4c4.8-.9,8.7-3.4,10.7-7.2h3.7l17.5-.3c10.9-.2,19.9-.5,26.2-.7,3.2-.1,5.7-.2,7.4-.2s2.6-.1,2.6-.1A10.45,10.45,0,0,1,278.3,161.7Zm-49.4-51.5c2.2,2.6,4.7,5.5,7.4,8.6a15.37,15.37,0,0,0-4.4,3.4A84,84,0,0,0,228.9,110.2Zm6.5,24.5c-1.5-3.4-2.7-6.1-2.9-8.3a13.55,13.55,0,0,1-.2-2,14.41,14.41,0,0,1,5.3-4.3c7.5,8.7,15.7,18.2,20.3,23.5-4.1,2.2-10.4,3-18.7.2C237.9,140.4,236.6,137.3,235.4,134.7Zm-67.8,12.4v-.6c-.5-4.1-.8-8.5-.9-12.9v-9.2a125.3,125.3,0,0,0,9.4,22.7Zm54.3,15.3c-1.8,3.3-5.2,5.5-9.5,6.3-7.4,1.4-16.1-1.6-23.8-8.1a44.07,44.07,0,0,1-8.4-10c1.5-2.3,9.3-13.6,19.3-15.3a23.27,23.27,0,0,0,8.6,5.4c6,1.9,11.9,7.2,14.1,12.6A11,11,0,0,1,221.9,162.4Z" fill="#141515"/><path d="M158.1,21.2a26,26,0,0,0-6.5-.9c-11.7,0-15.4,9.8-15.4,10.7v3.7l2.1-3c4-5.8,10.2-6.7,13.5-6.7a14.68,14.68,0,0,1,2.7.2l.4.8,5.4-4.3Z" fill="#fff"/><path d="M156.8,70.5c-.6.7-.8.9-.8,1.3v1.9l1.7-.9c10.5-5.7,11-17.8,11-18.3l.2-7.5-2.4,7.1A47.35,47.35,0,0,1,156.8,70.5Z" fill="#fff"/><path d="M228.5,51.4l.8-.1-.6.1.6-.1-2.2.3h0a23.85,23.85,0,0,1-10.4,17.9l-4.3,2.9,5.1-.9c1.4-.2,13.7-2.9,11.9-20.2Z" fill="#fff"/><path d="M242.9,13c-4.8-6.6-14.7-6.9-15.2-6.9l-6-.1,5.6,2.3c14.3,5.9,14.8,18.3,14.8,18.9l.1,7.2,2.1-6.9C246,21.5,245.6,16.6,242.9,13Z" fill="#fff"/><path d="M143.7,46.7c0-1.2,3.5-14.1,9.3-17.3a74.53,74.53,0,0,0,11.9-8.2c.8-.8,21-9.6,21-9.6v3.5l12.4-4.4s-3.4,4-2.9,4,13-.3,21.5,3.4S242,32.4,247.3,43.5c0,0,1.9,3-5,1.3s-24.1-2.7-31.3-2.5-22.7-1.3-33.5-.2-27.4,8.1-29.4,7.9S143.7,46.7,143.7,46.7Z" fill="#d61164"/><path d="M141.1,69.2c-.1,2,.1,11,1.6,15.1s11.6,15.3,14.7,17.2,13.3,6.6,20,7.7a151.38,151.38,0,0,0,26.2,1.3c7-.4,25.1-5.9,32-12.7S247.8,84.2,249.8,80a45.61,45.61,0,0,0,3.5-12.6c.4-3.1.3-7.6-.8-10s-20.1-12.6-20.7-11.9-1.3,2.7-1.5,8.5a41.42,41.42,0,0,1-2.8,14c-1.6,4.4-8.3,8.4-13.2,7.2s-6.3,0-12.3-7.4-9.5-12.1-12.6-16.3-7.6-14.9-13-9.8-5.4,6.7-6.5,13.6-2.1,10.2-4.3,12.9-2.2,4.1-5.7,4.6-5.9.8-9.8-.8C146.3,70.6,141.1,69.2,141.1,69.2Z" fill="#d61164"/><path d="M184.8,78.8c-4.3-.3-4.8-5-4.5-6.7a1.48,1.48,0,0,1,1-1.3c1-.4,5.2-2.7,6.1-4.3,1.1-2.2-.7-6.8-8.2-6.6a10.71,10.71,0,0,0-7.2,2.5c-2,1.9-2.4,4.5.3,5.9s5.3,2.7,5.3,4.3-1.1,5.2-3.4,6.1-6.7-1-7.4-4.3c0,0,.9,5.6,5.2,6.5a6.69,6.69,0,0,0,6.6-2.1,8.89,8.89,0,0,0,5.8,2.2,8.14,8.14,0,0,0,7.7-5A10.07,10.07,0,0,1,184.8,78.8Z" fill="#141515"/><path d="M174.6,84.1c4.3,7.6,9.3.2,9.3.2A8.6,8.6,0,0,1,174.6,84.1Z" fill="#141515"/><path d="M254.9,60.4l-.6-13.7s-1.4-.7-5-2.4a49.71,49.71,0,0,0-5-7.8c3.7-4.4,5.5-9.4,5.1-14.5a22.82,22.82,0,0,0-7.8-15.2c-5.2-4.5-16.1-9.3-23.2-5.3-5.2,2.9-5.9,10.5-6,13.6a67,67,0,0,0-13.8-1.5H198l3.8-6.5-14,6.7.3-4.1-2.1,1c-.1,0-10,4.6-17.8,7.7-1.8.7-3.5,1.5-5.3,2.4-.4-.2-8.4-3.5-16.5-2-8.9,1.7-16.6,10.2-15.8,17.6a12.68,12.68,0,0,0,6.3,9.8c-5.3,2.8-4.2,6.5-3.8,8.5,0,0,.1,1,.3,2.6s.6,4.1,1.1,6.9h0a9.83,9.83,0,0,0,.5,1.6,16.52,16.52,0,0,0,1.8,4.1,19.09,19.09,0,0,0,2.2,3c.1,2.7.3,4.4.3,4.7,0,.9.6,8.6,7.2,16.5,0,0,3.5,3.7,5.6,5.5a66.84,66.84,0,0,0,7.4,4.8,72.65,72.65,0,0,0,20.2,6.5,100.13,100.13,0,0,0,16.1,1.4c18.5,0,31.3-6.1,39.6-12.5h0s6.6-5.6,8.5-8.1h.1c.2-.3.5-.5.7-.8a48.2,48.2,0,0,0,6.4-10.2c.1-.1.6-1.4,1.2-2.8.4-1,.8-2,1.1-2.8h0C255.1,69.7,255.7,64.7,254.9,60.4Zm-26.8-8.9c1.7,15.8-8.7,18.6-10.9,19l-.1.1h-.3a1,1,0,0,0,.4-.1A25,25,0,0,0,228.1,51.5ZM224.5,33c-3.1-.7-8.1-.5-13.8.1-7.2-.5-17.2-1.1-17.6-1.1s3.3,1.4,6.9,2.5c-9.4,1.5-17.9,3.4-19.5,3.5-3.3.4-6.1,1.1-14.6,1.7-2.1.2-4.1.3-6,.5,2-2.6,4.5-6,4.5-6l-9.8,6.7c-2.8.5-5.5,1-8.2,1.7,5.4-13.5,14-18.6,22.7-22.1,5.6-2.3,12.4-5.3,15.8-6.8l-.3,4.2,10.4-5-1.9,3.3,2.6-.2s1.1-.1,2.9-.1c5.2,0,15.2.7,24.1,5.3A58.49,58.49,0,0,1,245,41.9C236.3,38.1,225,32.8,224.5,33ZM167.6,54.5s-.3,11.9-10.4,17.4C157.2,71.6,164.1,64.9,167.6,54.5ZM137.3,31c0-.3,4.5-13,20.5-8.7l-2.6,2C155,23.9,143.5,22,137.3,31Zm105.9-3.9s-.3-13.6-15.5-19.9C227.7,7.2,249,7.7,243.2,27.1ZM242.7,89A53.15,53.15,0,0,1,221,104.8c-.2.1-22.9,6.5-38.8-3.9.3.1,7.5,6.6,17.3,8.4-1.2.1-2.4.1-3.7.1h-1.7a50.76,50.76,0,0,1-18.4-7.8,21.85,21.85,0,0,0,7.6,6.9c-1.1-.1-2.1-.3-3.2-.5-37.2-6.4-38.2-29.7-38.2-30.7v-.1s-.1-.7-.2-1.7a16.22,16.22,0,0,0,9.9,3.8c8.9,0,15.3-11.3,17.6-16.6,2.8-6.5,2.9-15.9,8.4-16.7,6.2-.9,9.9,15,18.7,24.1s24.1,8.6,31.1,1.3,4.7-22.2,4.7-22.2l19.7,10.6V60C253.9,68.3,250.2,79.7,242.7,89Z" fill="#141515"/></g></g></svg>