<svg width="13" height="12" viewBox="0 0 13 12" fill="none" xmlns="http://www.w3.org/2000/svg">
<path d="M8.60418 9.0997L8.82441 9.15639L8.9657 8.97819L9.11018 8.79596C9.31438 8.53841 9.67872 8.47382 9.95901 8.64549L11.5531 9.62187C11.8766 9.82001 11.9207 10.1949 11.7197 10.4127C11.2693 10.9008 10.6723 11.3914 10.0332 11.6019C9.95871 11.6265 9.86681 11.6276 9.7662 11.5993C5.66289 10.4461 2.39307 7.15988 1.1352 2.94564C1.09296 2.80413 1.10653 2.65446 1.1718 2.52826C1.63489 1.63281 2.1317 1.07973 2.51575 0.765704C2.59808 0.698386 2.68428 0.686307 2.77271 0.711889C2.8696 0.73992 2.97767 0.81822 3.05421 0.947237L4.17229 2.83185C4.32383 3.08728 4.28297 3.41293 4.07302 3.623L3.81716 3.87899L3.67375 4.02248L3.72697 4.21824C4.37804 6.61289 6.24254 8.49175 8.60418 9.0997Z" stroke="#2D2D2D" stroke-width="0.7"/>
<path d="M4.90039 1.5H12.6004V6.4" stroke="#2D2D2D" stroke-width="0.7"/>
<path d="M6.2998 3.6001H10.4998" stroke="#2D2D2D" stroke-width="0.7"/>
<path d="M6.2998 5H10.4998" stroke="#2D2D2D" stroke-width="0.7"/>
</svg>
