<svg width="10" height="10" viewBox="0 0 10 10" fill="none" xmlns="http://www.w3.org/2000/svg">
<circle cx="5" cy="5" r="4.65" stroke="#2D2D2D" stroke-width="0.7"/>
<path d="M7.15 5C7.15 6.33816 6.87806 7.53233 6.45472 8.37901C6.02091 9.24662 5.48637 9.65 5 9.65C4.51363 9.65 3.97909 9.24662 3.54528 8.37901C3.12194 7.53233 2.85 6.33816 2.85 5C2.85 3.66184 3.12194 2.46767 3.54528 1.62099C3.97909 0.753375 4.51363 0.35 5 0.35C5.48637 0.35 6.02091 0.753375 6.45472 1.62099C6.87806 2.46767 7.15 3.66184 7.15 5Z" stroke="#2D2D2D" stroke-width="0.7"/>
<path d="M0.625 3.125H9.375" stroke="#2D2D2D" stroke-width="0.7"/>
<path d="M0.625 6.875H9.375" stroke="#2D2D2D" stroke-width="0.7"/>
</svg>
