<svg width="1212" height="386" viewBox="0 0 1212 386" fill="none" xmlns="http://www.w3.org/2000/svg">
<g opacity="0.2">
<path d="M6.04637 30.2314L7.85889 33.7831L11.7968 34.4094L8.97909 37.2307L9.60033 41.1694L6.04637 39.3615L2.4924 41.1694L3.11364 37.2307L0.29593 34.4094L4.23385 33.7831L6.04637 30.2314Z" fill="#E9D9E1"/>
<path d="M412.162 26.2012L413.974 29.7528L417.912 30.3791L415.094 33.2004L415.716 37.1392L412.162 35.3312L408.608 37.1392L409.229 33.2004L406.411 30.3791L410.349 29.7528L412.162 26.2012Z" fill="#E9D9E1"/>
<path d="M1108.5 52.4023L1110.31 55.954L1114.25 56.5803L1111.43 59.4016L1112.06 63.3403L1108.5 61.5324L1104.95 63.3403L1105.57 59.4016L1102.75 56.5803L1106.69 55.954L1108.5 52.4023Z" fill="#E9D9E1"/>
<path d="M1205.24 14.1084L1207.05 17.66L1210.99 18.2863L1208.17 21.1077L1208.8 25.0464L1205.24 23.2384L1201.69 25.0464L1202.31 21.1077L1199.49 18.2863L1203.43 17.66L1205.24 14.1084Z" fill="#E9D9E1"/>
<path d="M269.064 57.4404L270.876 60.9921L274.814 61.6184L271.997 64.4397L272.618 68.3784L269.064 66.5704L265.51 68.3784L266.131 64.4397L263.314 61.6184L267.251 60.9921L269.064 57.4404Z" fill="#E9D9E1"/>
<path d="M675.177 53.4092L676.99 56.9608L680.928 57.5871L678.11 60.4084L678.731 64.3472L675.177 62.5392L671.623 64.3472L672.245 60.4084L669.427 57.5871L673.365 56.9608L675.177 53.4092Z" fill="#E9D9E1"/>
<path d="M786.027 33.2549L787.839 36.8065L791.777 37.4328L788.96 40.2541L789.581 44.1929L786.027 42.3849L782.473 44.1929L783.094 40.2541L780.276 37.4328L784.214 36.8065L786.027 33.2549Z" fill="#E9D9E1"/>
<path d="M917.033 57.4404L918.845 60.9921L922.783 61.6184L919.965 64.4397L920.587 68.3784L917.033 66.5704L913.479 68.3784L914.1 64.4397L911.282 61.6184L915.22 60.9921L917.033 57.4404Z" fill="#E9D9E1"/>
<path d="M95.7339 45.3477L97.5464 48.8993L101.484 49.5256L98.6666 52.3469L99.2878 56.2856L95.7339 54.4777L92.1799 56.2856L92.8011 52.3469L89.9834 49.5256L93.9213 48.8993L95.7339 45.3477Z" fill="#E9D9E1"/>
<path d="M501.849 41.3164L503.662 44.8681L507.6 45.4943L504.782 48.3157L505.403 52.2544L501.849 50.4464L498.295 52.2544L498.916 48.3157L496.099 45.4943L500.037 44.8681L501.849 41.3164Z" fill="#E9D9E1"/>
<path d="M301.31 24.1855L303.123 27.7372L307.06 28.3635L304.243 31.1848L304.864 35.1235L301.31 33.3156L297.756 35.1235L298.377 31.1848L295.56 28.3635L299.498 27.7372L301.31 24.1855Z" fill="#E9D9E1"/>
<path d="M707.425 20.1543L709.238 23.7059L713.176 24.3322L710.358 27.1536L710.979 31.0923L707.425 29.2843L703.871 31.0923L704.493 27.1536L701.675 24.3322L705.613 23.7059L707.425 20.1543Z" fill="#E9D9E1"/>
<path d="M818.275 0L820.087 3.55164L824.025 4.17794L821.208 6.99927L821.829 10.938L818.275 9.13002L814.721 10.938L815.342 6.99927L812.524 4.17794L816.462 3.55164L818.275 0Z" fill="#E9D9E1"/>
<path d="M949.281 24.1855L951.093 27.7372L955.031 28.3635L952.213 31.1848L952.835 35.1235L949.281 33.3156L945.727 35.1235L946.348 31.1848L943.53 28.3635L947.468 27.7372L949.281 24.1855Z" fill="#E9D9E1"/>
<path d="M358.751 72.5566L360.564 76.1083L364.502 76.7346L361.684 79.5559L362.305 83.4946L358.751 81.6867L355.197 83.4946L355.819 79.5559L353.001 76.7346L356.939 76.1083L358.751 72.5566Z" fill="#E9D9E1"/>
<path d="M764.865 68.5254L766.677 72.077L770.615 72.7033L767.797 75.5247L768.419 79.4634L764.865 77.6554L761.311 79.4634L761.932 75.5247L759.114 72.7033L763.052 72.077L764.865 68.5254Z" fill="#E9D9E1"/>
<path d="M875.716 48.3711L877.529 51.9227L881.467 52.549L878.649 55.3704L879.27 59.3091L875.716 57.5011L872.162 59.3091L872.784 55.3704L869.966 52.549L873.904 51.9227L875.716 48.3711Z" fill="#E9D9E1"/>
<path d="M1006.72 72.5566L1008.53 76.1083L1012.47 76.7346L1009.65 79.5559L1010.27 83.4946L1006.72 81.6867L1003.17 83.4946L1003.79 79.5559L1000.97 76.7346L1004.91 76.1083L1006.72 72.5566Z" fill="#E9D9E1"/>
<path d="M74.5718 6.0459L76.3843 9.59754L80.3222 10.2238L77.5045 13.0452L78.1257 16.9839L74.5718 15.1759L71.0178 16.9839L71.639 13.0452L68.8213 10.2238L72.7592 9.59754L74.5718 6.0459Z" fill="#E9D9E1"/>
<path d="M480.687 2.01562L482.5 5.56727L486.437 6.19356L483.62 9.01489L484.241 12.9536L480.687 11.1456L477.133 12.9536L477.754 9.01489L474.937 6.19356L478.874 5.56727L480.687 2.01562Z" fill="#E9D9E1"/>
<path d="M337.589 33.2549L339.402 36.8065L343.34 37.4328L340.522 40.2541L341.143 44.1929L337.589 42.3849L334.035 44.1929L334.657 40.2541L331.839 37.4328L335.777 36.8065L337.589 33.2549Z" fill="#E9D9E1"/>
<path d="M743.703 29.2236L745.515 32.7753L749.453 33.4016L746.635 36.2229L747.257 40.1616L743.703 38.3536L740.149 40.1616L740.77 36.2229L737.952 33.4016L741.89 32.7753L743.703 29.2236Z" fill="#E9D9E1"/>
<path d="M854.554 9.06934L856.367 12.621L860.305 13.2473L857.487 16.0686L858.108 20.0073L854.554 18.1994L851 20.0073L851.621 16.0686L848.804 13.2473L852.742 12.621L854.554 9.06934Z" fill="#E9D9E1"/>
<path d="M985.558 33.2549L987.371 36.8065L991.309 37.4328L988.491 40.2541L989.112 44.1929L985.558 42.3849L982.004 44.1929L982.625 40.2541L979.808 37.4328L983.746 36.8065L985.558 33.2549Z" fill="#E9D9E1"/>
<path d="M164.259 21.1621L166.072 24.7138L170.01 25.34L167.192 28.1614L167.813 32.1001L164.259 30.2921L160.705 32.1001L161.327 28.1614L158.509 25.34L162.447 24.7138L164.259 21.1621Z" fill="#E9D9E1"/>
<path d="M570.374 17.1318L572.187 20.6835L576.125 21.3098L573.307 24.1311L573.928 28.0698L570.374 26.2619L566.821 28.0698L567.442 24.1311L564.624 21.3098L568.562 20.6835L570.374 17.1318Z" fill="#E9D9E1"/>
<path d="M50.8896 36.2783L54.6657 43.6776L62.8696 44.9824L56.9994 50.8601L58.2937 59.0658L50.8896 55.2992L43.4855 59.0658L44.7797 50.8601L38.9095 44.9824L47.1135 43.6776L50.8896 36.2783Z" fill="#E9D9E1"/>
<path d="M457.005 32.2471L460.781 39.6463L468.985 40.9511L463.115 46.8289L464.409 55.0345L457.005 51.2679L449.601 55.0345L450.895 46.8289L445.025 40.9511L453.229 39.6463L457.005 32.2471Z" fill="#E9D9E1"/>
<path d="M1182.57 52.4023L1186.35 59.8016L1194.55 61.1064L1188.68 66.9842L1189.97 75.1898L1182.57 71.4232L1175.17 75.1898L1176.46 66.9842L1170.59 61.1064L1178.79 59.8016L1182.57 52.4023Z" fill="#E9D9E1"/>
<path d="M1134.2 19.1465L1137.97 26.5457L1146.18 27.8505L1140.31 33.7283L1141.6 41.9339L1134.2 38.1674L1126.79 41.9339L1128.09 33.7283L1122.22 27.8505L1130.42 26.5457L1134.2 19.1465Z" fill="#E9D9E1"/>
<path d="M313.907 63.4873L317.683 70.8866L325.887 72.1913L320.017 78.0691L321.311 86.2748L313.907 82.5082L306.503 86.2748L307.797 78.0691L301.927 72.1913L310.131 70.8866L313.907 63.4873Z" fill="#E9D9E1"/>
<path d="M720.022 59.4561L723.798 66.8553L732.002 68.1601L726.132 74.0379L727.426 82.2435L720.022 78.4769L712.618 82.2435L713.913 74.0379L708.042 68.1601L716.246 66.8553L720.022 59.4561Z" fill="#E9D9E1"/>
<path d="M830.872 39.3018L834.648 46.701L842.852 48.0058L836.982 53.8836L838.276 62.0892L830.872 58.3226L823.468 62.0892L824.762 53.8836L818.892 48.0058L827.096 46.701L830.872 39.3018Z" fill="#E9D9E1"/>
<path d="M961.876 63.4873L965.652 70.8866L973.856 72.1913L967.986 78.0691L969.28 86.2748L961.876 82.5082L954.472 86.2748L955.766 78.0691L949.896 72.1913L958.1 70.8866L961.876 63.4873Z" fill="#E9D9E1"/>
<path d="M140.579 51.3945L144.355 58.7938L152.559 60.0986L146.689 65.9763L147.983 74.182L140.579 70.4154L133.175 74.182L134.469 65.9763L128.599 60.0986L136.803 58.7938L140.579 51.3945Z" fill="#E9D9E1"/>
<path d="M546.692 47.3633L550.468 54.7625L558.672 56.0673L552.802 61.9451L554.096 70.1507L546.692 66.3841L539.288 70.1507L540.582 61.9451L534.712 56.0673L542.916 54.7625L546.692 47.3633Z" fill="#E9D9E1"/>
<path d="M101.05 21.9375L109.207 37.9199L126.927 40.7382L114.248 53.4342L117.043 71.1584L101.05 63.0226L85.0576 71.1584L87.8532 53.4342L75.1735 40.7382L92.8941 37.9199L101.05 21.9375Z" fill="#E9D9E1"/>
<path d="M632.853 18.1387L641.01 34.1211L658.73 36.9394L646.05 49.6354L648.846 67.3596L632.853 59.2237L616.86 67.3596L619.656 49.6354L606.976 36.9394L624.697 34.1211L632.853 18.1387Z" fill="#E9D9E1"/>
<path d="M1049.04 10.0771L1057.2 26.0595L1074.92 28.8779L1062.24 41.5739L1065.04 59.2981L1049.04 51.1622L1033.05 59.2981L1035.85 41.5739L1023.17 28.8779L1040.89 26.0595L1049.04 10.0771Z" fill="#E9D9E1"/>
</g>
<g opacity="0.2">
<path d="M6.04637 124.958L7.85889 128.51L11.7968 129.136L8.97909 131.957L9.60033 135.896L6.04637 134.088L2.4924 135.896L3.11364 131.957L0.29593 129.136L4.23385 128.51L6.04637 124.958Z" fill="#E9D9E1"/>
<path d="M412.162 120.927L413.974 124.478L417.912 125.105L415.094 127.926L415.716 131.865L412.162 130.057L408.608 131.865L409.229 127.926L406.411 125.105L410.349 124.478L412.162 120.927Z" fill="#E9D9E1"/>
<path d="M1108.5 147.128L1110.31 150.68L1114.25 151.306L1111.43 154.127L1112.06 158.066L1108.5 156.258L1104.95 158.066L1105.57 154.127L1102.75 151.306L1106.69 150.68L1108.5 147.128Z" fill="#E9D9E1"/>
<path d="M1205.24 108.834L1207.05 112.386L1210.99 113.012L1208.17 115.833L1208.8 119.772L1205.24 117.964L1201.69 119.772L1202.31 115.833L1199.49 113.012L1203.43 112.386L1205.24 108.834Z" fill="#E9D9E1"/>
<path d="M269.064 152.166L270.876 155.718L274.814 156.344L271.997 159.165L272.618 163.104L269.064 161.296L265.51 163.104L266.131 159.165L263.314 156.344L267.251 155.718L269.064 152.166Z" fill="#E9D9E1"/>
<path d="M675.177 148.136L676.99 151.687L680.928 152.314L678.11 155.135L678.731 159.074L675.177 157.266L671.623 159.074L672.245 155.135L669.427 152.314L673.365 151.687L675.177 148.136Z" fill="#E9D9E1"/>
<path d="M786.027 127.98L787.839 131.532L791.777 132.158L788.96 134.98L789.581 138.918L786.027 137.11L782.473 138.918L783.094 134.98L780.276 132.158L784.214 131.532L786.027 127.98Z" fill="#E9D9E1"/>
<path d="M917.033 152.166L918.845 155.718L922.783 156.344L919.965 159.165L920.587 163.104L917.033 161.296L913.479 163.104L914.1 159.165L911.282 156.344L915.22 155.718L917.033 152.166Z" fill="#E9D9E1"/>
<path d="M95.7339 140.073L97.5464 143.625L101.484 144.251L98.6666 147.073L99.2878 151.011L95.7339 149.203L92.1799 151.011L92.8011 147.073L89.9834 144.251L93.9213 143.625L95.7339 140.073Z" fill="#E9D9E1"/>
<path d="M501.849 136.043L503.662 139.595L507.6 140.221L504.782 143.042L505.403 146.981L501.849 145.173L498.295 146.981L498.916 143.042L496.099 140.221L500.037 139.595L501.849 136.043Z" fill="#E9D9E1"/>
<path d="M301.31 118.911L303.123 122.463L307.06 123.089L304.243 125.91L304.864 129.849L301.31 128.041L297.756 129.849L298.377 125.91L295.56 123.089L299.498 122.463L301.31 118.911Z" fill="#E9D9E1"/>
<path d="M707.425 114.881L709.238 118.433L713.176 119.059L710.358 121.88L710.979 125.819L707.425 124.011L703.871 125.819L704.493 121.88L701.675 119.059L705.613 118.433L707.425 114.881Z" fill="#E9D9E1"/>
<path d="M818.275 94.7256L820.087 98.2772L824.025 98.9035L821.208 101.725L821.829 105.664L818.275 103.856L814.721 105.664L815.342 101.725L812.524 98.9035L816.462 98.2772L818.275 94.7256Z" fill="#E9D9E1"/>
<path d="M949.281 118.911L951.093 122.463L955.031 123.089L952.213 125.91L952.835 129.849L949.281 128.041L945.727 129.849L946.348 125.91L943.53 123.089L947.468 122.463L949.281 118.911Z" fill="#E9D9E1"/>
<path d="M358.751 167.282L360.564 170.834L364.502 171.46L361.684 174.281L362.305 178.22L358.751 176.412L355.197 178.22L355.819 174.281L353.001 171.46L356.939 170.834L358.751 167.282Z" fill="#E9D9E1"/>
<path d="M764.865 163.251L766.677 166.803L770.615 167.429L767.797 170.25L768.419 174.189L764.865 172.381L761.311 174.189L761.932 170.25L759.114 167.429L763.052 166.803L764.865 163.251Z" fill="#E9D9E1"/>
<path d="M875.716 143.097L877.529 146.648L881.467 147.275L878.649 150.096L879.27 154.035L875.716 152.227L872.162 154.035L872.784 150.096L869.966 147.275L873.904 146.648L875.716 143.097Z" fill="#E9D9E1"/>
<path d="M1006.72 167.282L1008.53 170.834L1012.47 171.46L1009.65 174.281L1010.27 178.22L1006.72 176.412L1003.17 178.22L1003.79 174.281L1000.97 171.46L1004.91 170.834L1006.72 167.282Z" fill="#E9D9E1"/>
<path d="M74.5718 100.772L76.3843 104.324L80.3222 104.95L77.5045 107.772L78.1257 111.71L74.5718 109.902L71.0178 111.71L71.639 107.772L68.8213 104.95L72.7592 104.324L74.5718 100.772Z" fill="#E9D9E1"/>
<path d="M480.687 96.7412L482.5 100.293L486.437 100.919L483.62 103.74L484.241 107.679L480.687 105.871L477.133 107.679L477.754 103.74L474.937 100.919L478.874 100.293L480.687 96.7412Z" fill="#E9D9E1"/>
<path d="M337.589 127.98L339.402 131.532L343.34 132.158L340.522 134.98L341.143 138.918L337.589 137.11L334.035 138.918L334.657 134.98L331.839 132.158L335.777 131.532L337.589 127.98Z" fill="#E9D9E1"/>
<path d="M743.703 123.95L745.515 127.502L749.453 128.128L746.635 130.949L747.257 134.888L743.703 133.08L740.149 134.888L740.77 130.949L737.952 128.128L741.89 127.502L743.703 123.95Z" fill="#E9D9E1"/>
<path d="M854.554 103.796L856.367 107.348L860.305 107.974L857.487 110.795L858.108 114.734L854.554 112.926L851 114.734L851.621 110.795L848.804 107.974L852.742 107.348L854.554 103.796Z" fill="#E9D9E1"/>
<path d="M985.558 127.98L987.371 131.532L991.309 132.158L988.491 134.98L989.112 138.918L985.558 137.11L982.004 138.918L982.625 134.98L979.808 132.158L983.746 131.532L985.558 127.98Z" fill="#E9D9E1"/>
<path d="M164.259 115.888L166.072 119.439L170.01 120.066L167.192 122.887L167.813 126.826L164.259 125.018L160.705 126.826L161.327 122.887L158.509 120.066L162.447 119.439L164.259 115.888Z" fill="#E9D9E1"/>
<path d="M570.374 111.857L572.187 115.409L576.125 116.035L573.307 118.857L573.928 122.795L570.374 120.987L566.821 122.795L567.442 118.857L564.624 116.035L568.562 115.409L570.374 111.857Z" fill="#E9D9E1"/>
<path d="M50.8896 131.004L54.6657 138.403L62.8696 139.708L56.9994 145.586L58.2937 153.791L50.8896 150.025L43.4855 153.791L44.7797 145.586L38.9095 139.708L47.1135 138.403L50.8896 131.004Z" fill="#E9D9E1"/>
<path d="M457.005 126.974L460.781 134.373L468.985 135.678L463.115 141.555L464.409 149.761L457.005 145.994L449.601 149.761L450.895 141.555L445.025 135.678L453.229 134.373L457.005 126.974Z" fill="#E9D9E1"/>
<path d="M1182.57 147.128L1186.35 154.527L1194.55 155.832L1188.68 161.71L1189.97 169.915L1182.57 166.149L1175.17 169.915L1176.46 161.71L1170.59 155.832L1178.79 154.527L1182.57 147.128Z" fill="#E9D9E1"/>
<path d="M1134.2 113.873L1137.97 121.272L1146.18 122.577L1140.31 128.455L1141.6 136.661L1134.2 132.894L1126.79 136.661L1128.09 128.455L1122.22 122.577L1130.42 121.272L1134.2 113.873Z" fill="#E9D9E1"/>
<path d="M313.907 158.213L317.683 165.612L325.887 166.917L320.017 172.795L321.311 181L313.907 177.234L306.503 181L307.797 172.795L301.927 166.917L310.131 165.612L313.907 158.213Z" fill="#E9D9E1"/>
<path d="M720.022 154.182L723.798 161.581L732.002 162.886L726.132 168.763L727.426 176.969L720.022 173.203L712.618 176.969L713.913 168.763L708.042 162.886L716.246 161.581L720.022 154.182Z" fill="#E9D9E1"/>
<path d="M830.872 134.027L834.648 141.427L842.852 142.731L836.982 148.609L838.276 156.815L830.872 153.048L823.468 156.815L824.762 148.609L818.892 142.731L827.096 141.427L830.872 134.027Z" fill="#E9D9E1"/>
<path d="M961.876 158.213L965.652 165.612L973.856 166.917L967.986 172.795L969.28 181L961.876 177.234L954.472 181L955.766 172.795L949.896 166.917L958.1 165.612L961.876 158.213Z" fill="#E9D9E1"/>
<path d="M140.579 146.12L144.355 153.519L152.559 154.824L146.689 160.702L147.983 168.908L140.579 165.141L133.175 168.908L134.469 160.702L128.599 154.824L136.803 153.519L140.579 146.12Z" fill="#E9D9E1"/>
<path d="M546.692 142.089L550.468 149.488L558.672 150.793L552.802 156.671L554.096 164.876L546.692 161.11L539.288 164.876L540.582 156.671L534.712 150.793L542.916 149.488L546.692 142.089Z" fill="#E9D9E1"/>
<path d="M53.0505 330.938L61.2068 346.92L78.9274 349.738L66.2477 362.434L69.0433 380.158L53.0505 372.023L37.0576 380.158L39.8532 362.434L27.1735 349.738L44.8941 346.92L53.0505 330.938Z" fill="#E9D9E1"/>
<path d="M447.05 64.9375L455.207 80.9199L472.927 83.7382L460.248 96.4342L463.043 114.158L447.05 106.023L431.058 114.158L433.853 96.4342L421.173 83.7382L438.894 80.9199L447.05 64.9375Z" fill="#E9D9E1"/>
<path d="M1049.04 104.803L1057.2 120.785L1074.92 123.603L1062.24 136.299L1065.04 154.024L1049.04 145.888L1033.05 154.024L1035.85 136.299L1023.17 123.603L1040.89 120.785L1049.04 104.803Z" fill="#E9D9E1"/>
</g>
<g opacity="0.2">
<path d="M6.04637 227.746L7.85889 231.298L11.7968 231.924L8.97909 234.745L9.60033 238.684L6.04637 236.876L2.4924 238.684L3.11364 234.745L0.29593 231.924L4.23385 231.298L6.04637 227.746Z" fill="#E9D9E1"/>
<path d="M412.162 223.715L413.974 227.266L417.912 227.893L415.094 230.714L415.716 234.653L412.162 232.845L408.608 234.653L409.229 230.714L406.411 227.893L410.349 227.266L412.162 223.715Z" fill="#E9D9E1"/>
<path d="M1108.5 249.916L1110.31 253.468L1114.25 254.094L1111.43 256.915L1112.06 260.854L1108.5 259.046L1104.95 260.854L1105.57 256.915L1102.75 254.094L1106.69 253.468L1108.5 249.916Z" fill="#E9D9E1"/>
<path d="M1205.24 211.622L1207.05 215.174L1210.99 215.8L1208.17 218.621L1208.8 222.56L1205.24 220.752L1201.69 222.56L1202.31 218.621L1199.49 215.8L1203.43 215.174L1205.24 211.622Z" fill="#E9D9E1"/>
<path d="M269.064 254.955L270.876 258.507L274.814 259.133L271.997 261.954L272.618 265.893L269.064 264.085L265.51 265.893L266.131 261.954L263.314 259.133L267.251 258.507L269.064 254.955Z" fill="#E9D9E1"/>
<path d="M675.177 250.924L676.99 254.475L680.928 255.102L678.11 257.923L678.731 261.862L675.177 260.054L671.623 261.862L672.245 257.923L669.427 255.102L673.365 254.475L675.177 250.924Z" fill="#E9D9E1"/>
<path d="M786.027 230.77L787.839 234.321L791.777 234.947L788.96 237.769L789.581 241.708L786.027 239.9L782.473 241.708L783.094 237.769L780.276 234.947L784.214 234.321L786.027 230.77Z" fill="#E9D9E1"/>
<path d="M917.033 254.955L918.845 258.507L922.783 259.133L919.965 261.954L920.587 265.893L917.033 264.085L913.479 265.893L914.1 261.954L911.282 259.133L915.22 258.507L917.033 254.955Z" fill="#E9D9E1"/>
<path d="M95.7339 242.862L97.5464 246.414L101.484 247.04L98.6666 249.862L99.2878 253.8L95.7339 251.992L92.1799 253.8L92.8011 249.862L89.9834 247.04L93.9213 246.414L95.7339 242.862Z" fill="#E9D9E1"/>
<path d="M501.849 238.831L503.662 242.383L507.6 243.009L504.782 245.83L505.403 249.769L501.849 247.961L498.295 249.769L498.916 245.83L496.099 243.009L500.037 242.383L501.849 238.831Z" fill="#E9D9E1"/>
<path d="M301.31 221.7L303.123 225.252L307.06 225.878L304.243 228.699L304.864 232.638L301.31 230.83L297.756 232.638L298.377 228.699L295.56 225.878L299.498 225.252L301.31 221.7Z" fill="#E9D9E1"/>
<path d="M707.425 217.669L709.238 221.221L713.176 221.847L710.358 224.668L710.979 228.607L707.425 226.799L703.871 228.607L704.493 224.668L701.675 221.847L705.613 221.221L707.425 217.669Z" fill="#E9D9E1"/>
<path d="M818.275 197.515L820.087 201.066L824.025 201.693L821.208 204.514L821.829 208.453L818.275 206.645L814.721 208.453L815.342 204.514L812.524 201.693L816.462 201.066L818.275 197.515Z" fill="#E9D9E1"/>
<path d="M949.281 221.7L951.093 225.252L955.031 225.878L952.213 228.699L952.835 232.638L949.281 230.83L945.727 232.638L946.348 228.699L943.53 225.878L947.468 225.252L949.281 221.7Z" fill="#E9D9E1"/>
<path d="M358.751 270.07L360.564 273.622L364.502 274.248L361.684 277.07L362.305 281.008L358.751 279.2L355.197 281.008L355.819 277.07L353.001 274.248L356.939 273.622L358.751 270.07Z" fill="#E9D9E1"/>
<path d="M764.865 266.04L766.677 269.592L770.615 270.218L767.797 273.039L768.419 276.978L764.865 275.17L761.311 276.978L761.932 273.039L759.114 270.218L763.052 269.592L764.865 266.04Z" fill="#E9D9E1"/>
<path d="M875.716 245.885L877.529 249.436L881.467 250.063L878.649 252.884L879.27 256.823L875.716 255.015L872.162 256.823L872.784 252.884L869.966 250.063L873.904 249.436L875.716 245.885Z" fill="#E9D9E1"/>
<path d="M1006.72 270.07L1008.53 273.622L1012.47 274.248L1009.65 277.07L1010.27 281.008L1006.72 279.2L1003.17 281.008L1003.79 277.07L1000.97 274.248L1004.91 273.622L1006.72 270.07Z" fill="#E9D9E1"/>
<path d="M74.5718 203.561L76.3843 207.112L80.3222 207.738L77.5045 210.56L78.1257 214.499L74.5718 212.691L71.0178 214.499L71.639 210.56L68.8213 207.738L72.7592 207.112L74.5718 203.561Z" fill="#E9D9E1"/>
<path d="M480.687 199.529L482.5 203.081L486.437 203.707L483.62 206.529L484.241 210.467L480.687 208.659L477.133 210.467L477.754 206.529L474.937 203.707L478.874 203.081L480.687 199.529Z" fill="#E9D9E1"/>
<path d="M337.589 230.77L339.402 234.321L343.34 234.947L340.522 237.769L341.143 241.708L337.589 239.9L334.035 241.708L334.657 237.769L331.839 234.947L335.777 234.321L337.589 230.77Z" fill="#E9D9E1"/>
<path d="M743.703 226.738L745.515 230.29L749.453 230.916L746.635 233.738L747.257 237.676L743.703 235.868L740.149 237.676L740.77 233.738L737.952 230.916L741.89 230.29L743.703 226.738Z" fill="#E9D9E1"/>
<path d="M854.554 206.584L856.367 210.136L860.305 210.762L857.487 213.583L858.108 217.522L854.554 215.714L851 217.522L851.621 213.583L848.804 210.762L852.742 210.136L854.554 206.584Z" fill="#E9D9E1"/>
<path d="M985.558 230.77L987.371 234.321L991.309 234.947L988.491 237.769L989.112 241.708L985.558 239.9L982.004 241.708L982.625 237.769L979.808 234.947L983.746 234.321L985.558 230.77Z" fill="#E9D9E1"/>
<path d="M164.259 218.677L166.072 222.228L170.01 222.855L167.192 225.676L167.813 229.615L164.259 227.807L160.705 229.615L161.327 225.676L158.509 222.855L162.447 222.228L164.259 218.677Z" fill="#E9D9E1"/>
<path d="M570.374 214.646L572.187 218.197L576.125 218.823L573.307 221.645L573.928 225.583L570.374 223.776L566.821 225.583L567.442 221.645L564.624 218.823L568.562 218.197L570.374 214.646Z" fill="#E9D9E1"/>
<path d="M50.8896 233.793L54.6657 241.192L62.8696 242.497L56.9994 248.375L58.2937 256.58L50.8896 252.814L43.4855 256.58L44.7797 248.375L38.9095 242.497L47.1135 241.192L50.8896 233.793Z" fill="#E9D9E1"/>
<path d="M457.005 229.762L460.781 237.161L468.985 238.466L463.115 244.344L464.409 252.549L457.005 248.783L449.601 252.549L450.895 244.344L445.025 238.466L453.229 237.161L457.005 229.762Z" fill="#E9D9E1"/>
<path d="M1182.57 249.916L1186.35 257.315L1194.55 258.62L1188.68 264.498L1189.97 272.703L1182.57 268.937L1175.17 272.703L1176.46 264.498L1170.59 258.62L1178.79 257.315L1182.57 249.916Z" fill="#E9D9E1"/>
<path d="M1134.2 216.661L1137.97 224.06L1146.18 225.365L1140.31 231.243L1141.6 239.449L1134.2 235.682L1126.79 239.449L1128.09 231.243L1122.22 225.365L1130.42 224.06L1134.2 216.661Z" fill="#E9D9E1"/>
<path d="M313.907 261.001L317.683 268.4L325.887 269.705L320.017 275.583L321.311 283.788L313.907 280.022L306.503 283.788L307.797 275.583L301.927 269.705L310.131 268.4L313.907 261.001Z" fill="#E9D9E1"/>
<path d="M720.022 256.971L723.798 264.37L732.002 265.675L726.132 271.553L727.426 279.758L720.022 275.992L712.618 279.758L713.913 271.553L708.042 265.675L716.246 264.37L720.022 256.971Z" fill="#E9D9E1"/>
<path d="M830.872 236.815L834.648 244.215L842.852 245.519L836.982 251.397L838.276 259.603L830.872 255.836L823.468 259.603L824.762 251.397L818.892 245.519L827.096 244.215L830.872 236.815Z" fill="#E9D9E1"/>
<path d="M961.876 261.001L965.652 268.4L973.856 269.705L967.986 275.583L969.28 283.788L961.876 280.022L954.472 283.788L955.766 275.583L949.896 269.705L958.1 268.4L961.876 261.001Z" fill="#E9D9E1"/>
<path d="M140.579 248.908L144.355 256.307L152.559 257.612L146.689 263.49L147.983 271.696L140.579 267.929L133.175 271.696L134.469 263.49L128.599 257.612L136.803 256.307L140.579 248.908Z" fill="#E9D9E1"/>
<path d="M546.692 244.878L550.468 252.277L558.672 253.582L552.802 259.46L554.096 267.665L546.692 263.899L539.288 267.665L540.582 259.46L534.712 253.582L542.916 252.277L546.692 244.878Z" fill="#E9D9E1"/>
<path opacity="0.6" d="M226.738 160.938L234.894 176.92L252.615 179.738L239.935 192.434L242.731 210.158L226.738 202.023L210.745 210.158L213.541 192.434L200.861 179.738L218.582 176.92L226.738 160.938Z" fill="#E9D9E1"/>
<path d="M632.853 215.653L641.01 231.636L658.73 234.454L646.05 247.15L648.846 264.874L632.853 256.738L616.86 264.874L619.656 247.15L606.976 234.454L624.697 231.636L632.853 215.653Z" fill="#E9D9E1"/>
<path d="M1049.04 207.592L1057.2 223.574L1074.92 226.393L1062.24 239.088L1065.04 256.813L1049.04 248.677L1033.05 256.813L1035.85 239.088L1023.17 226.393L1040.89 223.574L1049.04 207.592Z" fill="#E9D9E1"/>
</g>
</svg>
