<svg width="1202" height="88" viewBox="0 0 1202 88" fill="none" xmlns="http://www.w3.org/2000/svg">
<g opacity="0.1">
<path d="M6 30L7.79862 33.5244L11.7063 34.1459L8.91023 36.9456L9.52671 40.8541L6 39.06L2.47329 40.8541L3.08977 36.9456L0.293661 34.1459L4.20138 33.5244L6 30Z" fill="white"/>
<path d="M409 26L410.799 29.5244L414.706 30.1459L411.91 32.9456L412.527 36.8541L409 35.06L405.473 36.8541L406.09 32.9456L403.294 30.1459L407.201 29.5244L409 26Z" fill="white"/>
<path d="M1100 52L1101.8 55.5244L1105.71 56.1459L1102.91 58.9456L1103.53 62.8541L1100 61.06L1096.47 62.8541L1097.09 58.9456L1094.29 56.1459L1098.2 55.5244L1100 52Z" fill="white"/>
<path d="M1196 14L1197.8 17.5244L1201.71 18.1459L1198.91 20.9456L1199.53 24.8541L1196 23.06L1192.47 24.8541L1193.09 20.9456L1190.29 18.1459L1194.2 17.5244L1196 14Z" fill="white"/>
<path d="M267 57L268.799 60.5244L272.706 61.1459L269.91 63.9456L270.527 67.8541L267 66.06L263.473 67.8541L264.09 63.9456L261.294 61.1459L265.201 60.5244L267 57Z" fill="white"/>
<path d="M670 53L671.799 56.5244L675.706 57.1459L672.91 59.9456L673.527 63.8541L670 62.06L666.473 63.8541L667.09 59.9456L664.294 57.1459L668.201 56.5244L670 53Z" fill="white"/>
<path d="M780 33L781.799 36.5244L785.706 37.1459L782.91 39.9456L783.527 43.8541L780 42.06L776.473 43.8541L777.09 39.9456L774.294 37.1459L778.201 36.5244L780 33Z" fill="white"/>
<path d="M910 57L911.799 60.5244L915.706 61.1459L912.91 63.9456L913.527 67.8541L910 66.06L906.473 67.8541L907.09 63.9456L904.294 61.1459L908.201 60.5244L910 57Z" fill="white"/>
<path d="M95 45L96.7986 48.5244L100.706 49.1459L97.9102 51.9456L98.5267 55.8541L95 54.06L91.4733 55.8541L92.0898 51.9456L89.2937 49.1459L93.2014 48.5244L95 45Z" fill="white"/>
<path d="M498 41L499.799 44.5244L503.706 45.1459L500.91 47.9456L501.527 51.8541L498 50.06L494.473 51.8541L495.09 47.9456L492.294 45.1459L496.201 44.5244L498 41Z" fill="white"/>
<path d="M299 24L300.799 27.5244L304.706 28.1459L301.91 30.9456L302.527 34.8541L299 33.06L295.473 34.8541L296.09 30.9456L293.294 28.1459L297.201 27.5244L299 24Z" fill="white"/>
<path d="M702 20L703.799 23.5244L707.706 24.1459L704.91 26.9456L705.527 30.8541L702 29.06L698.473 30.8541L699.09 26.9456L696.294 24.1459L700.201 23.5244L702 20Z" fill="white"/>
<path d="M812 0L813.799 3.52441L817.706 4.1459L814.91 6.94559L815.527 10.8541L812 9.06L808.473 10.8541L809.09 6.94559L806.294 4.1459L810.201 3.52441L812 0Z" fill="white"/>
<path d="M942 24L943.799 27.5244L947.706 28.1459L944.91 30.9456L945.527 34.8541L942 33.06L938.473 34.8541L939.09 30.9456L936.294 28.1459L940.201 27.5244L942 24Z" fill="white"/>
<path d="M356 72L357.799 75.5244L361.706 76.1459L358.91 78.9456L359.527 82.8541L356 81.06L352.473 82.8541L353.09 78.9456L350.294 76.1459L354.201 75.5244L356 72Z" fill="white"/>
<path d="M759 68L760.799 71.5244L764.706 72.1459L761.91 74.9456L762.527 78.8541L759 77.06L755.473 78.8541L756.09 74.9456L753.294 72.1459L757.201 71.5244L759 68Z" fill="white"/>
<path d="M869 48L870.799 51.5244L874.706 52.1459L871.91 54.9456L872.527 58.8541L869 57.06L865.473 58.8541L866.09 54.9456L863.294 52.1459L867.201 51.5244L869 48Z" fill="white"/>
<path d="M999 72L1000.8 75.5244L1004.71 76.1459L1001.91 78.9456L1002.53 82.8541L999 81.06L995.473 82.8541L996.09 78.9456L993.294 76.1459L997.201 75.5244L999 72Z" fill="white"/>
<path d="M74 6L75.7986 9.52441L79.7063 10.1459L76.9102 12.9456L77.5267 16.8541L74 15.06L70.4733 16.8541L71.0898 12.9456L68.2937 10.1459L72.2014 9.52441L74 6Z" fill="white"/>
<path d="M477 2L478.799 5.52441L482.706 6.1459L479.91 8.94559L480.527 12.8541L477 11.06L473.473 12.8541L474.09 8.94559L471.294 6.1459L475.201 5.52441L477 2Z" fill="white"/>
<path d="M335 33L336.799 36.5244L340.706 37.1459L337.91 39.9456L338.527 43.8541L335 42.06L331.473 43.8541L332.09 39.9456L329.294 37.1459L333.201 36.5244L335 33Z" fill="white"/>
<path d="M738 29L739.799 32.5244L743.706 33.1459L740.91 35.9456L741.527 39.8541L738 38.06L734.473 39.8541L735.09 35.9456L732.294 33.1459L736.201 32.5244L738 29Z" fill="white"/>
<path d="M848 9L849.799 12.5244L853.706 13.1459L850.91 15.9456L851.527 19.8541L848 18.06L844.473 19.8541L845.09 15.9456L842.294 13.1459L846.201 12.5244L848 9Z" fill="white"/>
<path d="M978 33L979.799 36.5244L983.706 37.1459L980.91 39.9456L981.527 43.8541L978 42.06L974.473 43.8541L975.09 39.9456L972.294 37.1459L976.201 36.5244L978 33Z" fill="white"/>
<path d="M163 21L164.799 24.5244L168.706 25.1459L165.91 27.9456L166.527 31.8541L163 30.06L159.473 31.8541L160.09 27.9456L157.294 25.1459L161.201 24.5244L163 21Z" fill="white"/>
<path d="M566 17L567.799 20.5244L571.706 21.1459L568.91 23.9456L569.527 27.8541L566 26.06L562.473 27.8541L563.09 23.9456L560.294 21.1459L564.201 20.5244L566 17Z" fill="white"/>
<path d="M50.5 36L54.2471 43.3425L62.3882 44.6373L56.563 50.47L57.8473 58.6127L50.5 54.875L43.1527 58.6127L44.437 50.47L38.6118 44.6373L46.7529 43.3425L50.5 36Z" fill="white"/>
<path d="M453.5 32L457.247 39.3425L465.388 40.6373L459.563 46.47L460.847 54.6127L453.5 50.875L446.153 54.6127L447.437 46.47L441.612 40.6373L449.753 39.3425L453.5 32Z" fill="white"/>
<path d="M1173.5 52L1177.25 59.3425L1185.39 60.6373L1179.56 66.47L1180.85 74.6127L1173.5 70.875L1166.15 74.6127L1167.44 66.47L1161.61 60.6373L1169.75 59.3425L1173.5 52Z" fill="white"/>
<path d="M1125.5 19L1129.25 26.3425L1137.39 27.6373L1131.56 33.47L1132.85 41.6127L1125.5 37.875L1118.15 41.6127L1119.44 33.47L1113.61 27.6373L1121.75 26.3425L1125.5 19Z" fill="white"/>
<path d="M311.5 63L315.247 70.3425L323.388 71.6373L317.563 77.47L318.847 85.6127L311.5 81.875L304.153 85.6127L305.437 77.47L299.612 71.6373L307.753 70.3425L311.5 63Z" fill="white"/>
<path d="M714.5 59L718.247 66.3425L726.388 67.6373L720.563 73.47L721.847 81.6127L714.5 77.875L707.153 81.6127L708.437 73.47L702.612 67.6373L710.753 66.3425L714.5 59Z" fill="white"/>
<path d="M824.5 39L828.247 46.3425L836.388 47.6373L830.563 53.47L831.847 61.6127L824.5 57.875L817.153 61.6127L818.437 53.47L812.612 47.6373L820.753 46.3425L824.5 39Z" fill="white"/>
<path d="M954.5 63L958.247 70.3425L966.388 71.6373L960.563 77.47L961.847 85.6127L954.5 81.875L947.153 85.6127L948.437 77.47L942.612 71.6373L950.753 70.3425L954.5 63Z" fill="white"/>
<path d="M139.5 51L143.247 58.3425L151.388 59.6373L145.563 65.47L146.847 73.6127L139.5 69.875L132.153 73.6127L133.437 65.47L127.612 59.6373L135.753 58.3425L139.5 51Z" fill="white"/>
<path d="M542.5 47L546.247 54.3425L554.388 55.6373L548.563 61.47L549.847 69.6127L542.5 65.875L535.153 69.6127L536.437 61.47L530.612 55.6373L538.753 54.3425L542.5 47Z" fill="white"/>
<path d="M225 22L233.094 37.8598L250.679 40.6565L238.096 53.2552L240.87 70.8435L225 62.77L209.13 70.8435L211.904 53.2552L199.321 40.6565L216.906 37.8598L225 22Z" fill="white"/>
<path d="M628 18L636.094 33.8598L653.679 36.6565L641.096 49.2552L643.87 66.8435L628 58.77L612.13 66.8435L614.904 49.2552L602.321 36.6565L619.906 33.8598L628 18Z" fill="white"/>
<path d="M1041 10L1049.09 25.8598L1066.68 28.6565L1054.1 41.2552L1056.87 58.8435L1041 50.77L1025.13 58.8435L1027.9 41.2552L1015.32 28.6565L1032.91 25.8598L1041 10Z" fill="white"/>
</g>
</svg>
