<svg width="26" height="13" viewBox="0 0 26 13" fill="none" xmlns="http://www.w3.org/2000/svg">
<path d="M25.7992 6.57328C25.7993 7.75473 25.449 8.90968 24.7927 9.89205C24.1363 10.8744 23.2034 11.6401 22.1119 12.0922C21.0204 12.5444 19.8193 12.6627 18.6605 12.4321C17.5018 12.2016 16.4374 11.6327 15.6021 10.7972L15.5701 10.7545L9.17017 3.54399C8.77705 3.15001 8.30978 2.83781 7.79533 2.62544C7.28087 2.41307 6.72944 2.30473 6.17288 2.30668C5.04131 2.30668 3.95609 2.7562 3.15595 3.55634C2.35581 4.35648 1.90629 5.4417 1.90629 6.57328C1.90629 7.70485 2.35581 8.79007 3.15595 9.59021C3.95609 10.3904 5.04131 10.8399 6.17288 10.8399C6.72944 10.8418 7.28087 10.7335 7.79533 10.5211C8.30978 10.3087 8.77705 9.99654 9.17017 9.60256L10.0768 8.57857C10.2268 8.40884 10.438 8.30562 10.664 8.29161C10.8901 8.27761 11.1124 8.35398 11.2821 8.50391C11.4519 8.65384 11.5551 8.86506 11.5691 9.0911C11.5831 9.31714 11.5067 9.53949 11.3568 9.70922L10.4288 10.7545L10.3968 10.7972C9.84214 11.3519 9.18363 11.792 8.45888 12.0922C7.73414 12.3924 6.95735 12.5469 6.17288 12.5469C5.38842 12.5469 4.61163 12.3924 3.88689 12.0922C3.16214 11.792 2.50363 11.3519 1.94896 10.7972C1.1135 9.96183 0.544533 8.89746 0.314019 7.73871C0.0835048 6.57996 0.201796 5.37888 0.653931 4.28736C1.10607 3.19584 1.87174 2.26292 2.85411 1.60658C3.83648 0.950236 4.99143 0.599958 6.17288 0.600043C6.95775 0.597055 7.73538 0.750172 8.46053 1.05049C9.18568 1.3508 9.84387 1.79232 10.3968 2.34935L10.4288 2.39201L16.8287 9.60256C17.2218 9.99654 17.6891 10.3087 18.2035 10.5211C18.718 10.7335 19.2694 10.8418 19.826 10.8399C20.9576 10.8399 22.0428 10.3904 22.8429 9.59021C23.6431 8.79007 24.0926 7.70485 24.0926 6.57328C24.0926 5.4417 23.6431 4.35648 22.8429 3.55634C22.0428 2.7562 20.9576 2.30668 19.826 2.30668C19.2694 2.30473 18.718 2.41307 18.2035 2.62544C17.6891 2.83781 17.2218 3.15001 16.8287 3.54399L15.9221 4.56798C15.7721 4.73771 15.5609 4.84093 15.3349 4.85494C15.1088 4.86894 14.8865 4.79257 14.7167 4.64264C14.547 4.49271 14.4438 4.28149 14.4298 4.05545C14.4158 3.82941 14.4921 3.60706 14.6421 3.43733L15.5701 2.39201L15.6021 2.34935C16.4374 1.51389 17.5018 0.944924 18.6605 0.71441C19.8193 0.483895 21.0204 0.602186 22.1119 1.05432C23.2034 1.50646 24.1363 2.27213 24.7927 3.2545C25.449 4.23687 25.7993 5.39182 25.7992 6.57328V6.57328Z" fill="white"/>
</svg>
