<svg width="73" height="66" viewBox="0 0 73 66" fill="none" xmlns="http://www.w3.org/2000/svg">
<path d="M36.4995 19.4277H0.923828L11.6733 1H36.4995H61.3257L72.0752 19.4277H36.4995Z" stroke="#D61164"/>
<path d="M18.8396 19.6836C18.8396 24.7723 14.8291 28.8974 9.88174 28.8974C4.93442 28.8974 0.923828 24.7723 0.923828 19.6836" stroke="#D61164"/>
<path d="M54.16 19.6836C54.16 24.7723 50.1494 28.8974 45.202 28.8974C40.2547 28.8974 36.2441 24.7723 36.2441 19.6836" stroke="#D61164"/>
<path d="M36.2438 19.6836C36.2438 24.7723 32.3478 28.8974 27.5418 28.8974C22.7358 28.8974 18.8398 24.7723 18.8398 19.6836" stroke="#D61164"/>
<path d="M72.076 19.6836C72.076 24.7723 68.0654 28.8974 63.1181 28.8974C58.1707 28.8974 54.1602 24.7723 54.1602 19.6836" stroke="#D61164"/>
<path d="M6.55273 28.8984V61.1469H13.783V36.0648H28.2437V61.1469H35.474H64.3952V28.8984" stroke="#D61164"/>
<circle cx="55.4385" cy="49.6299" r="15.6124" fill="#D61164"/>
<path d="M55.4395 42.2051V57.0496" stroke="white"/>
<path d="M62.8613 49.627L48.0168 49.627" stroke="white"/>
</svg>
