<svg width="61" height="66" viewBox="0 0 61 66" fill="none" xmlns="http://www.w3.org/2000/svg">
<rect x="1" y="1" width="51" height="51" stroke="#D61164"/>
<path d="M8 39H21" stroke="#D61164"/>
<path d="M30 1H44V15L37 9.5L30 15V1Z" stroke="#D61164"/>
<circle cx="44.6124" cy="49.6124" r="15.6124" fill="#F5F3F5"/>
<path d="M40.9989 47.2776C38.9036 49.3729 39.0747 50.3887 38.7784 51.2776C37.4451 54.3887 34.7767 53.0554 33.8878 51.7221C32.9989 50.3887 31.7612 46.2365 34.7767 43.7221C37.4427 41.4991 40.1101 42.3887 40.9989 42.8332C41.8878 43.2776 42.8837 45.3929 40.9989 47.2776Z" fill="#D71568"/>
<path d="M41.4825 51.2767C41.8381 52.3434 43.853 52.9063 44.5938 53.0545C45.3345 52.9063 47.3493 52.3434 47.7049 51.2767C48.0604 50.21 45.7788 49.9434 44.5936 49.9434C43.4084 49.9434 41.1269 50.21 41.4825 51.2767Z" fill="#D71568"/>
<path d="M40.1118 45.9436C40.1118 46.4345 39.7138 46.8325 39.2229 46.8325C38.732 46.8325 38.334 46.4345 38.334 45.9436C38.334 45.4527 38.732 45.0547 39.2229 45.0547C39.7138 45.0547 40.1118 45.4527 40.1118 45.9436Z" fill="#F8F1F4"/>
<path fill-rule="evenodd" clip-rule="evenodd" d="M45 64.6102C53.1002 64.6102 59.6667 58.0438 59.6667 49.9436C59.6667 41.8434 53.1002 35.2769 45 35.2769C36.8998 35.2769 30.3333 41.8434 30.3333 49.9436C30.3333 58.0438 36.8998 64.6102 45 64.6102ZM45 65.9436C53.8366 65.9436 61 58.7801 61 49.9436C61 41.107 53.8366 33.9436 45 33.9436C36.1634 33.9436 29 41.107 29 49.9436C29 58.7801 36.1634 65.9436 45 65.9436Z" fill="#D71568"/>
<path d="M34.3333 33.0547C31.8787 33.0547 29.8889 35.0445 29.8889 37.4991C29.8889 38.9532 30.5872 40.2442 31.6667 41.055L38.408 35.7214C37.7221 34.1517 36.1558 33.0547 34.3333 33.0547Z" fill="#D71568"/>
<path d="M55.4036 33.0547C57.8582 33.0547 59.8481 35.0445 59.8481 37.4991C59.8481 38.9532 59.1498 40.2442 58.0703 41.055L51.329 35.7214C52.0148 34.1517 53.5811 33.0547 55.4036 33.0547Z" fill="#D71568"/>
<path d="M48.7374 47.2776C50.8327 49.3729 50.6616 50.3887 50.9579 51.2776C52.2912 54.3887 54.9596 53.0554 55.8485 51.7221C56.7374 50.3887 57.9752 46.2365 54.9596 43.7221C52.2936 41.4991 49.6263 42.3887 48.7374 42.8332C47.8485 43.2776 46.8527 45.3929 48.7374 47.2776Z" fill="#D71568"/>
<path d="M49.6246 45.9436C49.6246 46.4345 50.0225 46.8325 50.5135 46.8325C51.0044 46.8325 51.4023 46.4345 51.4023 45.9436C51.4023 45.4527 51.0044 45.0547 50.5135 45.0547C50.0225 45.0547 49.6246 45.4527 49.6246 45.9436Z" fill="#F8F1F4"/>
<path d="M40.9245 56.1664C41.6103 57.7361 43.1766 58.8331 44.9991 58.8331C46.8216 58.8331 48.3879 57.7361 49.0738 56.1664C49.3116 55.622 49.4436 55.0208 49.4436 54.3887H40.5547C40.5547 55.0208 40.6866 55.622 40.9245 56.1664Z" fill="#D71568"/>
</svg>
