<svg width="78" height="74" viewBox="0 0 78 74" fill="none" xmlns="http://www.w3.org/2000/svg">
<path d="M67.0562 25.5392C62.9897 17.7667 55.808 11.6549 46.6669 9.20552C29.3293 4.55991 11.5083 14.8488 6.86272 32.1865C4.41338 41.3276 6.11555 50.603 10.8135 58.011M67.0562 25.5392L56.1893 22.6267M67.0562 25.5392L69.9682 14.6714" stroke="#3DD8DF"/>
<path d="M13.9999 62.5008C19.9395 68.956 28.4583 73.0008 37.9219 73.0008C55.8711 73.0008 70.4219 58.4501 70.4219 40.5008C70.4219 37.182 69.9244 33.9794 69 30.9635M13.9999 62.5008L25.2503 62.5016M13.9999 62.5008V73.752" stroke="#3DD8DF"/>
<circle cx="61.6124" cy="57.6124" r="15.6124" fill="#3DD8DF"/>
<path d="M60.692 64.56V52.34H61.524V64.56H60.692ZM61.017 63.104C60.3237 63.104 59.6607 63 59.028 62.792C58.3953 62.5753 57.897 62.298 57.533 61.96L58.014 60.946C58.3607 61.2493 58.8027 61.5007 59.34 61.7C59.8773 61.8993 60.4363 61.999 61.017 61.999C61.5457 61.999 61.9747 61.9383 62.304 61.817C62.6333 61.6957 62.876 61.531 63.032 61.323C63.188 61.1063 63.266 60.8637 63.266 60.595C63.266 60.283 63.162 60.0317 62.954 59.841C62.7547 59.6503 62.4903 59.4987 62.161 59.386C61.8403 59.2647 61.485 59.1607 61.095 59.074C60.705 58.9873 60.3107 58.8877 59.912 58.775C59.522 58.6537 59.1623 58.502 58.833 58.32C58.5123 58.138 58.2523 57.8953 58.053 57.592C57.8537 57.28 57.754 56.8813 57.754 56.396C57.754 55.928 57.8753 55.499 58.118 55.109C58.3693 54.7103 58.7507 54.394 59.262 54.16C59.782 53.9173 60.4407 53.796 61.238 53.796C61.7667 53.796 62.291 53.8653 62.811 54.004C63.331 54.1427 63.7817 54.342 64.163 54.602L63.734 55.642C63.344 55.382 62.9323 55.1957 62.499 55.083C62.0657 54.9617 61.6453 54.901 61.238 54.901C60.7267 54.901 60.3063 54.966 59.977 55.096C59.6477 55.226 59.405 55.3993 59.249 55.616C59.1017 55.8327 59.028 56.0753 59.028 56.344C59.028 56.6647 59.1277 56.9203 59.327 57.111C59.535 57.3017 59.7993 57.4533 60.12 57.566C60.4493 57.6787 60.809 57.7827 61.199 57.878C61.589 57.9647 61.979 58.0643 62.369 58.177C62.7677 58.2897 63.1273 58.437 63.448 58.619C63.7773 58.801 64.0417 59.0437 64.241 59.347C64.4403 59.6503 64.54 60.0403 64.54 60.517C64.54 60.9763 64.4143 61.4053 64.163 61.804C63.9117 62.194 63.5217 62.5103 62.993 62.753C62.473 62.987 61.8143 63.104 61.017 63.104Z" fill="white"/>
</svg>
