<svg width="66" height="61" viewBox="0 0 66 61" fill="none" xmlns="http://www.w3.org/2000/svg">
<path d="M35.9395 1V56.1837" stroke="#D61164"/>
<path d="M65 18.959L33 18.959" stroke="#D61164"/>
<path d="M65 25.1641L33 25.1641" stroke="#D61164"/>
<path d="M65 32.0195L33 32.0195" stroke="#D61164"/>
<path d="M56.0211 5.57143H49.0007L35.9395 18.6327V25M65.0007 5.40816C65.0007 7.84272 63.0271 9.81633 60.5925 9.81633C58.158 9.81633 56.1844 7.84272 56.1844 5.40816C56.1844 2.9736 58.158 1 60.5925 1C63.0271 1 65.0007 2.9736 65.0007 5.40816Z" stroke="#D61164"/>
<path d="M56.0211 51.4481H49.0007L35.9395 38.3869V32.0195M65.0007 51.6114C65.0007 49.1768 63.0271 47.2032 60.5925 47.2032C58.158 47.2032 56.1844 49.1768 56.1844 51.6114C56.1844 54.0459 58.158 56.0195 60.5925 56.0195C63.0271 56.0195 65.0007 54.0459 65.0007 51.6114Z" stroke="#D61164"/>
<path d="M30.0605 1V56.1837" stroke="#D61164"/>
<path d="M1 18.959L33 18.959" stroke="#D61164"/>
<path d="M1 25.1641L33 25.1641" stroke="#D61164"/>
<path d="M1 32.0195L33 32.0195" stroke="#D61164"/>
<path d="M9.97891 5.57143H16.9993L30.0605 18.6327V25M0.999323 5.40816C0.999323 7.84272 2.97292 9.81633 5.40749 9.81633C7.84205 9.81633 9.81565 7.84272 9.81565 5.40816C9.81565 2.9736 7.84205 1 5.40749 1C2.97292 1 0.999323 2.9736 0.999323 5.40816Z" stroke="#D61164"/>
<path d="M9.97891 51.4481H16.9993L30.0605 38.3869V32.0195M0.999323 51.6114C0.999323 49.1768 2.97292 47.2032 5.40749 47.2032C7.84205 47.2032 9.81565 49.1768 9.81565 51.6114C9.81565 54.0459 7.84205 56.0195 5.40749 56.0195C2.97292 56.0195 0.999323 54.0459 0.999323 51.6114Z" stroke="#D61164"/>
<g filter="url(#filter0_d_244_61392)">
<circle cx="32.6124" cy="28.6124" r="15.6124" fill="#D61164"/>
</g>
<path d="M22.989 32L26.476 24.3H27.565L31.063 32H29.908L26.795 24.916H27.235L24.122 32H22.989ZM24.474 30.075L24.771 29.195H29.105L29.424 30.075H24.474ZM32.2116 32V24.3H35.2146C35.8893 24.3 36.465 24.4063 36.9416 24.619C37.4183 24.8317 37.785 25.1397 38.0416 25.543C38.2983 25.9463 38.4266 26.4267 38.4266 26.984C38.4266 27.5413 38.2983 28.0217 38.0416 28.425C37.785 28.821 37.4183 29.129 36.9416 29.349C36.465 29.5617 35.8893 29.668 35.2146 29.668H32.8166L33.3116 29.151V32H32.2116ZM33.3116 29.261L32.8166 28.711H35.1816C35.8856 28.711 36.4173 28.5607 36.7766 28.26C37.1433 27.9593 37.3266 27.534 37.3266 26.984C37.3266 26.434 37.1433 26.0087 36.7766 25.708C36.4173 25.4073 35.8856 25.257 35.1816 25.257H32.8166L33.3116 24.707V29.261ZM40.0427 32V24.3H41.1427V32H40.0427Z" fill="white"/>
<defs>
<filter id="filter0_d_244_61392" x="5" y="5" width="55.2246" height="55.2246" filterUnits="userSpaceOnUse" color-interpolation-filters="sRGB">
<feFlood flood-opacity="0" result="BackgroundImageFix"/>
<feColorMatrix in="SourceAlpha" type="matrix" values="0 0 0 0 0 0 0 0 0 0 0 0 0 0 0 0 0 0 127 0" result="hardAlpha"/>
<feOffset dy="4"/>
<feGaussianBlur stdDeviation="6"/>
<feComposite in2="hardAlpha" operator="out"/>
<feColorMatrix type="matrix" values="0 0 0 0 0.707049 0 0 0 0 0.644097 0 0 0 0 0.729167 0 0 0 1 0"/>
<feBlend mode="normal" in2="BackgroundImageFix" result="effect1_dropShadow_244_61392"/>
<feBlend mode="normal" in="SourceGraphic" in2="effect1_dropShadow_244_61392" result="shape"/>
</filter>
</defs>
</svg>
