<svg width="29" height="26" viewBox="0 0 29 26" fill="none" xmlns="http://www.w3.org/2000/svg">
<circle cx="2.73913" cy="16.7391" r="2.73913" fill="#584659"/>
<path fill-rule="evenodd" clip-rule="evenodd" d="M4 24V18H2V26H17V20L15 19.2V24H4Z" fill="#584659"/>
<circle cx="7.91296" cy="16.7391" r="2.73913" fill="#584659"/>
<circle cx="13.0868" cy="16.7391" r="2.73913" fill="#584659"/>
<path d="M19.4783 12.9346L21 16.1302H0L1.67391 12.9346H19.4783Z" fill="#584659"/>
<rect x="2" y="9" width="8" height="2" fill="#584659"/>
<circle cx="19" cy="10" r="10" fill="#F8F1F4"/>
<path d="M23 9.7931C23 12.9925 20.3137 15.5862 17 15.5862C13.6863 15.5862 11 12.9925 11 9.7931C11 6.59366 13.6863 4 17 4C20.3137 4 23 6.59366 23 9.7931Z" fill="#584659"/>
<path d="M17 18L12.8715 13.9968L17 11.2414L21.4722 13.6552L17 18Z" fill="#584659"/>
<circle cx="17" cy="10" r="3" fill="#F8F1F4"/>
</svg>
