<svg width="21" height="20" viewBox="0 0 21 20" fill="none" xmlns="http://www.w3.org/2000/svg">
<path fill-rule="evenodd" clip-rule="evenodd" d="M16.0702 6.02126C16.1301 6.00245 16.2088 6.04007 16.2875 6.1435C16.2875 6.1435 16.2875 6.1435 19.8449 9.61005C20.0526 9.81691 20.0526 10.1303 19.8449 10.2839C19.8449 10.2839 19.8449 10.2839 16.2875 13.8038C16.2088 13.9072 16.1301 13.9323 16.0702 13.9009C16.0104 13.8696 15.9727 13.7787 15.9727 13.647V6.24693C15.9727 6.11842 16.0104 6.04007 16.0702 6.02126Z" fill="#584659"/>
<path fill-rule="evenodd" clip-rule="evenodd" d="M9.98413 0.244141H10.236L10.4784 0.344439C10.4784 0.344439 10.4784 0.344439 14.1397 3.9677C14.2971 4.17457 14.2436 4.33128 13.9823 4.33128C13.9823 4.33128 13.9823 4.33128 12.4649 4.33128C12.2036 4.33128 11.9958 4.53815 11.9958 4.7983C11.9958 4.7983 11.9958 4.7983 11.9958 7.48754C11.9958 7.74769 11.7849 7.95455 11.4701 7.95455C11.4701 7.95455 11.4701 7.95455 8.80359 7.95455C8.54229 7.95455 8.33137 7.74769 8.33137 7.48754C8.33137 7.48754 8.33137 7.48754 8.33137 4.7983C8.33137 4.53815 8.12359 4.33128 7.85915 4.33128H6.23786C5.97656 4.33128 5.92305 4.17457 6.08045 3.9677C6.08045 3.9677 6.08045 3.96771 9.74488 0.344439L9.98413 0.244141Z" fill="#584659"/>
<path fill-rule="evenodd" clip-rule="evenodd" d="M4.24874 5.94231C4.31485 5.97365 4.35577 6.06455 4.35577 6.19619V13.7499C4.35577 13.8815 4.31485 13.9599 4.24874 13.985C4.18577 14.01 4.09448 13.985 3.98744 13.9066C3.98744 13.9066 3.98744 13.9066 0.376536 10.2833C0.168759 10.1298 0.168759 9.81632 0.376536 9.60946C0.376536 9.60946 0.376536 9.60946 3.98744 6.03947C4.09448 5.93604 4.18577 5.91097 4.24874 5.94231Z" fill="#584659"/>
<path fill-rule="evenodd" clip-rule="evenodd" d="M8.80312 11.8887C8.80312 11.8887 8.80312 11.8887 11.4696 11.8887C11.7844 11.8887 11.9953 12.0955 11.9953 12.3557C11.9953 12.3557 11.9953 12.3557 11.9953 15.2016C11.9953 15.5119 12.2031 15.7188 12.4644 15.7188H13.8779C14.1392 15.7188 14.2431 15.8724 14.0353 16.0291C14.0353 16.0291 14.0353 16.0291 10.4779 19.5991C10.3709 19.7025 10.2418 19.7558 10.1096 19.7558C9.98052 19.7558 9.8483 19.7025 9.74441 19.5991C9.74441 19.5991 9.74441 19.5991 6.18703 16.0291C5.9761 15.8724 6.07999 15.7188 6.34128 15.7188C6.34128 15.7188 6.34128 15.7188 7.85868 15.7188C8.12313 15.7188 8.3309 15.5119 8.3309 15.2016C8.3309 15.2016 8.3309 15.2016 8.3309 12.3557C8.3309 12.0955 8.54183 11.8887 8.80312 11.8887Z" fill="#584659"/>
</svg>
