<svg xmlns="http://www.w3.org/2000/svg" height="54" width="42" viewBox="0 0 236.25 310.1"><g id="Слой_2" data-name="Слой 2"><g id="Layer_1" data-name="Layer 1"><path d="M236.1,216.59l.05-1.22c1.16-30.65-12.45-53.43-24.14-67.18a38.29,38.29,0,0,0-3.17-3.83A140.3,140.3,0,0,0,193,130.14c8.42-13.56,12.23-28.51,10.22-40.84,0-.12-.54-3-1.67-7.12C198,62.37,197.2,60.84,196.76,60c-1-1.92-2.86-3.09-7.44-4.59l-.62-.92a34.09,34.09,0,0,0,6.38-22c-.61-8.92-2.62-15.88-10.79-23a37,37,0,0,0-24-9.51,33.31,33.31,0,0,0-11,1.88,31.45,31.45,0,0,0-17.08,15,98.42,98.42,0,0,0-10.12-1.29l1.41-2.43a5,5,0,0,0-6.48-7l-13.63,6.51A5,5,0,0,0,96.65,10l-3.12,1.44c-.61.28-15.09,6.92-26.23,11.38q-2.47,1-4.68,2c-2.68-2.79-7.67-6.62-16.47-8A25.73,25.73,0,0,0,42,16.39c-13.22,0-29.58,7.83-32.17,29.9-1,8.67,2.08,19.54,10.76,26l-.09.21c-.46,1.14-1.1,2.71.21,20.16a93.86,93.86,0,0,0,.43,23c0,.16,0,.3,0,.41s0,.24,0,.38,0,.15,0,.23a46.57,46.57,0,0,0,1.64,7.94c0,.18.08.36.14.55a52.29,52.29,0,0,0,4.36,10,51,51,0,0,0,3.73,6C21.59,150.4,1,174.56.34,210.17,0,214.82,0,215,0,215.34a6,6,0,0,0,.08.73c-.17,8.62.47,21.17,4.27,33.34,6,19,22.37,40.73,39.79,45.79.13,3.89.25,6.83.37,8.76a5,5,0,0,0,3.13,4.33c1.21.48,2.58,1,136.88,1.81h1c.24,0,.49,0,.73-.05l2-.07a5,5,0,0,0,4.82-4.94l.08-6.59c18.11-2.87,34.24-26.53,39.74-48.92A115.64,115.64,0,0,0,236.1,216.59Z" fill="#fff"/><text transform="translate(60.72 283.09) scale(0.79 1)" font-size="92.47" fill="#d61164" font-family="AgencyFB-Bold, Agency FB" font-weight="700">20%</text><path d="M99.34,123.81a10,10,0,0,0,9.86-3.17s2.84,3,8.6,3.25c8.44.34,11.53-7.51,11.53-7.51s-4.51,4.76-10.94,4.26-7.1-7.52-6.69-9.94a2.2,2.2,0,0,1,1.49-2c1.5-.58,7.74-4,9-6.45,1.69-3.26-1.09-10.15-12.28-9.9-4.35.1-7.67,1-10.67,3.78s-3.6,6.68.5,8.85,7.85,4,7.85,6.44-1.67,7.68-5,9.1-10-1.5-11-6.43C91.63,114.12,92.91,122.47,99.34,123.81Z" fill="#d61164"/><path d="M103.27,128.57c6.45,11.27,13.78.33,13.78.33A12.59,12.59,0,0,1,103.27,128.57Z" fill="#d61164"/><path d="M230.13,216.64l.06-1.46c1.13-29.88-12.84-51.89-23.09-63.91a34,34,0,0,0-2.89-3.51,148.86,148.86,0,0,0-19-16.47c9.43-13.38,14-28.91,12.05-41.11,0,0-.51-2.82-1.63-6.9-.44-2.5-3.43-19.31-4.29-20.89-.42-.8-3.2-1.81-6.24-2.73-1.17-1.83-2.38-3.59-3.63-5.24,5.49-6.52,8.14-14,7.62-21.59-.57-8.33-2.38-13.72-9.09-19.54C172.34,6.58,161.5,2.59,150,6.6c-8.4,2.92-13.53,10-15.89,15.94a95.71,95.71,0,0,0-20.61-2.26h-.87l5.61-9.65-20.93,10,.5-6.13-3.12,1.44c-.14.06-15,6.88-26.47,11.48-2.62,1.05-5.25,2.2-7.84,3.52-.65-.28-3.85-7.32-16-9.29-7.19-1.17-27.74,1-30.58,25.23-1,8.39,2.84,19.93,13.88,24.28-1.86,1.41-3.29,2.66-3.54,3.27-.62,1.53.3,14.53.59,18.33A89.5,89.5,0,0,0,25.1,115c0,.28.06.5.07.62s0,.24,0,.42a40,40,0,0,0,1.63,7.64l0,0a46.8,46.8,0,0,0,4,9.1,45,45,0,0,0,3.4,5.45l-.24-.56c.94,1.29,2,2.59,3.14,3.89C31.79,146.05,5,170.8,4.37,210.39,4.18,212.91,4,215,4,215.18a.85.85,0,0,0,.09.27c-.25,10.2.73,21.89,4,32.46,6.13,19.63,23.6,41.14,39.9,43.22.15,5.54.31,9.93.47,12.52,1.67.66,124.28,1.38,135.27,1.45h.8v0l2.62-.09s0-4.37.12-11.31a16.27,16.27,0,0,0,2.21.05c16.56-.84,32.43-24.21,37.63-45.39A110.5,110.5,0,0,0,230.13,216.64Zm-40.8,73.08a12.73,12.73,0,0,1-2-.08c0-3.57.08-7.61.13-11.95,0-.58,0-1.17,0-1.76s0-1.18,0-1.78c.18-16,.4-35.25.57-49.87,6.93-4.54,12.57-11.34,16.77-19.12.44-.82.86-1.65,1.27-2.49.15-.32.31-.63.46-.95l1.1.5c2.3,1.05,5.73,2.69,9.1,4.54l.57.31c.94.76,1.91,1.46,2.85,2.12s1.82,1.13,2.73,1.67c.5.29,1,.6,1.47.91a.89.89,0,0,0,.14.13,8.73,8.73,0,0,0,.7.54c.1.11.21.21.31.31.11,1,.19,1.95.26,2.93a99.37,99.37,0,0,1-2.2,31.58C218.76,267.17,203.8,289,189.33,289.72ZM53.71,280.1c0-.6-.05-1.19-.07-1.8s0-1.22-.06-1.83c-.5-13.74-1.07-31.3-1.36-46l.13,0c-.07-1.13-.14-2.25-.2-3.36-.21-11.25-.31-20.94-.18-26.24.1-2.27.19-3.6.2-3.69h-.29c25.64-3.28,79.51-.05,109.63,2.19,7.2,1,15.83,2.14,21.68,2.79l-.16,16c-.72,16.6-.66,39.09-.44,56.8,0,.6,0,1.2,0,1.78s0,1.18,0,1.76c.15,10.62.34,19.11.44,22.83L54.46,299.47S54.13,291.49,53.71,280.1Zm-24.86-4.89c-1.08-1.11-2.14-2.28-3.16-3.49a75.06,75.06,0,0,1-14-25.05,94.22,94.22,0,0,1-4-30.06c0-1,.06-2,.11-3,0-.2,0-.41,0-.61a4.31,4.31,0,0,1-.42.43,8.18,8.18,0,0,0,.53-.64c.59-.5,1.42-1.16,2.4-1.92a81.92,81.92,0,0,1,13.83-8.85A21.21,21.21,0,0,1,27,201c.47.83.93,1.66,1.43,2.47s1,1.51,1.48,2.25,1,1.43,1.49,2.13a50.39,50.39,0,0,0,15.67,14.33l0,2.5.9,50.9,0,1.82,0,1.79.14,7.57-.3-.05C41.59,285.79,34.86,281.41,28.85,275.21ZM55.72,32c.12.14.24.26.35.41A4.45,4.45,0,0,1,55,32.1c-3.63-1.32-15.57-6.25-26.22-2.94C29.25,28.33,43.76,17.85,55.72,32Zm52.5-12.16-2.84,4.88,3.82-.31s1.62-.13,4.27-.13c7.74,0,22.7,1,35.91,7.93a88,88,0,0,1,29.68,25.71c-1.07-.3-1.92-.55-2.33-.71-1.53-.59-17.53-.88-28.4-.69a59.56,59.56,0,0,1-11.81-4.22c-3.15-1.67.77,2.12,3.62,4.55-5.42.47-14.54,2.21-20.74,3.33l.09-.11c-17.92,2.46-37.77-.28-45.83,0-1.35,0-3.2.16-5.34.33,2.82-3.3,6.56-7.69,6.76-8C75.4,52,63.14,58.61,60,60.13a36.23,36.23,0,0,1-3.92,1.46c-8.71,1-17.19,2.16-18.24,2.7-.48.25-1.59.94-3,1.84.79-1.89,1.61-3.67,2.41-5.31a59.93,59.93,0,0,1,5.63-9.9,27.52,27.52,0,0,1,3.37-4.27c7-7.91,15.2-12.23,23.42-15.51C78.09,27.77,88.22,23.25,93.23,21l-.51,6.25Zm56.62-9.49s24.73,7.94,18,29.74A45.59,45.59,0,0,0,164.84,10.36Zm12.81,76.91s9.12,26.83-18.79,27.7C158.86,115,178.14,111.17,177.65,87.27ZM65.77,116.32s19.9-2.89,20.52-27.42C86.29,88.9,93.68,115.46,65.77,116.32ZM28.31,90.68l2.34-2.09S34.09,124.67,56.09,125s35.83-13,40.78-33.06c3.54-14.35,6.67-18.76,9.92-20,4.29-.19,7.58,2.46,14.17,19.1C128.1,109,143.17,122.09,165,119.48s21.43-38.86,21.43-38.86l5.47,1.76a42.46,42.46,0,0,1,1.71,17.14l0,.25c0,.51-.11,1-.18,1.49-1.31,10.29-6.38,21.75-14.35,31.59a74.42,74.42,0,0,1-5.66,6.21c-1.72,1.69-3.64,3.42-5.8,5.16-.51-1.59-1-3.11-1.51-4.53a79.23,79.23,0,0,0-3.55-9.25c-.62-.54-6.42-3.33-14.85.16-3.69,1.53-8.83,6.59-13.49,11.83-6,6.73-11.17,13.75-11.45,14-2.22-2.33-9.66.6-9.66.6s-9.38-7.57-14.37-11.52c-1.68-1.33-2.87-2.24-3-2.32-.65-.31-16.46-8.71-18.93-9s-6.8,1.61-11,14.17c-.23.69-.45,1.39-.68,2.14a34.27,34.27,0,0,0-1.07,4.76,75.72,75.72,0,0,1-11.58-5.75c-10.8-6.64-16.6-14.49-19.71-21l-.16-.07c-.13-.35-.22-.69-.34-1a35.34,35.34,0,0,1-3-11.29A81.51,81.51,0,0,1,28.31,90.68ZM40.2,174.52l4.45,23.92,2.59-.5.14,0h0l-.14,0c0,.13,0,1.42-.06,3.6-.08,1.81-.16,4.13-.2,6.84l-.13.26.09,5.07c0,1.23,0,2.52,0,3.85C40.46,213.33,34.8,207,32.5,200.86q.95-5.58,2-10.46c.26-.87.53-1.77.8-2.71.52-2.12,1.15-4.39,1.83-6.68.85-2.84,1.77-5.71,2.68-8.41Zm35.92-15.45c-.94-1,.47-3.68,3.19-4.77a4.55,4.55,0,0,1,2-.22,33.64,33.64,0,0,0,9.48,7.85c-1.57-.22-3.14-.45-4.72-.72q-5.28-.9-9.91-2.11S76.12,159.08,76.12,159.07ZM102.2,168s-6.9-.73-9.58-1.22a17.85,17.85,0,0,1-2.81-1c4,.57,7.94,1,11.81,1.2C102,167.63,102.2,168,102.2,168Zm48.15-33.12s9.42-3.51,10.39-2.78a57.83,57.83,0,0,1,2.77,7.81c.57,1.87,1.17,4,1.73,6.14.25,1,.48,1.93.71,2.91.1.44.2.88.29,1.32a48.82,48.82,0,0,1,1.37,11.38,80.84,80.84,0,0,0-3-10.24c-.13-.38-.26-.77-.4-1.15q-.49-1.38-1-2.73a50.35,50.35,0,0,0-3.41-7.31A9,9,0,0,0,158,138a5,5,0,0,1,.79,2.33,45.93,45.93,0,0,1,.43,6s-1.57-2.86-3.6-5.77C154,138.21,152,135.79,150.35,134.89ZM119.69,159.5c2.2.57,3.66,2.19,3.37,2.34-3-1.75-8.75,3-8.75,3l.22-1.7v-.07l.34-2.72a6,6,0,0,1,3-1H118a6.13,6.13,0,0,1,1.06.05A6.83,6.83,0,0,1,119.69,159.5Zm-14.48-1.89-.23-.17-.2-.05-.13-.18c-3.51-4.51-8.77-8.27-13.57-11.07a100.55,100.55,0,0,0-11.39-5.62A38.59,38.59,0,0,1,95,145.8c7,4.39,9.58,9.93,10.14,11.69Zm-15.73-.8a22.19,22.19,0,0,1,5.24,2.86,81.74,81.74,0,0,1-9.94-4.8C86.89,155.59,88.82,156.56,89.48,156.81Zm41,10.23c1-.83,1.91-1.57,2.82-2.28a92.24,92.24,0,0,0,21-7.32,8.58,8.58,0,0,1,4,3.25c1.53,2.32-1.49,7-8,9.17s-16.95.59-19.29-.17S129.31,168,130.45,167ZM48.64,194.15l-2.25-20.64,54,.65.94,17.4C79.74,191.16,59.52,191.64,48.64,194.15Zm135.14-16a4.71,4.71,0,0,1,.05.77c-.29,5.33-.46,17.05-.46,17.05s-26.22-2.23-56.21-3.56l-.75-17.54C147,176.11,167.8,177.33,183.78,178.15Zm22.06-22,.26.17c8.51,10.65,18.66,27.92,20,50.56-1.32-1.56-4.38-3.86-12.32-7.44a23.72,23.72,0,0,0-7.54-3.34l-.13,0c-.21-1-.42-1.87-.62-2.77-2-9-3.87-15.2-8-22.55a108.76,108.76,0,0,0-7-10.71l-.73-1c.1,0,3,7.49,5.83,16,1.31,4,2.58,8.18,3.53,12,.05.21.11.43.16.64,1.28,4.46,2.66,8.39,3,9.82-.51,8-6.78,16.54-14.11,22,.1-8.33.18-14.56.22-16.84.92,0,1.46,0,1.46-.11,0-1,.11-29.19.11-29.19s-6.78-.53-7.16-.34l-9.87-.36a14.86,14.86,0,0,0,.46-5.5,125,125,0,0,0-4.52-18.91c1.14-1,2.56-2.23,4.05-3.56,1.32-1.18,2.66-2.4,3.85-3.52l1.28-1.22c.46-.45.88-.87,1.23-1.24,0,0,.05,0,.06-.06h0c1-1.06,1.84-2.08,2.63-3.05C193.18,140.07,205.84,156.16,205.84,156.16ZM41.15,145.73a62.65,62.65,0,0,0,5.28,4.32c.47.34,1,.67,1.44,1,.25.17.48.35.74.52s.48.29.72.44c1,.62,2,1.23,3,1.8a85.81,85.81,0,0,0,11.41,5.38,23.36,23.36,0,0,0,.86,6.59A67.42,67.42,0,0,0,52.38,168l.2,0-8.84-.53-2.07-.13c.65-1.81,1.24-3.41,1.74-4.73.84-2.2,1.4-3.59,1.45-3.6-1.86,2.52-3.45,4.8-4.85,7q-.4.62-.78,1.23l-.39,0,.1.49a71.63,71.63,0,0,0-4.2,7.73c-2.86,6.19-4.36,12.16-6.21,20.53-2.65.24-12.09,2.91-20,11.19,1.91-34.87,24.86-57,30.61-62A20.85,20.85,0,0,1,41.15,145.73Z" fill="#d61164"/></g></g></svg>