<svg width="14" height="14" viewBox="0 0 14 14" fill="none" xmlns="http://www.w3.org/2000/svg">
<path d="M13.72 7.15936C13.72 6.66299 13.6755 6.18572 13.5927 5.72754H7V8.43845H10.7673C10.6018 9.31027 10.1055 10.0484 9.36091 10.5448V12.3075H11.6327C12.9564 11.0857 13.72 9.29118 13.72 7.15936Z" fill="#584659"/>
<path d="M7.00104 13.9996C8.89104 13.9996 10.4756 13.3759 11.6338 12.3068L9.36195 10.5441C8.73832 10.9641 7.94286 11.2187 7.00104 11.2187C5.18104 11.2187 3.63468 9.99048 3.08104 8.33594H0.751953V10.1432C1.90377 12.4278 4.26468 13.9996 7.00104 13.9996Z" fill="#584659"/>
<path d="M3.08 8.33055C2.94 7.91055 2.85727 7.4651 2.85727 7.00055C2.85727 6.53601 2.94 6.09055 3.08 5.67055V3.86328H0.750909C0.273636 4.8051 0 5.86783 0 7.00055C0 8.13328 0.273636 9.19601 0.750909 10.1378L2.56455 8.7251L3.08 8.33055Z" fill="#584659"/>
<path d="M7.00104 2.78727C8.03195 2.78727 8.94832 3.14364 9.68013 3.83091L11.6847 1.82636C10.4692 0.693636 8.89104 0 7.00104 0C4.26468 0 1.90377 1.57182 0.751953 3.86273L3.08104 5.67C3.63468 4.01545 5.18104 2.78727 7.00104 2.78727Z" fill="#584659"/>
</svg>
