<svg width="12" height="12" viewBox="0 0 12 12" fill="none" xmlns="http://www.w3.org/2000/svg">
<path d="M2.25254 0.543799C1.87285 0.691455 1.55176 0.88833 1.23066 1.20942C0.90957 1.52817 0.712695 1.85161 0.565039 2.22896C0.42207 2.59458 0.325977 3.01411 0.297852 3.62817C0.269727 4.24224 0.262695 4.43911 0.262695 6.00474C0.262695 7.57036 0.269727 7.76724 0.297852 8.3813C0.325977 8.99536 0.424414 9.41489 0.565039 9.78052C0.712695 10.1602 0.90957 10.4813 1.23066 10.8024C1.55176 11.1235 1.87285 11.3204 2.25254 11.468C2.61816 11.611 3.0377 11.7071 3.65176 11.7352C4.26582 11.7633 4.4627 11.7704 6.02832 11.7704C7.59395 11.7704 7.79082 11.7633 8.40488 11.7352C9.01894 11.7071 9.43848 11.6086 9.8041 11.468C10.1838 11.3204 10.5049 11.1235 10.826 10.8024C11.1471 10.4813 11.3439 10.1602 11.4916 9.78052C11.6346 9.41489 11.7307 8.99536 11.7588 8.3813C11.7869 7.76724 11.7939 7.57036 11.7939 6.00474C11.7939 4.43911 11.7869 4.24224 11.7588 3.62817C11.7307 3.01411 11.6322 2.59458 11.4916 2.22896C11.3439 1.85161 11.1471 1.52817 10.8283 1.20942C10.5072 0.88833 10.1861 0.691455 9.80645 0.543799C9.44082 0.40083 9.02129 0.304736 8.40723 0.276611C7.79316 0.248486 7.59629 0.241455 6.03066 0.241455C4.46504 0.241455 4.26816 0.248486 3.6541 0.276611C3.0377 0.302393 2.61816 0.40083 2.25254 0.543799ZM8.35801 1.31255C8.92051 1.33833 9.22519 1.43208 9.4291 1.51177C9.69863 1.61724 9.89082 1.74146 10.0924 1.94302C10.2939 2.14458 10.4182 2.33677 10.5236 2.6063C10.6033 2.81021 10.6971 3.11489 10.7229 3.67739C10.751 4.28442 10.7557 4.46724 10.7557 6.00708C10.7557 7.54692 10.7486 7.72974 10.7229 8.33677C10.6971 8.89927 10.6033 9.20396 10.5236 9.40786C10.4182 9.67739 10.2939 9.86958 10.0924 10.0711C9.89082 10.2727 9.69863 10.3969 9.4291 10.5024C9.22519 10.5821 8.92051 10.6758 8.35801 10.7016C7.75098 10.7297 7.56816 10.7344 6.02832 10.7344C4.48848 10.7344 4.30566 10.7274 3.69863 10.7016C3.13613 10.6758 2.83145 10.5821 2.62754 10.5024C2.35801 10.3969 2.16582 10.2727 1.96426 10.0711C1.7627 9.86958 1.63848 9.67739 1.53301 9.40786C1.45332 9.20396 1.35957 8.89927 1.33379 8.33677C1.30566 7.72974 1.30098 7.54692 1.30098 6.00708C1.30098 4.46724 1.30801 4.28442 1.33379 3.67739C1.35957 3.11489 1.45332 2.81021 1.53301 2.6063C1.63848 2.33677 1.7627 2.14458 1.96426 1.94302C2.16582 1.74146 2.35801 1.61724 2.62754 1.51177C2.83145 1.43208 3.13613 1.33833 3.69863 1.31255C4.30566 1.28442 4.48848 1.27974 6.02832 1.27974C7.56816 1.27974 7.75098 1.28442 8.35801 1.31255Z" fill="url(#paint0_radial_39_8919)"/>
<path d="M3.06836 6.00703C3.06836 7.64297 4.39492 8.96719 6.02852 8.96719C7.66211 8.96719 8.98867 7.64062 8.98867 6.00703C8.98867 4.37344 7.66445 3.04688 6.02852 3.04688C4.39258 3.04688 3.06836 4.37109 3.06836 6.00703ZM7.95039 6.00703C7.95039 7.06875 7.09024 7.92891 6.02852 7.92891C4.9668 7.92891 4.10664 7.06875 4.10664 6.00703C4.10664 4.94531 4.9668 4.08516 6.02852 4.08516C7.09024 4.08516 7.95039 4.94531 7.95039 6.00703Z" fill="url(#paint1_radial_39_8919)"/>
<path d="M9.10791 3.62109C9.48976 3.62109 9.79932 3.31154 9.79932 2.92969C9.79932 2.54783 9.48976 2.23828 9.10791 2.23828C8.72606 2.23828 8.4165 2.54783 8.4165 2.92969C8.4165 3.31154 8.72606 3.62109 9.10791 3.62109Z" fill="#654C9F"/>
<defs>
<radialGradient id="paint0_radial_39_8919" cx="0" cy="0" r="1" gradientUnits="userSpaceOnUse" gradientTransform="translate(0.472507 10.7148) rotate(-3.00009) scale(16.6714 14.1705)">
<stop stop-color="#FED576"/>
<stop offset="0.2634" stop-color="#F47133"/>
<stop offset="0.6091" stop-color="#BC3081"/>
<stop offset="1" stop-color="#4C63D2"/>
</radialGradient>
<radialGradient id="paint1_radial_39_8919" cx="0" cy="0" r="1" gradientUnits="userSpaceOnUse" gradientTransform="translate(3.17573 8.42431) rotate(-3.00009) scale(8.561 7.27676)">
<stop stop-color="#FED576"/>
<stop offset="0.2634" stop-color="#F47133"/>
<stop offset="0.6091" stop-color="#BC3081"/>
<stop offset="1" stop-color="#4C63D2"/>
</radialGradient>
</defs>
</svg>
