<svg width="16" height="16" viewBox="0 0 16 16" fill="none" xmlns="http://www.w3.org/2000/svg">
<path d="M2.65313 0.403125C2.14687 0.6 1.71875 0.8625 1.29062 1.29062C0.8625 1.71563 0.6 2.14687 0.403125 2.65C0.2125 3.1375 0.084375 3.69688 0.046875 4.51562C0.009375 5.33437 0 5.59688 0 7.68438C0 9.77188 0.009375 10.0344 0.046875 10.8531C0.084375 11.6719 0.215625 12.2312 0.403125 12.7188C0.6 13.225 0.8625 13.6531 1.29062 14.0813C1.71875 14.5094 2.14687 14.7719 2.65313 14.9688C3.14062 15.1594 3.7 15.2875 4.51875 15.325C5.3375 15.3625 5.6 15.3719 7.6875 15.3719C9.775 15.3719 10.0375 15.3625 10.8562 15.325C11.675 15.2875 12.2344 15.1562 12.7219 14.9688C13.2281 14.7719 13.6562 14.5094 14.0844 14.0813C14.5125 13.6531 14.775 13.225 14.9719 12.7188C15.1625 12.2312 15.2906 11.6719 15.3281 10.8531C15.3656 10.0344 15.375 9.77188 15.375 7.68438C15.375 5.59688 15.3656 5.33437 15.3281 4.51562C15.2906 3.69688 15.1594 3.1375 14.9719 2.65C14.775 2.14687 14.5125 1.71563 14.0875 1.29062C13.6594 0.8625 13.2312 0.6 12.725 0.403125C12.2375 0.2125 11.6781 0.084375 10.8594 0.046875C10.0406 0.009375 9.77812 0 7.69062 0C5.60312 0 5.34062 0.009375 4.52187 0.046875C3.7 0.08125 3.14062 0.2125 2.65313 0.403125ZM10.7937 1.42813C11.5437 1.4625 11.95 1.5875 12.2219 1.69375C12.5812 1.83438 12.8375 2 13.1062 2.26875C13.375 2.5375 13.5406 2.79375 13.6812 3.15312C13.7875 3.425 13.9125 3.83125 13.9469 4.58125C13.9844 5.39062 13.9906 5.63437 13.9906 7.6875C13.9906 9.74062 13.9812 9.98438 13.9469 10.7938C13.9125 11.5438 13.7875 11.95 13.6812 12.2219C13.5406 12.5813 13.375 12.8375 13.1062 13.1063C12.8375 13.375 12.5812 13.5406 12.2219 13.6813C11.95 13.7875 11.5437 13.9125 10.7937 13.9469C9.98438 13.9844 9.74063 13.9906 7.6875 13.9906C5.63438 13.9906 5.39062 13.9813 4.58125 13.9469C3.83125 13.9125 3.425 13.7875 3.15313 13.6813C2.79375 13.5406 2.5375 13.375 2.26875 13.1063C2 12.8375 1.83438 12.5813 1.69375 12.2219C1.5875 11.95 1.4625 11.5438 1.42813 10.7938C1.39062 9.98438 1.38437 9.74062 1.38437 7.6875C1.38437 5.63437 1.39375 5.39062 1.42813 4.58125C1.4625 3.83125 1.5875 3.425 1.69375 3.15312C1.83438 2.79375 2 2.5375 2.26875 2.26875C2.5375 2 2.79375 1.83438 3.15313 1.69375C3.425 1.5875 3.83125 1.4625 4.58125 1.42813C5.39062 1.39062 5.63438 1.38437 7.6875 1.38437C9.74063 1.38437 9.98438 1.39062 10.7937 1.42813Z" fill="#0C1C2A"/>
<path d="M3.74023 7.6876C3.74023 9.86885 5.50899 11.6345 7.68711 11.6345C9.86524 11.6345 11.634 9.86572 11.634 7.6876C11.634 5.50947 9.86836 3.74072 7.68711 3.74072C5.50586 3.74072 3.74023 5.50635 3.74023 7.6876ZM10.2496 7.6876C10.2496 9.10322 9.10274 10.2501 7.68711 10.2501C6.27149 10.2501 5.12461 9.10322 5.12461 7.6876C5.12461 6.27197 6.27149 5.1251 7.68711 5.1251C9.10274 5.1251 10.2496 6.27197 10.2496 7.6876Z" fill="#0C1C2A"/>
<path d="M11.7939 4.50635C12.3031 4.50635 12.7158 4.09361 12.7158 3.58447C12.7158 3.07534 12.3031 2.6626 11.7939 2.6626C11.2848 2.6626 10.8721 3.07534 10.8721 3.58447C10.8721 4.09361 11.2848 4.50635 11.7939 4.50635Z" fill="#0C1C2A"/>
</svg>
