<svg width="20" height="20" viewBox="0 0 36 37" fill="none" xmlns="http://www.w3.org/2000/svg">
<path d="M13.4981 16C11.1409 18.3572 11.3333 19.5 11 20.5C9.5 24 6.49807 22.5 5.49807 21C4.49807 19.5 3.10558 14.8288 6.49807 12C9.49735 9.49915 12.4981 10.5 13.4981 11C14.4981 11.5 15.6184 13.8797 13.4981 16Z" fill="#D71568"/>
<path d="M14.0418 20.5C14.4418 21.7 16.7087 22.3333 17.542 22.5C18.3753 22.3333 20.642 21.7 21.042 20.5C21.442 19.3 18.8752 19 17.5418 19C16.2085 19 13.6418 19.3 14.0418 20.5Z" fill="#D71568"/>
<path d="M12.5 14.5C12.5 15.0523 12.0523 15.5 11.5 15.5C10.9477 15.5 10.5 15.0523 10.5 14.5C10.5 13.9477 10.9477 13.5 11.5 13.5C12.0523 13.5 12.5 13.9477 12.5 14.5Z" fill="#F8F1F4"/>
<path fill-rule="evenodd" clip-rule="evenodd" d="M18 35.5C27.1127 35.5 34.5 28.1127 34.5 19C34.5 9.8873 27.1127 2.5 18 2.5C8.8873 2.5 1.5 9.8873 1.5 19C1.5 28.1127 8.8873 35.5 18 35.5ZM18 37C27.9411 37 36 28.9411 36 19C36 9.05887 27.9411 1 18 1C8.05887 1 0 9.05887 0 19C0 28.9411 8.05887 37 18 37Z" fill="#D71568"/>
<path d="M6 0C3.23858 0 1 2.23858 1 5C1 6.63582 1.78555 8.08816 3 9.00037L10.584 3C9.8124 1.2341 8.05032 0 6 0Z" fill="#D71568"/>
<path d="M29.7041 0C32.4655 0 34.7041 2.23858 34.7041 5C34.7041 6.63582 33.9185 8.08816 32.7041 9.00037L25.1201 3C25.8917 1.2341 27.6538 0 29.7041 0Z" fill="#D71568"/>
<path d="M22.2051 16C24.5623 18.3572 24.3698 19.5 24.7031 20.5C26.2031 24 29.2051 22.5 30.2051 21C31.2051 19.5 32.5975 14.8288 29.2051 12C26.2058 9.49915 23.2051 10.5 22.2051 11C21.2051 11.5 20.0847 13.8797 22.2051 16Z" fill="#D71568"/>
<path d="M23.2031 14.5C23.2031 15.0523 23.6508 15.5 24.2031 15.5C24.7554 15.5 25.2031 15.0523 25.2031 14.5C25.2031 13.9477 24.7554 13.5 24.2031 13.5C23.6508 13.5 23.2031 13.9477 23.2031 14.5Z" fill="#F8F1F4"/>
<path d="M13.416 26C14.1876 27.7659 15.9497 29 18 29C20.0503 29 21.8124 27.7659 22.584 26C22.8516 25.3875 23 24.7111 23 24H13C13 24.7111 13.1484 25.3875 13.416 26Z" fill="#D71568"/>
</svg>
