<svg width="23" height="18" viewBox="0 0 23 18" fill="none" xmlns="http://www.w3.org/2000/svg">
<g clip-path="url(#clip0_244_58230)">
<path d="M4.1688 17.9605V16.7659C4.1688 16.3089 3.89258 16.0097 3.4184 16.0097C3.18131 16.0097 2.92351 16.0886 2.74626 16.3484C2.60815 16.1303 2.4102 16.0097 2.11326 16.0097C1.9153 16.0097 1.71734 16.07 1.56082 16.2881V16.0492H1.14648V17.9605H1.56082V16.9051C1.56082 16.5664 1.73806 16.4064 2.01428 16.4064C2.2905 16.4064 2.42861 16.585 2.42861 16.9051V17.9605H2.84294V16.9051C2.84294 16.5664 3.0409 16.4064 3.2964 16.4064C3.57263 16.4064 3.71074 16.585 3.71074 16.9051V17.9605H4.1688ZM10.3147 16.0492H9.64258V15.4716H9.22825V16.0492H8.85305V16.4272H9.22825V17.3041C9.22825 17.7425 9.40549 17.9999 9.87967 17.9999C10.0569 17.9999 10.2549 17.9396 10.393 17.8608L10.2733 17.5012C10.1536 17.5801 10.0155 17.601 9.9165 17.601C9.71854 17.601 9.64028 17.4803 9.64028 17.2832V16.4272H10.3124V16.0492H10.3147ZM13.8319 16.0074C13.5948 16.0074 13.436 16.128 13.337 16.2858V16.0468H12.9227V17.9582H13.337V16.8819C13.337 16.5641 13.4751 16.3832 13.733 16.3832C13.8112 16.3832 13.9102 16.4041 13.9908 16.4226L14.1105 16.0236C14.0276 16.0074 13.9102 16.0074 13.8319 16.0074ZM8.51698 16.2069C8.31902 16.0677 8.0428 16.0074 7.74586 16.0074C7.27168 16.0074 6.95633 16.2463 6.95633 16.6244C6.95633 16.9422 7.19342 17.1231 7.60775 17.1811L7.80571 17.202C8.02209 17.2414 8.14178 17.3017 8.14178 17.4015C8.14178 17.5406 7.98295 17.6404 7.70673 17.6404C7.43051 17.6404 7.21184 17.5406 7.07373 17.4409L6.87577 17.7587C7.09214 17.9187 7.38908 17.9976 7.68602 17.9976C8.23846 17.9976 8.55611 17.7378 8.55611 17.3806C8.55611 17.0419 8.29831 16.8633 7.90469 16.803L7.70673 16.7821C7.52949 16.7613 7.39138 16.7218 7.39138 16.6035C7.39138 16.4644 7.52949 16.3855 7.74817 16.3855C7.98526 16.3855 8.22234 16.4852 8.34204 16.5455L8.51698 16.2069ZM19.5405 16.0074C19.3034 16.0074 19.1446 16.128 19.0456 16.2858V16.0468H18.6313V17.9582H19.0456V16.8819C19.0456 16.5641 19.1837 16.3832 19.4415 16.3832C19.5198 16.3832 19.6188 16.4041 19.6993 16.4226L19.819 16.0283C19.7385 16.0074 19.6211 16.0074 19.5405 16.0074ZM14.2463 17.0048C14.2463 17.5824 14.6422 17.9999 15.2545 17.9999C15.5307 17.9999 15.7287 17.9396 15.9266 17.7819L15.7287 17.4432C15.5698 17.5638 15.4133 17.6218 15.2338 17.6218C14.8977 17.6218 14.6606 17.3829 14.6606 17.0048C14.6606 16.6453 14.8977 16.4064 15.2338 16.3878C15.411 16.3878 15.5698 16.4481 15.7287 16.5664L15.9266 16.2278C15.7287 16.0677 15.5307 16.0097 15.2545 16.0097C14.6422 16.0074 14.2463 16.4272 14.2463 17.0048ZM18.0788 17.0048V16.0492H17.6645V16.2881C17.5264 16.1095 17.3284 16.0097 17.0706 16.0097C16.5366 16.0097 16.1223 16.4272 16.1223 17.0048C16.1223 17.5824 16.5366 17.9999 17.0706 17.9999C17.3468 17.9999 17.5448 17.9002 17.6645 17.7216V17.9605H18.0788V17.0048ZM16.5573 17.0048C16.5573 16.6662 16.7737 16.3878 17.1305 16.3878C17.4665 16.3878 17.7036 16.6476 17.7036 17.0048C17.7036 17.3435 17.4665 17.6218 17.1305 17.6218C16.776 17.601 16.5573 17.3412 16.5573 17.0048ZM11.5991 16.0074C11.0467 16.0074 10.6508 16.4064 10.6508 17.0025C10.6508 17.601 11.0467 17.9976 11.6199 17.9976C11.8961 17.9976 12.1723 17.9187 12.391 17.7378L12.193 17.4386C12.0342 17.5592 11.8362 17.6381 11.6406 17.6381C11.3828 17.6381 11.1273 17.5175 11.0674 17.1811H12.4692C12.4692 17.1208 12.4692 17.0814 12.4692 17.0211C12.4877 16.4064 12.1309 16.0074 11.5991 16.0074ZM11.5991 16.3669C11.857 16.3669 12.0342 16.527 12.0733 16.8239H11.0858C11.125 16.5664 11.3022 16.3669 11.5991 16.3669ZM21.893 17.0048V15.293H21.4786V16.2881C21.3405 16.1095 21.1426 16.0097 20.8848 16.0097C20.3507 16.0097 19.9364 16.4272 19.9364 17.0048C19.9364 17.5824 20.3507 17.9999 20.8848 17.9999C21.161 17.9999 21.359 17.9002 21.4786 17.7216V17.9605H21.893V17.0048ZM20.3715 17.0048C20.3715 16.6662 20.5878 16.3878 20.9446 16.3878C21.2807 16.3878 21.5178 16.6476 21.5178 17.0048C21.5178 17.3435 21.2807 17.6218 20.9446 17.6218C20.5878 17.601 20.3715 17.3412 20.3715 17.0048ZM6.50057 17.0048V16.0492H6.08624V16.2881C5.94813 16.1095 5.75017 16.0097 5.49236 16.0097C4.95833 16.0097 4.544 16.4272 4.544 17.0048C4.544 17.5824 4.95833 17.9999 5.49236 17.9999C5.76858 17.9999 5.96654 17.9002 6.08624 17.7216V17.9605H6.50057V17.0048ZM4.96064 17.0048C4.96064 16.6662 5.17701 16.3878 5.53379 16.3878C5.86986 16.3878 6.10695 16.6476 6.10695 17.0048C6.10695 17.3435 5.86986 17.6218 5.53379 17.6218C5.17701 17.601 4.96064 17.3412 4.96064 17.0048Z" fill="black"/>
<path d="M8.79303 7.16753C8.79303 4.87809 9.86109 2.84613 11.5 1.53325C10.2938 0.577577 8.77232 0 7.11269 0C3.18114 0 0 3.20567 0 7.16753C0 11.1294 3.18114 14.3351 7.11269 14.3351C8.77232 14.3351 10.2938 13.7575 11.5 12.8018C9.85879 11.5075 8.79303 9.45696 8.79303 7.16753Z" fill="#584659"/>
<path d="M23 7.16753C23 11.1294 19.8189 14.3351 15.8873 14.3351C14.2277 14.3351 12.7062 13.7575 11.5 12.8018C13.1596 11.4866 14.207 9.45696 14.207 7.16753C14.207 4.87809 13.1389 2.84613 11.5 1.53325C12.7039 0.577577 14.2254 0 15.885 0C19.8189 0 23 3.22655 23 7.16753Z" fill="#584659"/>
<path d="M13.707 7.16748C13.707 9.15373 12.8618 10.9265 11.4996 12.1484C10.1525 10.941 9.29297 9.15189 9.29297 7.16748C9.29297 5.18623 10.1521 3.41203 11.5 2.18994C12.8478 3.41203 13.707 5.18622 13.707 7.16748Z" fill="#584659" stroke="#F8F1F4"/>
</g>
<defs>
<clipPath id="clip0_244_58230">
<rect width="23" height="18" fill="white"/>
</clipPath>
</defs>
</svg>
