<svg width="20" height="20" viewBox="0 0 20 20" fill="none" xmlns="http://www.w3.org/2000/svg">
<path fill-rule="evenodd" clip-rule="evenodd" d="M15.8495 5.77712C15.9094 5.75831 15.9881 5.79593 16.0668 5.89936C16.0668 5.89936 16.0668 5.89936 19.6242 9.36591C19.8319 9.57277 19.8319 9.8862 19.6242 10.0398C19.6242 10.0398 19.6242 10.0398 16.0668 13.5596C15.9881 13.6631 15.9094 13.6881 15.8495 13.6568C15.7897 13.6254 15.752 13.5345 15.752 13.4029V6.00279C15.752 5.87428 15.7897 5.79593 15.8495 5.77712Z" fill="white"/>
<path fill-rule="evenodd" clip-rule="evenodd" d="M9.76343 0H10.0153L10.2577 0.100298C10.2577 0.100298 10.2577 0.100298 13.919 3.72356C14.0764 3.93043 14.0229 4.08714 13.7616 4.08714C13.7616 4.08714 13.7616 4.08714 12.2442 4.08714C11.9829 4.08714 11.7751 4.29401 11.7751 4.55416C11.7751 4.55416 11.7751 4.55416 11.7751 7.2434C11.7751 7.50355 11.5642 7.71041 11.2493 7.71041C11.2493 7.71041 11.2493 7.71041 8.58288 7.71041C8.32159 7.71041 8.11066 7.50355 8.11066 7.2434C8.11066 7.2434 8.11066 7.2434 8.11066 4.55416C8.11066 4.29401 7.90289 4.08714 7.63844 4.08714H6.01716C5.75586 4.08714 5.70234 3.93043 5.85975 3.72356C5.85975 3.72356 5.85975 3.72356 9.52417 0.100298L9.76343 0V0Z" fill="white"/>
<path fill-rule="evenodd" clip-rule="evenodd" d="M4.02803 5.69817C4.09414 5.72951 4.13507 5.82041 4.13507 5.95205V13.5057C4.13507 13.6374 4.09414 13.7157 4.02803 13.7408C3.96507 13.7659 3.87378 13.7408 3.76674 13.6625C3.76674 13.6625 3.76674 13.6625 0.155832 10.0392C-0.0519442 9.88561 -0.0519442 9.57218 0.155832 9.36532C0.155832 9.36532 0.155833 9.36532 3.76674 5.79533C3.87378 5.6919 3.96507 5.66683 4.02803 5.69817Z" fill="white"/>
<path fill-rule="evenodd" clip-rule="evenodd" d="M8.58242 11.6445C8.58242 11.6445 8.58242 11.6445 11.2489 11.6445C11.5637 11.6445 11.7746 11.8514 11.7746 12.1115C11.7746 12.1115 11.7746 12.1115 11.7746 14.9575C11.7746 15.2678 11.9824 15.4747 12.2437 15.4747H13.6572C13.9185 15.4747 14.0224 15.6282 13.8146 15.785C13.8146 15.785 13.8146 15.785 10.2572 19.3549C10.1502 19.4584 10.0211 19.5117 9.88889 19.5117C9.75982 19.5117 9.6276 19.4584 9.52371 19.3549C9.52371 19.3549 9.52371 19.3549 5.96632 15.785C5.7554 15.6282 5.85929 15.4747 6.12058 15.4747C6.12058 15.4747 6.12058 15.4747 7.63798 15.4747C7.90242 15.4747 8.1102 15.2678 8.1102 14.9575C8.1102 14.9575 8.1102 14.9575 8.1102 12.1115C8.1102 11.8514 8.32112 11.6445 8.58242 11.6445V11.6445Z" fill="white"/>
</svg>
