<svg width="44" height="16" viewBox="0 0 44 16" fill="none" xmlns="http://www.w3.org/2000/svg">
<g clip-path="url(#clip0_244_87408)">
<path fill-rule="evenodd" clip-rule="evenodd" d="M19.2617 3.04492C19.2617 3.04492 19.2617 3.04492 20.1872 3.04492C20.5244 3.04492 20.6943 3.20396 20.6943 3.56299C20.6943 3.56299 20.6943 3.56299 20.6943 4.83528C20.6943 4.83528 20.6943 4.83528 22.5072 4.83528C22.5072 4.83528 22.5072 4.83528 22.5072 3.56299C22.5072 3.20396 22.6745 3.04492 23.0548 3.04492C23.0548 3.04492 23.0548 3.04492 23.9397 3.04492C23.9397 3.04492 23.9397 3.04492 23.9397 3.88107C23.9397 3.88107 23.9397 3.88107 23.5619 3.88107L23.5188 3.92203C23.5188 3.92203 23.5188 3.92203 23.5188 7.50275C23.5188 7.50275 23.5188 7.50275 22.5072 7.50275C22.5072 7.50275 22.5072 7.50275 22.5072 5.71239C22.5072 5.71239 22.5072 5.71239 20.6943 5.71239C20.6943 5.71239 20.6943 5.71239 20.6943 7.50275C20.6943 7.50275 20.6943 7.50275 19.6826 7.50275C19.6826 7.50275 19.6826 7.50275 19.6826 3.92203C19.6826 3.92203 19.6826 3.88107 19.6395 3.88107C19.6395 3.88107 19.6395 3.88107 19.2617 3.88107C19.2617 3.88107 19.2617 3.88107 19.2617 3.04492Z" fill="#ED1C24"/>
<path fill-rule="evenodd" clip-rule="evenodd" d="M26.5946 2.96484L26.6174 2.96725V3.88533L26.5946 3.88051C25.8365 3.88051 25.2457 4.4781 25.2457 5.23472C25.2457 6.0299 25.8365 6.66605 26.5946 6.66605L26.6174 6.66123V7.5793L26.5946 7.58171C25.2457 7.58171 24.1504 6.54798 24.1504 5.23472C24.1504 3.96002 25.2457 2.96484 26.5946 2.96484Z" fill="#ED1C24"/>
<path fill-rule="evenodd" clip-rule="evenodd" d="M26.6172 2.9668L27.0863 3.01017C28.1993 3.2174 29.0386 4.11861 29.0386 5.23427C29.0386 6.38126 28.1993 7.3186 27.0863 7.53306L26.6172 7.57885V6.66077L27.1319 6.55475C27.6289 6.33788 27.9864 5.82945 27.9864 5.23427C27.9864 4.66559 27.6289 4.18848 27.1319 3.98608L26.6172 3.88487V2.9668Z" fill="#ED1C24"/>
<path fill-rule="evenodd" clip-rule="evenodd" d="M29.248 3.04492C29.248 3.04492 29.248 3.04492 30.6603 3.04492H31.3348V3.88107H31.2714C31.1877 3.88107 31.0178 3.88107 30.6806 3.88107C30.6806 3.88107 30.6806 3.88107 30.6806 4.79673C30.6806 4.79673 30.6806 4.79673 30.9671 4.79673H31.3348V5.59191H31.1193C31.0128 5.59191 30.8708 5.59191 30.6806 5.59191C30.6806 5.59191 30.6806 5.59191 30.6806 6.58709C30.6806 6.62805 30.6806 6.62805 30.7237 6.62805C30.7237 6.62805 30.7237 6.62805 31.0254 6.62805H31.3348V7.50275H31.246C31.0939 7.50275 30.7871 7.50275 30.176 7.50275C29.8388 7.50275 29.6715 7.34372 29.6715 6.98468V3.88107C29.6715 3.88107 29.6715 3.88107 29.248 3.88107C29.248 3.88107 29.248 3.88107 29.248 3.04492Z" fill="#ED1C24"/>
<path fill-rule="evenodd" clip-rule="evenodd" d="M31.3359 3.04492H31.3562C32.2842 3.04492 32.8319 3.52203 32.8319 4.2401C32.8319 4.67625 32.6214 4.95577 32.411 5.15577C32.7913 5.3148 33.0423 5.71239 33.0423 6.14854C33.0423 6.98468 32.3679 7.50275 31.3993 7.50275C31.3993 7.50275 31.3993 7.50275 31.3816 7.50275H31.3359V6.62805H31.4399C31.7771 6.62805 31.9901 6.42805 31.9901 6.10998C31.9901 5.79191 31.7771 5.59191 31.4399 5.59191C31.4399 5.59191 31.4399 5.59191 31.3461 5.59191H31.3359V4.79673H31.3562C31.6529 4.79673 31.8202 4.59673 31.8202 4.31962C31.8202 4.0401 31.6529 3.88107 31.3562 3.88107C31.3562 3.88107 31.3562 3.88107 31.3461 3.88107H31.3359V3.04492Z" fill="#ED1C24"/>
<path fill-rule="evenodd" clip-rule="evenodd" d="M34.981 3.04492C34.981 3.04492 34.981 3.04492 35.407 3.04492H35.4856V4.31962C35.445 4.39914 35.4019 4.51721 35.4019 4.63769C35.4019 4.63769 35.4019 4.63769 35.0647 5.55336C35.0647 5.55336 35.0647 5.55336 35.4222 5.55336H35.4856V6.38709H35.2574C35.1281 6.38709 34.981 6.38709 34.8137 6.38709C34.8137 6.38709 34.8137 6.38709 34.517 7.10516C34.4334 7.38227 34.266 7.50275 33.9288 7.50275C33.9288 7.50275 33.9288 7.50275 33.2949 7.50275C33.2949 7.50275 33.2949 7.50275 33.2949 6.62805C33.2949 6.62805 33.2949 6.62805 33.5054 6.62805C33.5916 6.62805 33.5916 6.62805 33.6321 6.58709C33.6321 6.58709 33.6321 6.58709 34.981 3.04492Z" fill="#ED1C24"/>
<path fill-rule="evenodd" clip-rule="evenodd" d="M35.4863 3.04492H35.9934C35.9934 3.04492 35.9934 3.04492 37.3423 6.58709C37.3829 6.62805 37.3829 6.62805 37.4666 6.62805C37.4666 6.62805 37.4666 6.62805 37.6364 6.62805C37.6364 6.62805 37.6364 6.62805 37.6364 7.50275C37.6364 7.50275 37.6364 7.50275 37.0457 7.50275C36.7084 7.50275 36.5411 7.38227 36.4549 7.0642C36.4549 7.0642 36.4549 7.0642 36.1608 6.38709C36.1608 6.38709 36.1608 6.38709 35.5928 6.38709H35.4863V5.55336H35.9072C35.9072 5.55336 35.9072 5.55336 35.5725 4.63769C35.5725 4.51721 35.5294 4.39914 35.4863 4.31962V3.04492Z" fill="#ED1C24"/>
<path fill-rule="evenodd" clip-rule="evenodd" d="M19.2617 8.77539C19.2617 8.77539 19.2617 8.77539 22.9281 8.77539C23.2653 8.77539 23.4757 8.93443 23.4757 9.29346C23.4757 9.29346 23.4757 9.29346 23.4757 12.3176C23.4757 12.3561 23.4757 12.3561 23.5188 12.3561C23.5188 12.3561 23.5188 12.3561 23.8561 12.3561C23.8561 12.3561 23.8561 12.3561 23.8561 13.2332C23.8561 13.2332 23.8561 13.2332 22.9712 13.2332C22.5908 13.2332 22.4235 13.0742 22.4235 12.7151C22.4235 12.7151 22.4235 12.7151 22.4235 9.6525C22.4235 9.6525 22.4235 9.61153 22.3804 9.61153C22.3804 9.61153 22.3804 9.61153 20.6943 9.61153C20.6943 9.61153 20.6943 9.61154 20.6943 13.2332C20.6943 13.2332 20.6943 13.2332 19.6826 13.2332C19.6826 13.2332 19.6826 13.2332 19.6826 9.61153C19.6826 9.61153 19.6826 9.61153 19.2617 9.61153C19.2617 9.61153 19.2617 9.61154 19.2617 8.77539Z" fill="#ED1C24"/>
<path fill-rule="evenodd" clip-rule="evenodd" d="M26.5091 8.69531L26.5294 8.69772V9.61579L26.5091 9.61098C25.7485 9.61098 25.1602 10.2086 25.1602 10.9652C25.1602 11.7604 25.7485 12.3965 26.5091 12.3965L26.5294 12.3917V13.3098L26.5091 13.3122C25.1602 13.3122 24.1055 12.276 24.1055 10.9652C24.1055 9.69049 25.1602 8.69531 26.5091 8.69531Z" fill="#ED1C24"/>
<path fill-rule="evenodd" clip-rule="evenodd" d="M26.5312 8.69727L27.0155 8.74064C28.1489 8.94787 28.9552 9.84907 28.9552 10.9647C28.9552 12.1117 28.1489 13.0491 27.0155 13.2635L26.5312 13.3093V12.3912L27.0662 12.2852C27.5708 12.0683 27.903 11.5599 27.903 10.9647C27.903 10.3961 27.5708 9.91895 27.0662 9.71654L26.5312 9.61534V8.69727Z" fill="#ED1C24"/>
<path fill-rule="evenodd" clip-rule="evenodd" d="M29.1641 8.77539C29.1641 8.77539 29.1641 8.77539 30.0921 8.77539C30.4293 8.77539 30.5966 8.93443 30.5966 9.29346C30.5966 9.29346 30.5966 9.29346 30.5966 12.3176C30.5966 12.3561 30.5966 12.3561 30.6397 12.3561C30.6397 12.3561 30.6397 12.3561 31.8618 12.3561C31.8618 12.3561 31.8618 12.3561 31.8618 8.77539C31.8618 8.77539 31.8618 8.77539 32.8735 8.77539C32.8735 8.77539 32.8735 8.77539 32.8735 12.3561C32.8735 12.3561 32.8735 12.3561 34.0956 12.3561C34.1387 12.3561 34.1387 12.3561 34.1387 12.3176C34.1387 12.3176 34.1387 12.3176 34.1387 9.29346C34.1387 8.93443 34.3061 8.77539 34.6433 8.77539C34.6433 8.77539 34.6433 8.77539 35.5713 8.77539C35.5713 8.77539 35.5713 8.77539 35.5713 9.61153C35.5713 9.61153 35.5713 9.61153 35.191 9.61153C35.1479 9.61153 35.1479 9.6525 35.1479 9.6525C35.1479 9.6525 35.1479 9.6525 35.1479 12.7151C35.1479 13.0742 34.9805 13.2332 34.6433 13.2332C34.6433 13.2332 34.6433 13.2332 30.1326 13.2332C29.7548 13.2332 29.585 13.0742 29.585 12.7151C29.585 12.7151 29.585 12.7151 29.585 9.6525C29.585 9.6525 29.585 9.61153 29.5444 9.61153C29.5444 9.61153 29.5444 9.61153 29.1641 9.61153C29.1641 9.61153 29.1641 9.61154 29.1641 8.77539Z" fill="#ED1C24"/>
<path fill-rule="evenodd" clip-rule="evenodd" d="M36.3702 8.77539C36.3702 8.77539 36.3702 8.77539 39.532 8.77539C39.9124 8.77539 40.0391 8.93443 40.0391 9.2525C40.0391 9.2525 40.0391 9.2525 40.0391 10.0091H39.1111C39.1111 10.0091 39.1111 10.0091 39.1111 9.6525C39.1111 9.61154 39.1111 9.61153 39.068 9.61153C39.068 9.61153 39.068 9.61153 38.4798 9.61153C38.4798 9.61153 38.4798 9.61154 38.4798 13.2332C38.4798 13.2332 38.4798 13.2332 37.4656 13.2332C37.4656 13.2332 37.4656 13.2332 37.4656 9.61153C37.4656 9.61153 37.4656 9.61153 36.8773 9.61153C36.8342 9.61153 36.8342 9.61154 36.8342 9.6525C36.8342 9.6525 36.8342 9.6525 36.8342 10.0091C36.8342 10.0091 36.8342 10.0091 35.9062 10.0091C35.9062 10.0091 35.9062 10.0091 35.9062 9.2525C35.9062 8.93443 36.033 8.77539 36.3702 8.77539Z" fill="#ED1C24"/>
<path fill-rule="evenodd" clip-rule="evenodd" d="M41.3463 8.77539C41.3463 8.77539 41.3463 8.77539 41.7722 8.77539H41.8508V10.0501C41.8077 10.1296 41.7672 10.2477 41.7672 10.3682C41.7672 10.3682 41.7672 10.3682 41.4299 11.2838C41.4299 11.2838 41.4299 11.2838 41.7849 11.2838H41.8508V12.1176H41.6226C41.4933 12.1176 41.3463 12.1176 41.1764 12.1176C41.1764 12.1176 41.1764 12.1176 40.8823 12.7947C40.7986 13.1127 40.6287 13.2332 40.2915 13.2332C40.2915 13.2332 40.2915 13.2332 39.6602 13.2332C39.6602 13.2332 39.6602 13.2332 39.6602 12.3561C39.6602 12.3561 39.6602 12.3561 39.8706 12.3561C39.9568 12.3561 39.9568 12.3561 39.9974 12.3176C39.9974 12.3176 39.9974 12.3176 41.3463 8.77539Z" fill="#ED1C24"/>
<path fill-rule="evenodd" clip-rule="evenodd" d="M41.8496 8.77539H42.3542C42.3542 8.77539 42.3542 8.77539 43.7056 12.3176C43.7462 12.3561 43.7462 12.3561 43.8324 12.3561H43.9997C43.9997 12.3561 43.9997 12.3561 43.9997 13.2332C43.9997 13.2332 43.9997 13.2332 43.4089 13.2332C43.0717 13.2332 42.9044 13.1127 42.8182 12.7947C42.8182 12.7947 42.8182 12.7947 42.5241 12.1176C42.5241 12.1176 42.5241 12.1176 41.9561 12.1176H41.8496V11.2838H42.2705C42.2705 11.2838 42.2705 11.2838 41.9333 10.3682C41.9333 10.2477 41.8927 10.1296 41.8496 10.0501V8.77539Z" fill="#ED1C24"/>
<path fill-rule="evenodd" clip-rule="evenodd" d="M12.7641 4.94108C12.8123 4.92662 12.8757 4.95554 12.9391 5.03506C12.9391 5.03506 12.9391 5.03506 15.8042 7.70012C15.9716 7.85915 15.9716 8.10012 15.8042 8.21819C15.8042 8.21819 15.8042 8.21819 12.9391 10.9242C12.8757 11.0037 12.8123 11.023 12.7641 10.9989C12.716 10.9748 12.6855 10.9049 12.6855 10.8037V5.11458C12.6855 5.01578 12.716 4.95554 12.7641 4.94108Z" fill="#ED1C24"/>
<path fill-rule="evenodd" clip-rule="evenodd" d="M7.86356 0.5H8.0664L8.26164 0.577109C8.26164 0.577109 8.26164 0.577109 11.2104 3.36265C11.3372 3.52169 11.2941 3.64217 11.0837 3.64217C11.0837 3.64217 11.0837 3.64217 9.86154 3.64217C9.6511 3.64217 9.48375 3.8012 9.48375 4.0012C9.48375 4.0012 9.48375 4.0012 9.48375 6.06867C9.48375 6.26867 9.31387 6.42771 9.06032 6.42771C9.06032 6.42771 9.06032 6.42771 6.91274 6.42771C6.7023 6.42771 6.53242 6.26867 6.53242 6.06867C6.53242 6.06867 6.53242 6.06867 6.53242 4.0012C6.53242 3.8012 6.36507 3.64217 6.15209 3.64217H4.8463C4.63585 3.64217 4.59275 3.52169 4.71953 3.36265C4.71953 3.36265 4.71953 3.36265 7.67086 0.577109L7.86356 0.5Z" fill="#ED1C24"/>
<path fill-rule="evenodd" clip-rule="evenodd" d="M3.24419 4.8808C3.29743 4.9049 3.33039 4.97477 3.33039 5.07598V10.8832C3.33039 10.9844 3.29743 11.0447 3.24419 11.0639C3.19348 11.0832 3.11995 11.0639 3.03374 11.0037C3.03374 11.0037 3.03374 11.0037 0.125508 8.21815C-0.0418359 8.10008 -0.0418359 7.85911 0.125508 7.70008C0.125508 7.70008 0.125508 7.70008 3.03374 4.9555C3.11995 4.87598 3.19348 4.8567 3.24419 4.8808Z" fill="#ED1C24"/>
<path fill-rule="evenodd" clip-rule="evenodd" d="M6.91271 9.45117C6.91271 9.45117 6.91271 9.45117 9.06029 9.45117C9.31384 9.45117 9.48372 9.61021 9.48372 9.81021C9.48372 9.81021 9.48372 9.81021 9.48372 11.9982C9.48372 12.2367 9.65106 12.3957 9.86151 12.3957H11C11.2104 12.3957 11.2941 12.5138 11.1267 12.6343C11.1267 12.6343 11.1267 12.6343 8.2616 15.3789C8.17539 15.4584 8.07144 15.4994 7.96495 15.4994C7.86099 15.4994 7.7545 15.4584 7.67083 15.3789C7.67083 15.3789 7.67083 15.3789 4.8057 12.6343C4.63582 12.5138 4.71949 12.3957 4.92994 12.3957C4.92994 12.3957 4.92994 12.3957 6.15205 12.3957C6.36504 12.3957 6.53238 12.2367 6.53238 11.9982C6.53238 11.9982 6.53238 11.9982 6.53238 9.81021C6.53238 9.61021 6.70226 9.45117 6.91271 9.45117Z" fill="#ED1C24"/>
</g>
<defs>
<clipPath id="clip0_244_87408">
<rect width="44" height="15" fill="white" transform="translate(0 0.5)"/>
</clipPath>
</defs>
</svg>
