<svg width="36" height="45" viewBox="0 0 36 45" fill="none" xmlns="http://www.w3.org/2000/svg">
<path d="M19.5793 16.0883C18.8475 15.576 18.0547 15.5089 17.7498 15.5394C17.4449 15.5089 16.6521 15.576 15.9203 16.0883C15.1885 16.6005 16.5911 17.5824 17.3839 18.0093C17.4449 18.3142 17.4205 18.924 16.835 18.924C16.2496 18.924 15.6763 18.4972 15.4629 18.2837C15.4934 18.6801 15.9934 19.5278 17.7498 19.7474C19.5062 19.5278 20.0062 18.6801 20.0367 18.2837C19.8233 18.4972 19.25 18.9241 18.6646 18.9241C18.0791 18.9241 18.0547 18.3142 18.1157 18.0093C18.9085 17.5824 20.3112 16.6005 19.5793 16.0883Z" fill="black"/>
<path d="M25.3034 2.65737L23.3297 4.24571C24.8644 5.02405 28.0008 7.49488 28.2695 11.1515L30.6181 9.26139C32.4418 7.79376 32.7304 5.12566 31.2628 3.30201C29.7952 1.47836 27.127 1.18974 25.3034 2.65737Z" fill="black"/>
<path d="M31.6541 22.4917L29.1842 20.3877C28.0865 22.6746 23.5126 25.236 21.4087 25.3275C19.7255 25.4006 19.4876 26.8216 19.5791 27.5229C19.8231 28.8646 21.0793 31.5113 24.153 31.365C27.995 31.182 31.0138 28.2547 31.9285 26.1508C32.6604 24.4676 32.0505 23.01 31.6541 22.4917Z" fill="black"/>
<ellipse cx="29.8315" cy="38.2053" rx="4.58887" ry="5.30568" transform="rotate(14.2273 29.8315 38.2053)" fill="black"/>
<path d="M20.0357 10.4166C19.7429 10.7093 19.2429 11.6363 19.0294 12.0632C19.0294 12.5206 19.3953 12.5206 20.676 13.2524C21.9567 13.9842 21.1334 16.0882 22.0482 16.82C22.9629 17.5518 25.5243 17.003 25.7073 14.5331C25.8902 12.0632 23.5118 10.874 22.4141 10.4166C21.3163 9.95923 20.4016 10.0507 20.0357 10.4166Z" fill="black"/>
<circle cx="21.4993" cy="12.0633" r="0.823295" fill="white"/>
<path d="M10.2825 2.65737L12.2561 4.24571C10.7215 5.02405 7.58508 7.49488 7.31636 11.1515L4.96774 9.26139C3.14409 7.79376 2.85547 5.12566 4.3231 3.30201C5.79072 1.47836 8.45883 1.18974 10.2825 2.65737Z" fill="black"/>
<path d="M3.93165 22.4917L6.40153 20.3877C7.49926 22.6746 12.0731 25.236 14.1771 25.3275C15.8603 25.4006 16.0981 26.8216 16.0066 27.5229C15.7627 28.8646 14.5064 31.5113 11.4328 31.365C7.59074 31.182 4.57199 28.2547 3.65722 26.1508C2.9254 24.4676 3.53525 23.01 3.93165 22.4917Z" fill="black"/>
<ellipse rx="4.58887" ry="5.30568" transform="matrix(-0.969328 0.245769 0.245769 0.969328 5.75258 38.2053)" fill="black"/>
<path d="M15.5484 10.4166C15.8412 10.7093 16.3412 11.6363 16.5547 12.0632C16.5547 12.5206 16.1888 12.5206 14.9081 13.2524C13.6274 13.9842 14.4507 16.0882 13.5359 16.82C12.6212 17.5518 10.0598 17.003 9.87685 14.5331C9.6939 12.0632 12.0723 10.874 13.17 10.4166C14.2678 9.95923 15.1825 10.0507 15.5484 10.4166Z" fill="black"/>
<circle r="0.823295" transform="matrix(-1 0 0 1 14.0848 12.0633)" fill="white"/>
</svg>
