<svg xmlns="http://www.w3.org/2000/svg" height="45" width="34" viewBox="0 0 219.26 291.46"><g id="Слой_2" data-name="Слой 2"><g id="Layer_1" data-name="Layer 1"><path d="M44.6,185.56l1.6,102.6,128.9,1.5.6-101.7a66.83,66.83,0,0,0,1.3-6.7c0-1.3,2.7-15.2-.4-15.4s-139.3-4.8-139.3-4.8l2.7,23Z" fill="#d61164"/><path d="M92.1,115.36a9.8,9.8,0,0,0,9.6-3.1s2.8,2.9,8.4,3.2c8.2.3,11.2-7.3,11.2-7.3s-4.4,4.6-10.6,4.1-6.9-7.3-6.5-9.7a2.19,2.19,0,0,1,1.4-1.9c1.5-.6,7.5-3.9,8.8-6.3,1.6-3.2-1.1-9.9-11.9-9.6-4.2.1-7.4,1-10.4,3.7s-3.5,6.5.5,8.6,7.6,3.9,7.6,6.2-1.6,7.5-4.9,8.8-9.7-1.5-10.6-6.2C84.6,106,85.9,114.06,92.1,115.36Z"/><path d="M95.9,120c6.3,10.9,13.4.3,13.4.3A12.21,12.21,0,0,1,95.9,120Z"/><path d="M219.1,205.46l.1-1.4c1.1-29-12.5-50.4-22.4-62a32.87,32.87,0,0,0-2.8-3.4c-6.7-7.2-15.6-13.9-18.4-16,9.2-13,13.6-28.1,11.7-39.9,0,0-.5-2.7-1.6-6.7-.4-2.4-3.3-18.7-4.2-20.3-.4-.8-3.1-1.7-6.1-2.6-1.1-1.8-2.3-3.5-3.5-5.1,5.3-6.3,7.9-13.6,7.4-21-.6-8.1-2.3-13.3-8.8-19-7.5-6.5-18-10.4-29.2-6.5-8.2,2.8-13.1,9.7-15.4,15.5a93.17,93.17,0,0,0-20-2.2h-.8l5.4-9.4-20.3,9.7.5-5.9-3,1.4c-.1.1-14.5,6.7-25.7,11.2-2.5,1-5.1,2.1-7.6,3.4-.6-.3-3.7-7.1-15.5-9-7-1.1-26.9,1-29.7,24.5-1,8.1,2.8,19.4,13.5,23.6-1.8,1.4-3.2,2.6-3.4,3.2-.6,1.5.3,14.1.6,17.8a82.76,82.76,0,0,0,.4,21.6,3.54,3.54,0,0,0,.1.6v.4a32.21,32.21,0,0,0,1.6,7.4h0a40.4,40.4,0,0,0,3.9,8.8,58.4,58.4,0,0,0,3.3,5.3,4.2,4.2,0,0,1-.2-.5c.9,1.3,1.9,2.5,3,3.8-5.1,4.3-31.1,28.4-31.7,66.8-.2,2.4-.3,4.5-.3,4.6a.37.37,0,0,0,.1.3c-.2,9.9.7,21.2,3.9,31.5,6,19.1,22.9,39.9,38.7,41.9.1,5.4.3,9.6.5,12.2,1.6.6,120.6,1.3,131.3,1.4h.8l2.5-.1s0-4.2.1-11a7.39,7.39,0,0,0,2.1,0c16.1-.8,31.5-23.5,36.5-44.1A120.34,120.34,0,0,0,219.1,205.46Zm-39.6,71a12.1,12.1,0,0,1-1.9-.1c0-3.5.1-7.4.1-11.6v-3.4c.2-15.6.4-34.2.6-48.4,6.7-4.4,12.2-11,16.3-18.6l1.2-2.4c.1-.3.3-.6.4-.9a9.74,9.74,0,0,1,1.1.5c2.2,1,5.6,2.6,8.8,4.4l.6.3c.9.7,1.9,1.4,2.8,2.1s1.8,1.1,2.6,1.6c.5.3,1,.6,1.4.9l.1.1c.2.2.5.3.7.5l.3.3c.1.9.2,1.9.3,2.8a97.84,97.84,0,0,1-2.1,30.7C208,254.56,193.5,275.76,179.5,276.46Zm-131.7-9.4a9.15,9.15,0,0,0-.1-1.7,10.87,10.87,0,0,0-.1-1.8c-.5-13.3-1-30.4-1.3-44.6h.1c-.1-1.1-.1-2.2-.2-3.3-.2-10.9-.3-20.3-.2-25.5.1-2.2.2-3.5.2-3.6h-.3c24.9-3.2,77.2-.1,106.4,2.1,7,1,15.4,2.1,21,2.7l-.2,15.5c-.7,16.1-.6,37.9-.4,55.1v3.4c.1,10.3.3,18.6.4,22.2l-124.9-1.8C48.6,285.86,48.2,278.16,47.8,267.06Zm-24.1-4.7c-1-1.1-2.1-2.2-3.1-3.4A73.2,73.2,0,0,1,7,234.66a90.46,90.46,0,0,1-3.9-29.2c0-1,.1-1.9.1-2.9V202c-.1.2-.3.3-.4.4a2.65,2.65,0,0,0,.5-.6c.6-.5,1.4-1.1,2.3-1.9a77,77,0,0,1,13.4-8.6,23.32,23.32,0,0,1,2.7-1c.5.8.9,1.6,1.4,2.4s1,1.5,1.4,2.2,1,1.4,1.4,2.1a49,49,0,0,0,15.2,13.9v2.4l.9,49.4v3.5l.1,7.3h-.3C36.1,272.66,29.5,268.36,23.7,262.36ZM49.8,26.26c.1.1.2.3.3.4a6.2,6.2,0,0,1-1.1-.3c-3.5-1.3-15.1-6.1-25.5-2.9C24.1,22.66,38.2,12.56,49.8,26.26Zm50.9-11.8-2.8,4.7,3.7-.3s1.6-.1,4.1-.1c7.5,0,22,1,34.9,7.7a85.3,85.3,0,0,1,28.8,25,23.53,23.53,0,0,1-2.3-.7c-1.5-.6-17-.9-27.6-.7A56.82,56.82,0,0,1,128,46c-3.1-1.6.7,2.1,3.5,4.4-5.3.5-14.1,2.1-20.1,3.2l.1-.1c-17.4,2.4-36.7-.3-44.5,0-1.3,0-3.1.2-5.2.3,2.7-3.2,6.4-7.5,6.6-7.7.3-.4-11.6,6-14.6,7.5-.9.4-2.3.9-3.8,1.4-8.5,1-16.7,2.1-17.7,2.6a21.31,21.31,0,0,0-2.9,1.8c.8-1.8,1.6-3.6,2.3-5.2a62.05,62.05,0,0,1,5.5-9.6,24.41,24.41,0,0,1,3.3-4.1c6.8-7.7,14.8-11.9,22.7-15.1,8.2-3.3,18-7.7,22.9-9.9l-.5,6.1Zm55-9.2s24,7.7,17.5,28.9A44.31,44.31,0,0,0,155.7,5.26Zm12.4,74.6s8.9,26.1-18.2,26.9C149.9,106.76,168.6,103.06,168.1,79.86ZM59.5,108.06s19.3-2.8,19.9-26.6C79.4,81.46,86.6,107.26,59.5,108.06ZM23.2,83.16l2.3-2s3.3,35,24.7,35.3,34.8-12.6,39.6-32.1c3.4-13.9,6.5-18.2,9.6-19.5,4.2-.2,7.4,2.4,13.8,18.5,6.9,17.5,21.6,30.2,42.8,27.7s20.8-37.7,20.8-37.7l5.3,1.7a41.86,41.86,0,0,1,1.7,16.6v.2c-.1.5-.1,1-.2,1.4-1.3,10-6.2,21.1-13.9,30.7a70.26,70.26,0,0,1-5.5,6c-1.7,1.6-3.5,3.3-5.6,5-.5-1.5-1-3-1.5-4.4-1.8-5.1-3.2-8.8-3.4-9-.6-.5-6.2-3.2-14.4.2-3.6,1.5-8.6,6.4-13.1,11.5-5.8,6.5-10.8,13.3-11.1,13.6-2.1-2.3-9.4.6-9.4.6s-9.1-7.4-14-11.2c-1.6-1.3-2.8-2.2-2.9-2.3-.6-.3-16-8.5-18.4-8.8s-6.6,1.6-10.6,13.8c-.2.7-.4,1.3-.7,2.1a29.46,29.46,0,0,0-1,4.6,68.71,68.71,0,0,1-11.2-5.6c-10.5-6.4-16.1-14.1-19.1-20.4-.1,0-.1-.1-.2-.1-.1-.3-.2-.7-.3-1a37.58,37.58,0,0,1-3-11A70.08,70.08,0,0,1,23.2,83.16Zm11.5,81.4,4.3,23.2,2.5-.5h0c0,.1,0,1.4-.1,3.5-.1,1.8-.2,4-.2,6.6l-.1.3.1,4.9v3.7c-6.3-4.1-11.8-10.3-14.1-16.2.6-3.6,1.3-7,2-10.2.3-.8.5-1.7.8-2.6.5-2.1,1.1-4.3,1.8-6.5.8-2.8,1.7-5.5,2.6-8.2Zm34.9-15c-.9-1,.5-3.6,3.1-4.6a3.85,3.85,0,0,1,1.9-.2,31.73,31.73,0,0,0,9.2,7.6c-1.5-.2-3-.4-4.6-.7q-5.1-.9-9.6-2.1Zm25.3,8.7s-6.7-.7-9.3-1.2a16.37,16.37,0,0,1-2.7-.9c3.9.6,7.7.9,11.5,1.2A9.24,9.24,0,0,0,94.9,158.26Zm46.7-32.1s9.1-3.4,10.1-2.7a54.63,54.63,0,0,1,2.7,7.6c.6,1.8,1.1,3.9,1.7,6,.2.9.5,1.9.7,2.8.1.4.2.9.3,1.3a46.81,46.81,0,0,1,1.3,11.1,81.5,81.5,0,0,0-2.9-9.9c-.1-.4-.3-.7-.4-1.1-.3-.9-.7-1.8-1-2.6a53.61,53.61,0,0,0-3.3-7.1,11.24,11.24,0,0,0-1.7-2.2,4.64,4.64,0,0,1,.8,2.3,44.65,44.65,0,0,1,.4,5.9,58.19,58.19,0,0,0-3.5-5.6C145.2,129.36,143.3,127,141.6,126.16Zm-29.7,23.9c2.1.5,3.6,2.1,3.3,2.3-2.9-1.7-8.5,2.9-8.5,2.9l.2-1.7v-.1l.3-2.6a5.94,5.94,0,0,1,2.9-1h1.1C111.4,150,111.7,150,111.9,150.06Zm-14.1-1.9-.2-.2h-.2c0-.1-.1-.1-.1-.2-3.4-4.4-8.5-8-13.2-10.8a108.8,108.8,0,0,0-11.1-5.5,38.67,38.67,0,0,1,14.9,5.1c6.8,4.3,9.3,9.6,9.8,11.3A.77.77,0,0,1,97.8,148.16Zm-15.3-.7a20.87,20.87,0,0,1,5.1,2.8,70.92,70.92,0,0,1-9.7-4.7A38.54,38.54,0,0,1,82.5,147.46Zm39.8,9.9c.9-.8,1.9-1.5,2.7-2.2a88.6,88.6,0,0,0,20.4-7.1,7.78,7.78,0,0,1,3.9,3.2c1.5,2.3-1.4,6.8-7.8,8.9s-16.5.6-18.7-.2S121.2,158.26,122.3,157.36Zm-79.4,26.3-2.2-20c10.6.1,45.2.5,52.4.6l.9,16.9C73.1,180.76,53.5,181.26,42.9,183.66Zm131.2-15.5a5.64,5.64,0,0,0,.1.7c-.3,5.2-.4,16.5-.4,16.5s-25.5-2.2-54.6-3.5l-.7-17C138.4,166.16,158.6,167.36,174.1,168.16Zm21.4-21.4c.1.1.2.1.3.2,8.3,10.3,18.1,27.1,19.4,49.1-1.3-1.5-4.2-3.7-12-7.2a23.26,23.26,0,0,0-7.3-3.2h-.1l-.6-2.7c-2-8.7-3.8-14.8-7.8-21.9-1.8-3.1-4-6.5-6.8-10.4a8.65,8.65,0,0,1-.7-1c.1,0,2.9,7.3,5.7,15.6,1.3,3.9,2.5,7.9,3.4,11.6.1.2.1.4.2.6,1.2,4.3,2.6,8.1,2.9,9.5-.5,7.8-6.6,16.1-13.7,21.4.1-8.1.2-14.1.2-16.4.9,0,1.4,0,1.4-.1,0-1,.1-28.3.1-28.3s-6.6-.5-7-.3l-9.6-.4a12.06,12.06,0,0,0,.4-5.3,112.38,112.38,0,0,0-4.4-18.4c1.1-1,2.5-2.2,3.9-3.5,1.3-1.1,2.6-2.3,3.7-3.4a13.58,13.58,0,0,0,1.2-1.2,6.79,6.79,0,0,0,1.2-1.2l.1-.1h0c.9-1,1.8-2,2.6-3C183.2,131.16,195.5,146.76,195.5,146.76ZM35.6,136.66q2.4,2.1,5.1,4.2c.5.3.9.7,1.4,1,.2.2.5.3.7.5s.5.3.7.4c1,.6,1.9,1.2,2.9,1.8a79.84,79.84,0,0,0,11.1,5.2,23.77,23.77,0,0,0,.8,6.4,62.92,62.92,0,0,0-11.9,2.2h.2l-8.6-.5-2-.1c.6-1.8,1.2-3.3,1.7-4.6.8-2.1,1.4-3.5,1.4-3.5-1.8,2.4-3.3,4.7-4.7,6.8-.3.4-.5.8-.8,1.2h-.4a1.75,1.75,0,0,0,.1.5,71,71,0,0,0-4.1,7.5c-2.8,6-4.2,11.8-6,19.9-2.6.2-11.7,2.8-19.5,10.9,1.9-33.8,24.1-55.3,29.7-60.2A3.36,3.36,0,0,1,35.6,136.66Z"/></g></g></svg>