<svg width="29" height="26" viewBox="0 0 29 26" fill="none" xmlns="http://www.w3.org/2000/svg">
<circle cx="2.73913" cy="16.7391" r="2.73913" fill="#584659"/>
<path fill-rule="evenodd" clip-rule="evenodd" d="M4 24V18H2V26H17V20L15 19.2V24H4Z" fill="#584659"/>
<circle cx="7.91296" cy="16.7391" r="2.73913" fill="#584659"/>
<circle cx="13.0868" cy="16.7391" r="2.73913" fill="#584659"/>
<path d="M19.4783 12.9346L21 16.1302H0L1.67391 12.9346H19.4783Z" fill="#584659"/>
<rect x="2" y="9" width="8" height="2" fill="#584659"/>
<circle cx="19" cy="10" r="10" fill="#F8F1F4"/>
<path d="M16.1809 15.1598C15.5942 15.1598 15.0275 15.0931 14.4809 14.9598C13.9342 14.8265 13.4842 14.6531 13.1309 14.4398L13.8909 12.7198C14.2242 12.9131 14.5942 13.0698 15.0009 13.1898C15.4142 13.3031 15.8142 13.3598 16.2009 13.3598C16.4275 13.3598 16.6042 13.3465 16.7309 13.3198C16.8642 13.2865 16.9609 13.2431 17.0209 13.1898C17.0809 13.1298 17.1109 13.0598 17.1109 12.9798C17.1109 12.8531 17.0409 12.7531 16.9009 12.6798C16.7609 12.6065 16.5742 12.5465 16.3409 12.4998C16.1142 12.4465 15.8642 12.3931 15.5909 12.3398C15.3175 12.2798 15.0409 12.2031 14.7609 12.1098C14.4875 12.0165 14.2342 11.8931 14.0009 11.7398C13.7742 11.5865 13.5909 11.3865 13.4509 11.1398C13.3109 10.8865 13.2409 10.5731 13.2409 10.1998C13.2409 9.76647 13.3609 9.37314 13.6009 9.0198C13.8475 8.6598 14.2109 8.37314 14.6909 8.15981C15.1775 7.94647 15.7809 7.83981 16.5009 7.83981C16.9742 7.83981 17.4409 7.8898 17.9009 7.9898C18.3609 8.0898 18.7742 8.24314 19.1409 8.44981L18.4309 10.1598C18.0842 9.98647 17.7475 9.85647 17.4209 9.76981C17.1009 9.68314 16.7875 9.63981 16.4809 9.63981C16.2542 9.63981 16.0742 9.65981 15.9409 9.69981C15.8075 9.7398 15.7109 9.79314 15.6509 9.85981C15.5975 9.92647 15.5709 9.99981 15.5709 10.0798C15.5709 10.1998 15.6409 10.2965 15.7809 10.3698C15.9209 10.4365 16.1042 10.4931 16.3309 10.5398C16.5642 10.5865 16.8175 10.6365 17.0909 10.6898C17.3709 10.7431 17.6475 10.8165 17.9209 10.9098C18.1942 11.0031 18.4442 11.1265 18.6709 11.2798C18.9042 11.4331 19.0909 11.6331 19.2309 11.8798C19.3709 12.1265 19.4409 12.4331 19.4409 12.7998C19.4409 13.2265 19.3175 13.6198 19.0709 13.9798C18.8309 14.3331 18.4709 14.6198 17.9909 14.8398C17.5109 15.0531 16.9075 15.1598 16.1809 15.1598ZM15.7009 16.1998V14.8998H17.1109V16.1998H15.7009ZM15.7009 8.0998V6.7998H17.1109V8.0998H15.7009Z" fill="#584659"/>
</svg>
