<svg width="12" height="12" viewBox="0 0 12 12" fill="none" xmlns="http://www.w3.org/2000/svg">
<path d="M3.15155 0.30007C2.60684 -0.243386 1.8602 0.0736302 1.55497 0.30007L0.498381 1.3542C0.0475819 1.80396 -0.0181417 2.50983 0.00534644 2.80654C-0.0572646 3.41559 0.404492 5.29895 2.75241 7.96001C5.10032 10.6211 7.56563 11.6924 8.5048 11.8954C9.55666 12.1765 10.2579 11.8251 10.477 11.6143C10.8292 11.2941 11.604 10.5321 11.8858 10.0448C12.1675 9.55759 11.8623 9.01413 11.6745 8.80331L9.86659 6.99959C8.90394 6.36712 8.17609 7.30412 8.12913 7.51494C8.09156 7.6836 7.9413 7.88193 7.87086 7.96001C7.69085 8.20207 7.07257 8.54095 6.03949 7.96001C4.74813 7.23384 3.80897 5.7815 3.66809 5.00848C3.55539 4.39006 4.07506 4.00121 4.34899 3.88409C4.55247 3.82943 4.99701 3.5983 5.14728 3.11107C5.29755 2.62383 4.9751 2.12722 4.79509 1.93982L3.15155 0.30007Z" fill="#584659"/>
</svg>
