<svg width="83" height="338" viewBox="0 0 83 338" fill="none" xmlns="http://www.w3.org/2000/svg">
<g opacity="0.3">
<path d="M69.5966 185L73.3727 192.399L81.5767 193.704L75.7064 199.582L77.0007 207.787L69.5966 204.021L62.1925 207.787L63.4868 199.582L57.6165 193.704L65.8205 192.399L69.5966 185Z" fill="white"/>
<path d="M69.5966 186.1L72.9273 192.627L73.043 192.853L73.2942 192.893L80.5306 194.044L75.3527 199.228L75.1729 199.408L75.2125 199.66L76.3542 206.898L69.8233 203.575L69.5966 203.46L69.3699 203.575L62.839 206.898L63.9807 199.66L64.0203 199.408L63.8405 199.228L58.6626 194.044L65.899 192.893L66.1502 192.853L66.2659 192.627L69.5966 186.1Z" stroke="#0C1C2A" stroke-opacity="0.3"/>
<path d="M57.5966 70L61.3727 77.3993L69.5767 78.704L63.7064 84.5818L65.0007 92.7875L57.5966 89.0209L50.1925 92.7875L51.4868 84.5818L45.6165 78.704L53.8205 77.3993L57.5966 70Z" fill="white"/>
<path d="M57.5966 71.1L60.9273 77.6265L61.043 77.8531L61.2942 77.8931L68.5306 79.0439L63.3527 84.2285L63.1729 84.4085L63.2125 84.6597L64.3542 91.8976L57.8233 88.5752L57.5966 88.4599L57.3699 88.5752L50.839 91.8976L51.9807 84.6597L52.0203 84.4085L51.8405 84.2285L46.6626 79.0439L53.899 77.8931L54.1502 77.8531L54.2659 77.6265L57.5966 71.1Z" stroke="#0C1C2A" stroke-opacity="0.3"/>
<path d="M21.5 3L27.9451 15.6291L41.9477 17.8561L31.9283 27.8884L34.1374 41.8939L21.5 35.465L8.86262 41.8939L11.0717 27.8884L1.05228 17.8561L15.0549 15.6291L21.5 3Z" fill="white"/>
<path d="M21.5 4.09996L27.4997 15.8564L27.6153 16.083L27.8665 16.1229L40.9016 18.196L31.5746 27.535L31.3948 27.715L31.4344 27.9663L33.4908 41.004L21.7267 35.0194L21.5 34.904L21.2733 35.0194L9.50916 41.004L11.5656 27.9663L11.6052 27.715L11.4254 27.535L2.09841 18.196L15.1335 16.1229L15.3847 16.083L15.5003 15.8564L21.5 4.09996Z" stroke="#0C1C2A" stroke-opacity="0.3"/>
<path d="M34 225L35.7986 228.524L39.7063 229.146L36.9102 231.946L37.5267 235.854L34 234.06L30.4733 235.854L31.0898 231.946L28.2937 229.146L32.2014 228.524L34 225Z" fill="white"/>
<path d="M34 226.1L35.3533 228.752L35.4689 228.978L35.7201 229.018L38.6602 229.486L36.5565 231.592L36.3767 231.772L36.4163 232.023L36.8802 234.964L34.2267 233.614L34 233.499L33.7733 233.614L31.1198 234.964L31.5837 232.023L31.6233 231.772L31.4435 231.592L29.3398 229.486L32.2799 229.018L32.5311 228.978L32.6467 228.752L34 226.1Z" stroke="#0C1C2A" stroke-opacity="0.3"/>
<path d="M28 107L29.7986 110.524L33.7063 111.146L30.9102 113.946L31.5267 117.854L28 116.06L24.4733 117.854L25.0898 113.946L22.2937 111.146L26.2014 110.524L28 107Z" fill="white"/>
<path d="M28 108.1L29.3533 110.752L29.4689 110.978L29.7201 111.018L32.6602 111.486L30.5565 113.592L30.3767 113.772L30.4163 114.023L30.8802 116.964L28.2267 115.614L28 115.499L27.7733 115.614L25.1198 116.964L25.5837 114.023L25.6233 113.772L25.4435 113.592L23.3398 111.486L26.2799 111.018L26.5311 110.978L26.6467 110.752L28 108.1Z" stroke="#0C1C2A" stroke-opacity="0.3"/>
<path d="M57.5966 243L61.3727 250.399L69.5767 251.704L63.7064 257.582L65.0007 265.787L57.5966 262.021L50.1925 265.787L51.4868 257.582L45.6165 251.704L53.8205 250.399L57.5966 243Z" fill="white"/>
<path d="M57.5966 244.1L60.9273 250.627L61.043 250.853L61.2942 250.893L68.5306 252.044L63.3527 257.228L63.1729 257.408L63.2125 257.66L64.3542 264.898L57.8233 261.575L57.5966 261.46L57.3699 261.575L50.839 264.898L51.9807 257.66L52.0203 257.408L51.8405 257.228L46.6626 252.044L53.899 250.893L54.1502 250.853L54.2659 250.627L57.5966 244.1Z" stroke="#0C1C2A" stroke-opacity="0.3"/>
<path d="M69.5966 21L73.3727 28.3993L81.5767 29.704L75.7064 35.5818L77.0007 43.7875L69.5966 40.0209L62.1925 43.7875L63.4868 35.5818L57.6165 29.704L65.8205 28.3993L69.5966 21Z" fill="white"/>
<path d="M69.5966 22.1L72.9273 28.6265L73.043 28.8531L73.2942 28.8931L80.5306 30.0439L75.3527 35.2285L75.1729 35.4085L75.2125 35.6597L76.3542 42.8976L69.8233 39.5752L69.5966 39.4599L69.3699 39.5752L62.839 42.8976L63.9807 35.6597L64.0203 35.4085L63.8405 35.2285L58.6626 30.0439L65.899 28.8931L66.1502 28.8531L66.2659 28.6265L69.5966 22.1Z" stroke="#0C1C2A" stroke-opacity="0.3"/>
<path d="M34 273L35.7986 276.524L39.7063 277.146L36.9102 279.946L37.5267 283.854L34 282.06L30.4733 283.854L31.0898 279.946L28.2937 277.146L32.2014 276.524L34 273Z" fill="white"/>
<path d="M34 274.1L35.3533 276.752L35.4689 276.978L35.7201 277.018L38.6602 277.486L36.5565 279.592L36.3767 279.772L36.4163 280.023L36.8802 282.964L34.2267 281.614L34 281.499L33.7733 281.614L31.1198 282.964L31.5837 280.023L31.6233 279.772L31.4435 279.592L29.3398 277.486L32.2799 277.018L32.5311 276.978L32.6467 276.752L34 274.1Z" stroke="#0C1C2A" stroke-opacity="0.3"/>
<path d="M40 58L41.7986 61.5244L45.7063 62.1459L42.9102 64.9456L43.5267 68.8541L40 67.06L36.4733 68.8541L37.0898 64.9456L34.2937 62.1459L38.2014 61.5244L40 58Z" fill="white"/>
<path d="M40 59.1L41.3533 61.7517L41.4689 61.9783L41.7201 62.0182L44.6602 62.4858L42.5565 64.5923L42.3767 64.7722L42.4163 65.0235L42.8802 67.9642L40.2267 66.6144L40 66.499L39.7733 66.6144L37.1198 67.9642L37.5837 65.0235L37.6233 64.7722L37.4435 64.5923L35.3398 62.4858L38.2799 62.0182L38.5311 61.9783L38.6467 61.7517L40 59.1Z" stroke="#0C1C2A" stroke-opacity="0.3"/>
<path d="M49 201L50.7986 204.524L54.7063 205.146L51.9102 207.946L52.5267 211.854L49 210.06L45.4733 211.854L46.0898 207.946L43.2937 205.146L47.2014 204.524L49 201Z" fill="white"/>
<path d="M49 202.1L50.3533 204.752L50.4689 204.978L50.7201 205.018L53.6602 205.486L51.5565 207.592L51.3767 207.772L51.4163 208.023L51.8802 210.964L49.2267 209.614L49 209.499L48.7733 209.614L46.1198 210.964L46.5837 208.023L46.6233 207.772L46.4435 207.592L44.3398 205.486L47.2799 205.018L47.5311 204.978L47.6467 204.752L49 202.1Z" stroke="#0C1C2A" stroke-opacity="0.3"/>
<path d="M49 0L50.7986 3.52441L54.7063 4.1459L51.9102 6.94559L52.5267 10.8541L49 9.06L45.4733 10.8541L46.0898 6.94559L43.2937 4.1459L47.2014 3.52441L49 0Z" fill="white"/>
<path d="M49 1.09996L50.3533 3.75169L50.4689 3.97825L50.7201 4.0182L53.6602 4.4858L51.5565 6.59227L51.3767 6.77224L51.4163 7.02349L51.8802 9.96421L49.2267 8.61435L49 8.49902L48.7733 8.61435L46.1198 9.96421L46.5837 7.02349L46.6233 6.77224L46.4435 6.59227L44.3398 4.4858L47.2799 4.0182L47.5311 3.97825L47.6467 3.75169L49 1.09996Z" stroke="#0C1C2A" stroke-opacity="0.3"/>
<path d="M53.2087 122L61.365 137.982L79.0856 140.801L66.4059 153.497L69.2015 171.221L53.2087 163.085L37.2158 171.221L40.0114 153.497L27.3317 140.801L45.0523 137.982L53.2087 122Z" fill="white"/>
<path d="M53.2087 123.1L60.9196 138.21L61.0353 138.436L61.2865 138.476L78.0395 141.141L66.0521 153.143L65.8724 153.323L65.912 153.575L68.555 170.331L53.4354 162.639L53.2087 162.524L52.9819 162.639L37.8623 170.331L40.5053 153.575L40.5449 153.323L40.3652 153.143L28.3778 141.141L45.1308 138.476L45.382 138.436L45.4977 138.21L53.2087 123.1Z" stroke="#0C1C2A" stroke-opacity="0.3"/>
<path d="M58 290L65.1945 304.098L80.8254 306.584L69.6409 317.782L72.1068 333.416L58 326.24L43.8932 333.416L46.3591 317.782L35.1746 306.584L50.8055 304.098L58 290Z" fill="white"/>
<path d="M58 291.1L64.7491 304.325L64.8648 304.551L65.116 304.591L79.7792 306.923L69.2872 317.429L69.1074 317.609L69.147 317.86L71.4603 332.527L58.2267 325.794L58 325.679L57.7733 325.794L44.5397 332.527L46.853 317.86L46.8926 317.609L46.7128 317.429L36.2208 306.923L50.884 304.591L51.1352 304.551L51.2509 304.325L58 291.1Z" stroke="#0C1C2A" stroke-opacity="0.3"/>
</g>
</svg>
