<svg xmlns="http://www.w3.org/2000/svg" width="14" height="16" viewBox="0 0 14 16" fill="none">
                      <path d="M13.857 9.26256C14.3126 5.2481 13.6381 2.71367 12.4213 1.56735C10.4575 -0.390261 3.82596 -0.680672 1.47649 1.6546C0.421399 2.79693 0.0497616 4.47345 0.00903422 6.54895C-0.0316932 8.62512 -0.0800571 12.5144 3.38241 13.5694H3.38559L3.38241 15.1807C3.38241 15.1807 3.35886 15.8334 3.75723 15.9646C4.21287 16.1192 4.41905 15.8161 5.83624 14.0443C8.20606 14.2595 10.0261 13.7666 10.2329 13.6946C10.7114 13.5268 13.4192 13.1518 13.857 9.26256ZM6.06978 12.9107C6.06978 12.9107 4.56987 14.8683 4.10341 15.3765C3.95068 15.5417 3.78332 15.5264 3.78586 15.1987C3.78586 14.9835 3.79732 12.5237 3.79732 12.5237C0.861764 11.6431 1.03486 8.33138 1.06667 6.59891C1.09849 4.86577 1.4014 3.44636 2.29486 2.49053C4.35605 0.467649 10.1705 0.919917 11.652 2.3773C13.4631 4.05782 12.8184 8.80563 12.8223 8.96749C12.45 12.214 10.2558 12.4198 9.85234 12.5603C9.67988 12.6203 8.07942 13.0512 6.06978 12.9107Z" fill="#584659"></path>
                      <path d="M7.18195 2.99992C6.93935 2.99992 6.93935 3.35138 7.18195 3.35431C9.06419 3.36778 10.6143 4.58733 10.6313 6.82434C10.6313 7.0604 11.0031 7.05747 11 6.82141C10.9798 4.41101 9.28663 3.0134 7.18195 2.99992Z" fill="#584659"></path>
                      <path d="M9.59003 6.80065C9.58374 7.05857 9.99563 7.07088 9.99913 6.80973C10.0334 5.33935 9.05506 4.12819 7.21656 4.00053C6.94732 3.98239 6.91935 4.37444 7.18789 4.39259C8.78232 4.5047 9.6222 5.51303 9.59003 6.80065Z" fill="#584659"></path>
                      <path d="M8.57614 8.16353C8.27968 7.97381 7.97782 8.09189 7.85299 8.2783L7.59194 8.65178C7.45931 8.8415 7.21147 8.81629 7.21147 8.81629C5.40271 8.28758 4.91901 6.1953 4.91901 6.1953C4.91901 6.1953 4.89681 5.91204 5.06244 5.76013L5.38891 5.46161C5.55214 5.31833 5.65536 4.97337 5.48913 4.63439C5.04504 3.74746 4.74678 3.44164 4.59495 3.20681C4.43532 2.98591 4.19527 2.93615 3.94562 3.08541H3.94022C3.42112 3.42108 2.8528 4.04929 3.03464 4.69608C3.3449 5.37803 3.91501 7.5519 5.73217 9.19442C6.58614 9.97122 7.93761 10.7673 8.51132 10.951L8.51672 10.9603C9.08204 11.1686 9.63175 10.5159 9.9252 9.92479V9.92015C10.0554 9.63423 10.0122 9.36358 9.82198 9.18645C9.48472 8.82293 8.97582 8.42159 8.57614 8.16353Z" fill="#584659"></path>
                      <path d="M7.23516 5.4877C8.05751 5.5328 8.45627 5.93711 8.49906 6.76747C8.51446 7.09205 9.01505 7.0695 8.99965 6.74492C8.94489 5.66086 8.34417 5.05682 7.26254 5.00044C6.93309 4.98191 6.90228 5.46918 7.23516 5.4877Z" fill="#584659"></path>
                  </svg>