<svg width="31" height="10" viewBox="0 0 31 10" fill="none" xmlns="http://www.w3.org/2000/svg">
<path d="M13.3897 9.85604H10.8867L12.4523 0.175781H14.9552L13.3897 9.85604Z" fill="#00579F"/>
<path d="M22.4634 0.412127C21.9697 0.216261 21.1867 0 20.2184 0C17.7466 0 16.006 1.31809 15.9953 3.20257C15.9748 4.59294 17.2416 5.36518 18.189 5.82877C19.1574 6.30249 19.4866 6.61169 19.4866 7.03394C19.4767 7.68245 18.7041 7.98139 17.9834 7.98139C16.9841 7.98139 16.4486 7.82727 15.6349 7.46647L15.3053 7.3118L14.9551 9.48481C15.5421 9.75226 16.6237 9.9896 17.7466 10C20.373 10 22.0828 8.7023 22.103 6.69409C22.113 5.59212 21.4441 4.74774 20.002 4.05776C19.1266 3.61484 18.5904 3.31618 18.5904 2.86299C18.6007 2.451 19.0439 2.02902 20.0321 2.02902C20.8459 2.00835 21.4437 2.20394 21.8966 2.39967L22.123 2.50246L22.4634 0.412127Z" fill="#00579F"/>
<path d="M25.7896 6.42667C25.9957 5.87055 26.7889 3.71821 26.7889 3.71821C26.7785 3.73888 26.9946 3.15183 27.1182 2.79144L27.2931 3.62555C27.2931 3.62555 27.7671 5.94268 27.87 6.42667C27.4789 6.42667 26.284 6.42667 25.7896 6.42667ZM28.8792 0.175781H26.9431C26.3461 0.175781 25.8925 0.350706 25.6349 0.978957L21.917 9.85591H24.5433C24.5433 9.85591 24.9757 8.66113 25.0686 8.40381C25.3568 8.40381 27.9117 8.40381 28.2823 8.40381C28.3542 8.74367 28.581 9.85591 28.581 9.85591H30.8985L28.8792 0.175781Z" fill="#00579F"/>
<path d="M8.79593 0.175781L6.34465 6.77679L6.07679 5.43803C5.6236 3.89327 4.2023 2.21493 2.61621 1.38041L4.86149 9.84578H7.50835L11.4427 0.175781H8.79593Z" fill="#00579F"/>
<path d="M4.0683 0.175781H0.0411988L0 0.371374C3.14139 1.17469 5.22187 3.11104 6.07665 5.43844L5.2012 0.989496C5.05708 0.371237 4.61415 0.196175 4.0683 0.175781Z" fill="#FAA61A"/>
</svg>
