<svg width="26" height="10" viewBox="0 0 26 10" fill="none" xmlns="http://www.w3.org/2000/svg">
<path d="M11.8012 8.9323H9.77148L11.041 1.09375H13.0706L11.8012 8.9323Z" fill="#584659"/>
<path d="M19.159 1.28489C18.7586 1.12629 18.1236 0.951172 17.3384 0.951172C15.334 0.951172 13.9225 2.01849 13.9139 3.54444C13.8972 4.67028 14.9245 5.2956 15.6927 5.67099C16.478 6.05459 16.745 6.30496 16.745 6.64688C16.737 7.172 16.1104 7.41406 15.526 7.41406C14.7157 7.41406 14.2815 7.28927 13.6216 6.99711L13.3543 6.87187L13.0703 8.63145C13.5464 8.84802 14.4234 9.04021 15.334 9.04863C17.4638 9.04863 18.8503 7.99782 18.8667 6.37168C18.8748 5.47936 18.3324 4.79564 17.163 4.23693C16.4531 3.87827 16.0183 3.63643 16.0183 3.26947C16.0266 2.93586 16.386 2.59416 17.1874 2.59416C17.8472 2.57742 18.3321 2.7358 18.6993 2.8943L18.8829 2.97753L19.159 1.28489Z" fill="#584659"/>
<path d="M21.8571 6.15538C22.0243 5.70507 22.6675 3.96222 22.6675 3.96222C22.6591 3.97895 22.8343 3.50359 22.9345 3.21177L23.0764 3.88718C23.0764 3.88718 23.4608 5.76347 23.5442 6.15538C23.227 6.15538 22.258 6.15538 21.8571 6.15538ZM24.3626 1.09375H22.7926C22.3084 1.09375 21.9406 1.23539 21.7317 1.74412L18.7168 8.93219H20.8465C20.8465 8.93219 21.1972 7.96473 21.2725 7.75636C21.5062 7.75636 23.578 7.75636 23.8785 7.75636C23.9368 8.03156 24.1207 8.93219 24.1207 8.93219H26.0001L24.3626 1.09375Z" fill="#584659"/>
<path d="M8.07569 1.09375L6.08791 6.43889L5.8707 5.35483C5.5032 4.10397 4.35064 2.74494 3.06445 2.06919L4.88519 8.92399H7.03157L10.222 1.09375H8.07569Z" fill="#584659"/>
<path d="M4.24241 0.09375H0.976768L0.943359 0.25213C3.49077 0.902609 5.17786 2.47056 5.87102 4.35517L5.1611 0.752652C5.04423 0.252019 4.68505 0.110264 4.24241 0.09375Z" fill="#584659"/>
</svg>
